FoulisGreek.ufo
<glyph name="quotedbl" format="1">
  <advance width="758"/>
  <unicode hex="0022"/>
  <outline>
    <contour>
      <point x="450" y="1396" type="qcurve" smooth="yes"/>
      <point x="450" y="1482"/>
      <point x="640" y="1482"/>
      <point x="640" y="1398" type="qcurve" smooth="yes"/>
      <point x="640" y="1357"/>
      <point x="602" y="1117"/>
      <point x="581" y="945" type="qcurve" smooth="yes"/>
      <point x="580" y="937"/>
      <point x="512" y="937"/>
      <point x="511" y="945" type="qcurve" smooth="yes"/>
      <point x="491" y="1114"/>
      <point x="450" y="1357"/>
    </contour>
    <contour>
      <point x="121" y="1395" type="qcurve" smooth="yes"/>
      <point x="121" y="1481"/>
      <point x="311" y="1481"/>
      <point x="311" y="1397" type="qcurve" smooth="yes"/>
      <point x="311" y="1356"/>
      <point x="273" y="1116"/>
      <point x="252" y="944" type="qcurve" smooth="yes"/>
      <point x="251" y="936"/>
      <point x="183" y="936"/>
      <point x="182" y="944" type="qcurve" smooth="yes"/>
      <point x="162" y="1113"/>
      <point x="121" y="1356"/>
    </contour>
  </outline>
</glyph>
<glyph name="numbersign" format="1">
  <advance width="1016"/>
  <unicode hex="0023"/>
  <outline>
    <contour>
      <point x="993" y="922" type="line"/>
      <point x="993" y="836" type="line"/>
      <point x="774" y="836" type="line"/>
      <point x="680" y="483" type="line"/>
      <point x="877" y="483" type="line"/>
      <point x="877" y="397" type="line"/>
      <point x="657" y="397" type="line"/>
      <point x="555" y="10" type="line"/>
      <point x="465" y="10" type="line"/>
      <point x="567" y="397" type="line"/>
      <point x="326" y="397" type="line"/>
      <point x="221" y="10" type="line"/>
      <point x="133" y="10" type="line"/>
      <point x="236" y="397" type="line"/>
      <point x="25" y="397" type="line"/>
      <point x="25" y="483" type="line"/>
      <point x="258" y="483" type="line"/>
      <point x="354" y="836" type="line"/>
      <point x="141" y="836" type="line"/>
      <point x="141" y="922" type="line"/>
      <point x="377" y="922" type="line"/>
      <point x="465" y="1249" type="line"/>
      <point x="555" y="1249" type="line"/>
      <point x="467" y="922" type="line"/>
      <point x="709" y="922" type="line"/>
      <point x="797" y="1249" type="line"/>
      <point x="885" y="1249" type="line"/>
      <point x="799" y="922" type="line"/>
    </contour>
    <contour>
      <point x="684" y="836" type="line"/>
      <point x="442" y="836" type="line"/>
      <point x="348" y="483" type="line"/>
      <point x="592" y="483" type="line"/>
    </contour>
  </outline>
</glyph>
<glyph name="dollar" format="1">
  <advance width="987"/>
  <unicode hex="0024"/>
  <outline>
    <contour>
      <point x="122" y="351" type="qcurve" smooth="yes"/>
      <point x="122" y="359"/>
      <point x="123" y="365" type="qcurve" smooth="yes"/>
      <point x="127" y="382"/>
      <point x="185" y="382"/>
      <point x="186" y="375" type="qcurve" smooth="yes"/>
      <point x="198" y="250"/>
      <point x="355" y="96"/>
      <point x="459" y="74" type="qcurve"/>
      <point x="459" y="610" type="line"/>
      <point x="334" y="668" type="line" smooth="yes"/>
      <point x="129" y="763"/>
      <point x="129" y="1016" type="qcurve" smooth="yes"/>
      <point x="129" y="1131"/>
      <point x="314" y="1319"/>
      <point x="459" y="1329" type="qcurve"/>
      <point x="459" y="1466" type="line" smooth="yes"/>
      <point x="459" y="1481"/>
      <point x="545" y="1481"/>
      <point x="545" y="1466" type="qcurve" smooth="yes"/>
      <point x="545" y="1329" type="line"/>
      <point x="629" y="1324"/>
      <point x="781" y="1292"/>
      <point x="786" y="1292" type="qcurve"/>
      <point x="810" y="1211"/>
      <point x="821" y="1072" type="qcurve" smooth="yes"/>
      <point x="823" y="1054"/>
      <point x="823" y="1037"/>
      <point x="796" y="1026"/>
      <point x="762" y="1026"/>
      <point x="758" y="1040" type="qcurve"/>
      <point x="736" y="1145"/>
      <point x="610" y="1260"/>
      <point x="545" y="1266" type="qcurve"/>
      <point x="545" y="778" type="line"/>
      <point x="742" y="717"/>
      <point x="895" y="541"/>
      <point x="895" y="389" type="qcurve" smooth="yes"/>
      <point x="895" y="211"/>
      <point x="695" y="0"/>
      <point x="545" y="-4" type="qcurve"/>
      <point x="545" y="-150" type="line" smooth="yes"/>
      <point x="545" y="-166"/>
      <point x="459" y="-166"/>
      <point x="459" y="-150" type="qcurve" smooth="yes"/>
      <point x="459" y="-4" type="line"/>
      <point x="372" y="2"/>
      <point x="257" y="45"/>
      <point x="168" y="88" type="qcurve"/>
      <point x="122" y="226"/>
    </contour>
    <contour>
      <point x="262" y="1057" type="qcurve" smooth="yes"/>
      <point x="262" y="944"/>
      <point x="375" y="839"/>
      <point x="459" y="809" type="qcurve"/>
      <point x="459" y="1268" type="line"/>
      <point x="360" y="1256"/>
      <point x="262" y="1142"/>
    </contour>
    <contour>
      <point x="545" y="66" type="line"/>
      <point x="623" y="66"/>
      <point x="764" y="186"/>
      <point x="764" y="293" type="qcurve" smooth="yes"/>
      <point x="764" y="485"/>
      <point x="545" y="575" type="qcurve"/>
    </contour>
  </outline>
</glyph>
<glyph name="ampersand" format="1">
  <advance width="1704"/>
  <unicode hex="0026"/>
  <outline>
    <contour>
      <point x="413" y="-75" type="move" name="below"/>
    </contour>
    <contour>
      <point x="76" y="356" type="qcurve" smooth="yes"/>
      <point x="76" y="614"/>
      <point x="281" y="733" type="qcurve" smooth="yes"/>
      <point x="430" y="819" type="line"/>
      <point x="258" y="943"/>
      <point x="258" y="1083" type="qcurve" smooth="yes"/>
      <point x="258" y="1205"/>
      <point x="436" y="1372"/>
      <point x="557" y="1372" type="qcurve" smooth="yes"/>
      <point x="684" y="1372"/>
      <point x="834" y="1227"/>
      <point x="834" y="1116" type="qcurve" smooth="yes"/>
      <point x="834" y="986"/>
      <point x="709" y="913" type="qcurve"/>
      <point x="620" y="862" type="line"/>
      <point x="834" y="707"/>
      <point x="1022" y="432" type="qcurve"/>
      <point x="1114" y="550" type="line"/>
      <point x="1262" y="742"/>
      <point x="1262" y="852"/>
      <point x="1110" y="852" type="qcurve" smooth="yes"/>
      <point x="1095" y="852"/>
      <point x="1095" y="903"/>
      <point x="1110" y="903" type="qcurve" smooth="yes"/>
      <point x="1589" y="903" type="line" smooth="yes"/>
      <point x="1606" y="903"/>
      <point x="1606" y="852"/>
      <point x="1589" y="852" type="qcurve" smooth="yes"/>
      <point x="1485" y="852"/>
      <point x="1382" y="779"/>
      <point x="1250" y="608" type="qcurve" smooth="yes"/>
      <point x="1065" y="369" type="line"/>
      <point x="1135" y="266" type="line" smooth="yes"/>
      <point x="1264" y="76"/>
      <point x="1446" y="76" type="qcurve" smooth="yes"/>
      <point x="1566" y="76"/>
      <point x="1638" y="154" type="qcurve" smooth="yes"/>
      <point x="1640.86" y="156.908"/>
      <point x="1651" y="156.908"/>
      <point x="1670" y="144"/>
      <point x="1670" y="134" type="qcurve" smooth="yes"/>
      <point x="1670" y="127"/>
      <point x="1665" y="119" type="qcurve" smooth="yes"/>
      <point x="1555" y="-29"/>
      <point x="1323" y="-29" type="qcurve" smooth="yes"/>
      <point x="1166" y="-29"/>
      <point x="975" y="252" type="qcurve"/>
      <point x="759" y="-27"/>
      <point x="496" y="-27" type="qcurve" smooth="yes"/>
      <point x="304" y="-27"/>
      <point x="76" y="195"/>
    </contour>
    <contour>
      <point x="395" y="1135" type="qcurve" smooth="yes"/>
      <point x="395" y="1025"/>
      <point x="569" y="899" type="qcurve"/>
      <point x="698" y="974"/>
      <point x="698" y="1122" type="qcurve" smooth="yes"/>
      <point x="698" y="1213"/>
      <point x="613" y="1311"/>
      <point x="549" y="1311" type="qcurve" smooth="yes"/>
      <point x="480" y="1311"/>
      <point x="395" y="1202"/>
    </contour>
    <contour>
      <point x="221" y="422" type="qcurve" smooth="yes"/>
      <point x="221" y="269"/>
      <point x="414" y="98"/>
      <point x="555" y="98" type="qcurve" smooth="yes"/>
      <point x="764" y="98"/>
      <point x="932" y="315" type="qcurve"/>
      <point x="744" y="592"/>
      <point x="482" y="782" type="qcurve"/>
      <point x="221" y="631"/>
    </contour>
  </outline>
</glyph>
<glyph name="quotesingle" format="1">
  <advance width="422"/>
  <unicode hex="0027"/>
  <outline>
    <contour>
      <point x="117" y="1395" type="qcurve" smooth="yes"/>
      <point x="117" y="1481"/>
      <point x="307" y="1481"/>
      <point x="307" y="1397" type="qcurve" smooth="yes"/>
      <point x="307" y="1356"/>
      <point x="269" y="1116"/>
      <point x="248" y="944" type="qcurve" smooth="yes"/>
      <point x="247" y="936"/>
      <point x="179" y="936"/>
      <point x="178" y="944" type="qcurve" smooth="yes"/>
      <point x="158" y="1113"/>
      <point x="117" y="1356"/>
    </contour>
  </outline>
</glyph>
<glyph name="parenright" format="1">
  <advance width="676"/>
  <unicode hex="0029"/>
  <outline>
    <contour>
      <point x="510" y="588" type="qcurve" smooth="yes"/>
      <point x="510" y="326"/>
      <point x="282" y="-170"/>
      <point x="103" y="-340" type="qcurve" smooth="yes"/>
      <point x="87" y="-354"/>
      <point x="48" y="-354"/>
      <point x="23" y="-332"/>
      <point x="23" y="-312"/>
      <point x="41" y="-288" type="qcurve" smooth="yes"/>
      <point x="371" y="58"/>
      <point x="371" y="588" type="qcurve" smooth="yes"/>
      <point x="371" y="1113"/>
      <point x="37" y="1465" type="qcurve" smooth="yes"/>
      <point x="23" y="1479"/>
      <point x="23" y="1511"/>
      <point x="55" y="1530"/>
      <point x="83" y="1530"/>
      <point x="103" y="1514" type="qcurve" smooth="yes"/>
      <point x="296" y="1340"/>
      <point x="510" y="905"/>
    </contour>
  </outline>
</glyph>
<glyph name="plus" format="1">
  <advance width="1024"/>
  <unicode hex="002B"/>
  <outline>
    <contour>
      <point x="907" y="371" type="line"/>
      <point x="573" y="371" type="line"/>
      <point x="573" y="0" type="line"/>
      <point x="453" y="0" type="line"/>
      <point x="453" y="371" type="line"/>
      <point x="119" y="371" type="line"/>
      <point x="119" y="471" type="line"/>
      <point x="453" y="471" type="line"/>
      <point x="453" y="807" type="line"/>
      <point x="573" y="807" type="line"/>
      <point x="573" y="471" type="line"/>
      <point x="907" y="471" type="line"/>
    </contour>
  </outline>
</glyph>
<glyph name="comma" format="1">
  <advance width="520"/>
  <unicode hex="002C"/>
  <outline>
    <contour>
      <point x="121" y="139" type="qcurve" smooth="yes"/>
      <point x="121" y="197"/>
      <point x="176" y="223" type="qcurve" smooth="yes"/>
      <point x="202" y="236"/>
      <point x="236" y="236" type="qcurve" smooth="yes"/>
      <point x="315" y="236"/>
      <point x="414" y="111"/>
      <point x="414" y="39" type="qcurve" smooth="yes"/>
      <point x="414" y="-90"/>
      <point x="260" y="-293"/>
      <point x="132" y="-371"/>
      <point x="127" y="-371" type="qcurve" smooth="yes"/>
      <point x="102" y="-371"/>
      <point x="102" y="-344" type="qcurve" smooth="yes"/>
      <point x="102" y="-340"/>
      <point x="179" y="-261"/>
      <point x="272" y="-134"/>
      <point x="272" y="-57" type="qcurve" smooth="yes"/>
      <point x="272" y="-8"/>
      <point x="238" y="4" type="qcurve" smooth="yes"/>
      <point x="121" y="49"/>
    </contour>
  </outline>
</glyph>
<glyph name="hyphen" format="1">
  <advance width="827"/>
  <unicode hex="002D"/>
  <outline>
    <contour>
      <point x="707" y="602" type="line" smooth="yes"/>
      <point x="724" y="602"/>
      <point x="724" y="487"/>
      <point x="705" y="487" type="qcurve" smooth="yes"/>
      <point x="115" y="487" type="line" smooth="yes"/>
      <point x="99" y="487"/>
      <point x="99" y="602"/>
      <point x="115" y="602" type="qcurve" smooth="yes"/>
    </contour>
  </outline>
</glyph>
<glyph name="period" format="1">
  <advance width="520"/>
  <unicode hex="002E"/>
  <outline>
    <contour>
      <point x="139" y="98" type="qcurve" smooth="yes"/>
      <point x="139" y="149"/>
      <point x="211" y="211"/>
      <point x="321" y="211"/>
      <point x="381" y="137"/>
      <point x="381" y="36"/>
      <point x="312" y="-25"/>
      <point x="206" y="-25"/>
      <point x="139" y="47"/>
    </contour>
  </outline>
</glyph>
<glyph name="zero" format="1">
  <advance width="956"/>
  <unicode hex="0030"/>
  <outline>
    <contour>
      <point x="887" y="643" type="qcurve" smooth="yes"/>
      <point x="887" y="362"/>
      <point x="672" y="-16"/>
      <point x="474" y="-16" type="qcurve" smooth="yes"/>
      <point x="276" y="-16"/>
      <point x="70" y="362"/>
      <point x="70" y="666" type="qcurve" smooth="yes"/>
      <point x="70" y="970"/>
      <point x="286" y="1333"/>
      <point x="479" y="1333" type="qcurve" smooth="yes"/>
      <point x="678" y="1333"/>
      <point x="887" y="944"/>
    </contour>
    <contour>
      <point x="709" y="631" type="qcurve" smooth="yes"/>
      <point x="709" y="864"/>
      <point x="628" y="1268"/>
      <point x="481" y="1268" type="qcurve" smooth="yes"/>
      <point x="358" y="1268"/>
      <point x="244" y="908"/>
      <point x="244" y="689" type="qcurve" smooth="yes"/>
      <point x="244" y="314"/>
      <point x="380" y="51"/>
      <point x="475" y="51" type="qcurve" smooth="yes"/>
      <point x="586" y="51"/>
      <point x="709" y="330"/>
    </contour>
  </outline>
</glyph>
<glyph name="one" format="1">
  <advance width="956"/>
  <unicode hex="0031"/>
  <outline>
    <contour>
      <point x="578" y="262" type="line" smooth="yes"/>
      <point x="578" y="113"/>
      <point x="666" y="49"/>
      <point x="756" y="49" type="qcurve" smooth="yes"/>
      <point x="770" y="49"/>
      <point x="770" y="0"/>
      <point x="756" y="0" type="qcurve" smooth="yes"/>
      <point x="229" y="0" type="line" smooth="yes"/>
      <point x="215" y="0"/>
      <point x="215" y="49"/>
      <point x="229" y="49" type="qcurve" smooth="yes"/>
      <point x="356" y="49"/>
      <point x="424" y="126"/>
      <point x="424" y="260" type="qcurve" smooth="yes"/>
      <point x="424" y="1130" type="line" smooth="yes"/>
      <point x="424" y="1177"/>
      <point x="403" y="1177" type="qcurve" smooth="yes"/>
      <point x="396" y="1177"/>
      <point x="379" y="1169" type="qcurve" smooth="yes"/>
      <point x="250" y="1110" type="line"/>
      <point x="234" y="1110"/>
      <point x="226" y="1127" type="qcurve" smooth="yes"/>
      <point x="223" y="1134"/>
      <point x="223" y="1141.5" type="qcurve" smooth="yes"/>
      <point x="223" y="1149"/>
      <point x="231" y="1157" type="qcurve"/>
      <point x="450" y="1263"/>
      <point x="555" y="1368" type="qcurve" smooth="yes"/>
      <point x="561" y="1374"/>
      <point x="571" y="1374" type="qcurve" smooth="yes"/>
      <point x="584" y="1374"/>
      <point x="584" y="1360" type="qcurve" smooth="yes"/>
      <point x="578" y="1235"/>
      <point x="578" y="1188" type="qcurve" smooth="yes"/>
    </contour>
  </outline>
</glyph>
<glyph name="two" format="1">
  <advance width="956"/>
  <unicode hex="0032"/>
  <outline>
    <contour>
      <point x="881" y="244" type="qcurve" smooth="yes"/>
      <point x="780" y="25" type="line" smooth="yes"/>
      <point x="765" y="-8"/>
      <point x="729" y="-8" type="qcurve" smooth="yes"/>
      <point x="594" y="0"/>
      <point x="406" y="0" type="qcurve" smooth="yes"/>
      <point x="227" y="0"/>
      <point x="47" y="-8" type="qcurve" smooth="yes"/>
      <point x="6" y="-8"/>
      <point x="6" y="31" type="qcurve" smooth="yes"/>
      <point x="6" y="40"/>
      <point x="16" y="49" type="qcurve" smooth="yes"/>
      <point x="458" y="510"/>
      <point x="588" y="813" type="qcurve" smooth="yes"/>
      <point x="625" y="894"/>
      <point x="625" y="997" type="qcurve" smooth="yes"/>
      <point x="625" y="1103"/>
      <point x="549" y="1163" type="qcurve" smooth="yes"/>
      <point x="494" y="1206"/>
      <point x="416" y="1206" type="qcurve" smooth="yes"/>
      <point x="272" y="1206"/>
      <point x="170" y="1024" type="qcurve" smooth="yes"/>
      <point x="166" y="1020"/>
      <point x="160" y="1020" type="qcurve" smooth="yes"/>
      <point x="139" y="1020"/>
      <point x="121" y="1037" type="qcurve" smooth="yes"/>
      <point x="112" y="1045"/>
      <point x="112" y="1051" type="qcurve" smooth="yes"/>
      <point x="112" y="1053"/>
      <point x="113" y="1055" type="qcurve" smooth="yes"/>
      <point x="172" y="1174"/>
      <point x="264" y="1245" type="qcurve"/>
      <point x="370" y="1333"/>
      <point x="496" y="1333" type="qcurve" smooth="yes"/>
      <point x="646" y="1333"/>
      <point x="734" y="1227" type="qcurve" smooth="yes"/>
      <point x="807" y="1145"/>
      <point x="807" y="1008" type="qcurve" smooth="yes"/>
      <point x="807" y="862"/>
      <point x="696" y="707" type="qcurve" smooth="yes"/>
      <point x="636" y="625"/>
      <point x="528" y="498" type="qcurve"/>
      <point x="244" y="180" type="line" smooth="yes"/>
      <point x="228" y="163"/>
      <point x="228" y="152" type="qcurve" smooth="yes"/>
      <point x="228" y="137"/>
      <point x="258" y="137" type="qcurve" smooth="yes"/>
      <point x="555" y="137" type="line" smooth="yes"/>
      <point x="718" y="137"/>
      <point x="782" y="197" type="qcurve" smooth="yes"/>
      <point x="809" y="222"/>
      <point x="825" y="260" type="qcurve" smooth="yes"/>
      <point x="826" y="266"/>
      <point x="842" y="266" type="qcurve" smooth="yes"/>
      <point x="873" y="265"/>
      <point x="881" y="252" type="qcurve" smooth="yes"/>
      <point x="882" y="250"/>
      <point x="882" y="246"/>
    </contour>
  </outline>
</glyph>
<glyph name="three" format="1">
  <advance width="956"/>
  <unicode hex="0033"/>
  <outline>
    <contour>
      <point x="819" y="414" type="qcurve" smooth="yes"/>
      <point x="819" y="229"/>
      <point x="555" y="-23"/>
      <point x="371" y="-23" type="qcurve" smooth="yes"/>
      <point x="230" y="-23"/>
      <point x="96" y="69"/>
      <point x="96" y="127" type="qcurve" smooth="yes"/>
      <point x="96" y="165"/>
      <point x="134" y="189" type="qcurve" smooth="yes"/>
      <point x="154" y="201"/>
      <point x="176" y="201" type="qcurve" smooth="yes"/>
      <point x="212" y="201"/>
      <point x="347" y="53"/>
      <point x="424" y="53" type="qcurve" smooth="yes"/>
      <point x="532" y="53"/>
      <point x="649" y="264"/>
      <point x="649" y="387" type="qcurve" smooth="yes"/>
      <point x="649" y="517"/>
      <point x="500" y="690"/>
      <point x="367" y="690" type="qcurve" smooth="yes"/>
      <point x="302" y="690"/>
      <point x="254" y="674" type="qcurve"/>
      <point x="240" y="674"/>
      <point x="240" y="715" type="qcurve" smooth="yes"/>
      <point x="240" y="754"/>
      <point x="254" y="754" type="qcurve" smooth="yes"/>
      <point x="434" y="754"/>
      <point x="600" y="917"/>
      <point x="600" y="1026" type="qcurve" smooth="yes"/>
      <point x="600" y="1127"/>
      <point x="481" y="1227"/>
      <point x="412" y="1227" type="qcurve" smooth="yes"/>
      <point x="294" y="1227"/>
      <point x="205" y="1090" type="qcurve" smooth="yes"/>
      <point x="204" y="1087"/>
      <point x="199" y="1087" type="qcurve" smooth="yes"/>
      <point x="177" y="1087"/>
      <point x="160" y="1109" type="qcurve" smooth="yes"/>
      <point x="152" y="1118"/>
      <point x="152" y="1126" type="qcurve" smooth="yes"/>
      <point x="152" y="1128"/>
      <point x="154" y="1130" type="qcurve" smooth="yes"/>
      <point x="291" y="1333"/>
      <point x="479" y="1333" type="qcurve" smooth="yes"/>
      <point x="594" y="1333"/>
      <point x="752" y="1164"/>
      <point x="752" y="1053" type="qcurve" smooth="yes"/>
      <point x="752" y="886"/>
      <point x="569" y="782" type="qcurve" smooth="yes"/>
      <point x="537" y="764"/>
      <point x="537" y="757" type="qcurve" smooth="yes"/>
      <point x="537" y="746"/>
      <point x="565" y="741" type="qcurve" smooth="yes"/>
      <point x="819" y="690"/>
    </contour>
  </outline>
</glyph>
<glyph name="four" format="1">
  <advance width="956"/>
  <unicode hex="0034"/>
  <outline>
    <contour>
      <point x="870" y="391" type="qcurve" smooth="yes"/>
      <point x="754" y="391" type="line" smooth="yes"/>
      <point x="731" y="391"/>
      <point x="731" y="371" type="qcurve" smooth="yes"/>
      <point x="731" y="127" type="line" smooth="yes"/>
      <point x="731" y="49"/>
      <point x="852" y="49" type="qcurve" smooth="yes"/>
      <point x="866" y="49"/>
      <point x="866" y="1"/>
      <point x="852" y="1" type="qcurve" smooth="yes"/>
      <point x="420" y="1" type="line" smooth="yes"/>
      <point x="406" y="1"/>
      <point x="406" y="49"/>
      <point x="420" y="49" type="qcurve" smooth="yes"/>
      <point x="578" y="49"/>
      <point x="578" y="127" type="qcurve" smooth="yes"/>
      <point x="578" y="371" type="line" smooth="yes"/>
      <point x="578" y="391"/>
      <point x="557" y="391" type="qcurve" smooth="yes"/>
      <point x="80" y="391" type="line" smooth="yes"/>
      <point x="13" y="391"/>
      <point x="13" y="428" type="qcurve" smooth="yes"/>
      <point x="13" y="439"/>
      <point x="20" y="456" type="qcurve" smooth="yes"/>
      <point x="31.0358" y="482.085"/>
      <point x="59" y="520" type="qcurve" smooth="yes"/>
      <point x="281" y="821" type="line" smooth="yes"/>
      <point x="294.797" y="839.706"/>
      <point x="700" y="1425" type="qcurve" smooth="yes"/>
      <point x="709" y="1438"/>
      <point x="739" y="1438" type="qcurve" smooth="yes"/>
      <point x="797" y="1438"/>
      <point x="797" y="1407" type="qcurve"/>
      <point x="150" y="510" type="line" smooth="yes"/>
      <point x="142" y="498.909"/>
      <point x="142" y="491" type="qcurve" smooth="yes"/>
      <point x="142" y="477"/>
      <point x="168" y="477" type="qcurve" smooth="yes"/>
      <point x="557" y="477" type="line" smooth="yes"/>
      <point x="578" y="477"/>
      <point x="578" y="498" type="qcurve" smooth="yes"/>
      <point x="578" y="942" type="line" smooth="yes"/>
      <point x="578" y="957"/>
      <point x="654" y="957" type="qcurve" smooth="yes"/>
      <point x="731" y="957"/>
      <point x="731" y="942" type="qcurve" smooth="yes"/>
      <point x="731" y="498" type="line" smooth="yes"/>
      <point x="731" y="477"/>
      <point x="754" y="477" type="qcurve" smooth="yes"/>
      <point x="870" y="477" type="line" smooth="yes"/>
      <point x="888" y="477"/>
      <point x="888" y="391"/>
    </contour>
  </outline>
</glyph>
<glyph name="five" format="1">
  <advance width="956"/>
  <unicode hex="0035"/>
  <outline>
    <contour>
      <point x="813" y="496" type="qcurve" smooth="yes"/>
      <point x="813" y="281"/>
      <point x="682" y="135" type="qcurve" smooth="yes"/>
      <point x="546" y="-16"/>
      <point x="334" y="-16" type="qcurve" smooth="yes"/>
      <point x="193" y="-16"/>
      <point x="128" y="37" type="qcurve" smooth="yes"/>
      <point x="92" y="68"/>
      <point x="92" y="111" type="qcurve" smooth="yes"/>
      <point x="92" y="193"/>
      <point x="174" y="193" type="qcurve" smooth="yes"/>
      <point x="213" y="193"/>
      <point x="283" y="129" type="qcurve" smooth="yes"/>
      <point x="351" y="68"/>
      <point x="418" y="68" type="qcurve" smooth="yes"/>
      <point x="530" y="68"/>
      <point x="608" y="184" type="qcurve" smooth="yes"/>
      <point x="676" y="285"/>
      <point x="676" y="406" type="qcurve" smooth="yes"/>
      <point x="676" y="614"/>
      <point x="535" y="697" type="qcurve" smooth="yes"/>
      <point x="457" y="743"/>
      <point x="344" y="743" type="qcurve" smooth="yes"/>
      <point x="294" y="743"/>
      <point x="215" y="725" type="qcurve"/>
      <point x="202" y="725" type="line" smooth="yes"/>
      <point x="187" y="725"/>
      <point x="187" y="748" type="qcurve" smooth="yes"/>
      <point x="187" y="753"/>
      <point x="188" y="758" type="qcurve" smooth="yes"/>
      <point x="281" y="1288" type="line" smooth="yes"/>
      <point x="286" y="1317"/>
      <point x="313" y="1317" type="qcurve" smooth="yes"/>
      <point x="784" y="1317" type="line" smooth="yes"/>
      <point x="791" y="1317"/>
      <point x="791" y="1300" type="qcurve" smooth="yes"/>
      <point x="791" y="1247"/>
      <point x="765" y="1193" type="qcurve" smooth="yes"/>
      <point x="756" y="1174"/>
      <point x="750" y="1174" type="qcurve" smooth="yes"/>
      <point x="367" y="1174" type="line" smooth="yes"/>
      <point x="338" y="1174"/>
      <point x="334" y="1147" type="qcurve" smooth="yes"/>
      <point x="291" y="913" type="line"/>
      <point x="288" y="890"/>
      <point x="303" y="890" type="qcurve" smooth="yes"/>
      <point x="383" y="895" type="line"/>
      <point x="616" y="895"/>
      <point x="730" y="756" type="qcurve" smooth="yes"/>
      <point x="813" y="655"/>
    </contour>
  </outline>
</glyph>
<glyph name="six" format="1">
  <advance width="956"/>
  <unicode hex="0036"/>
  <outline>
    <contour>
      <point x="473" y="-16" type="qcurve" smooth="yes"/>
      <point x="282" y="-16"/>
      <point x="181" y="144" type="qcurve" smooth="yes"/>
      <point x="100" y="272"/>
      <point x="100" y="465" type="qcurve" smooth="yes"/>
      <point x="100" y="751"/>
      <point x="299" y="1010" type="qcurve" smooth="yes"/>
      <point x="495" y="1264"/>
      <point x="752" y="1378" type="qcurve"/>
      <point x="761" y="1378" type="line"/>
      <point x="784" y="1371"/>
      <point x="784" y="1341" type="qcurve" smooth="yes"/>
      <point x="784" y="1332"/>
      <point x="778" y="1329" type="qcurve" smooth="yes"/>
      <point x="485" y="1163"/>
      <point x="363" y="902" type="qcurve" smooth="yes"/>
      <point x="305" y="779"/>
      <point x="281" y="629" type="qcurve"/>
      <point x="433" y="766"/>
      <point x="549" y="766" type="qcurve" smooth="yes"/>
      <point x="691" y="766"/>
      <point x="780" y="647" type="qcurve" smooth="yes"/>
      <point x="864" y="538"/>
      <point x="864" y="391" type="qcurve" smooth="yes"/>
      <point x="864" y="223"/>
      <point x="758" y="107" type="qcurve" smooth="yes"/>
      <point x="647" y="-16"/>
    </contour>
    <contour>
      <point x="498" y="63" type="qcurve" smooth="yes"/>
      <point x="601" y="63"/>
      <point x="662" y="159" type="qcurve" smooth="yes"/>
      <point x="709" y="232"/>
      <point x="709" y="330" type="qcurve" smooth="yes"/>
      <point x="709" y="476"/>
      <point x="636" y="569" type="qcurve" smooth="yes"/>
      <point x="570" y="653"/>
      <point x="469" y="653" type="qcurve" smooth="yes"/>
      <point x="356" y="653"/>
      <point x="270" y="543" type="qcurve"/>
      <point x="264" y="500"/>
      <point x="264" y="461" type="qcurve" smooth="yes"/>
      <point x="264" y="194"/>
      <point x="377" y="103" type="qcurve" smooth="yes"/>
      <point x="427" y="63"/>
    </contour>
  </outline>
</glyph>
<glyph name="seven" format="1">
  <advance width="956"/>
  <unicode hex="0037"/>
  <outline>
    <contour>
      <point x="889" y="1264" type="qcurve" smooth="yes"/>
      <point x="379" y="0" type="line"/>
      <point x="372" y="-14"/>
      <point x="297" y="-14" type="qcurve" smooth="yes"/>
      <point x="229" y="-14"/>
      <point x="229" y="0" type="qcurve"/>
      <point x="242" y="22"/>
      <point x="280" y="100" type="qcurve"/>
      <point x="342" y="238" type="line"/>
      <point x="739" y="1139" type="line" smooth="yes"/>
      <point x="748" y="1161"/>
      <point x="748" y="1167" type="qcurve" smooth="yes"/>
      <point x="748" y="1182"/>
      <point x="715" y="1182" type="qcurve" smooth="yes"/>
      <point x="500" y="1182" type="line" smooth="yes"/>
      <point x="337" y="1182"/>
      <point x="289" y="1169" type="qcurve" smooth="yes"/>
      <point x="183" y="1140"/>
      <point x="143" y="1038" type="qcurve" smooth="yes"/>
      <point x="137" y="1024"/>
      <point x="109" y="1024" type="qcurve" smooth="yes"/>
      <point x="85" y="1024"/>
      <point x="84" y="1038" type="qcurve"/>
      <point x="135" y="1286" type="line" smooth="yes"/>
      <point x="141" y="1317"/>
      <point x="176" y="1317" type="qcurve" smooth="yes"/>
      <point x="858" y="1317" type="line" smooth="yes"/>
      <point x="897" y="1317"/>
      <point x="897" y="1294" type="qcurve" smooth="yes"/>
      <point x="897" y="1283"/>
    </contour>
  </outline>
</glyph>
<glyph name="eight" format="1">
  <advance width="956"/>
  <unicode hex="0038"/>
  <outline>
    <contour>
      <point x="477" y="-16" type="qcurve" smooth="yes"/>
      <point x="306" y="-16"/>
      <point x="201" y="82" type="qcurve" smooth="yes"/>
      <point x="104" y="172"/>
      <point x="104" y="315" type="qcurve" smooth="yes"/>
      <point x="104" y="524"/>
      <point x="377" y="668" type="qcurve"/>
      <point x="250" y="750"/>
      <point x="211" y="809" type="qcurve"/>
      <point x="141" y="902"/>
      <point x="141" y="1008" type="qcurve" smooth="yes"/>
      <point x="141" y="1142"/>
      <point x="240" y="1241" type="qcurve" smooth="yes"/>
      <point x="333" y="1333"/>
      <point x="477" y="1333" type="qcurve" smooth="yes"/>
      <point x="660" y="1333"/>
      <point x="748" y="1225" type="qcurve" smooth="yes"/>
      <point x="809" y="1151"/>
      <point x="809" y="1038" type="qcurve" smooth="yes"/>
      <point x="809" y="830"/>
      <point x="582" y="711" type="qcurve"/>
      <point x="852" y="538"/>
      <point x="852" y="332" type="qcurve" smooth="yes"/>
      <point x="852" y="178"/>
      <point x="739" y="80" type="qcurve" smooth="yes"/>
      <point x="631" y="-16"/>
    </contour>
    <contour>
      <point x="258" y="1075" type="qcurve" smooth="yes"/>
      <point x="258" y="947"/>
      <point x="417" y="829" type="qcurve" smooth="yes"/>
      <point x="450" y="804"/>
      <point x="528" y="754" type="qcurve"/>
      <point x="670" y="854"/>
      <point x="670" y="997" type="qcurve" smooth="yes"/>
      <point x="670" y="1127"/>
      <point x="595" y="1201" type="qcurve" smooth="yes"/>
      <point x="542" y="1257"/>
      <point x="453" y="1257" type="qcurve" smooth="yes"/>
      <point x="351" y="1257"/>
      <point x="295" y="1186" type="qcurve" smooth="yes"/>
      <point x="258" y="1138"/>
    </contour>
    <contour>
      <point x="709" y="260" type="qcurve" smooth="yes"/>
      <point x="709" y="388"/>
      <point x="621" y="473" type="qcurve" smooth="yes"/>
      <point x="536" y="554"/>
      <point x="463" y="605" type="qcurve" smooth="yes"/>
      <point x="434" y="625" type="line"/>
      <point x="260" y="524"/>
      <point x="260" y="336" type="qcurve" smooth="yes"/>
      <point x="260" y="224"/>
      <point x="328" y="139" type="qcurve" smooth="yes"/>
      <point x="399" y="51"/>
      <point x="508" y="51" type="qcurve" smooth="yes"/>
      <point x="609" y="51"/>
      <point x="667" y="128" type="qcurve" smooth="yes"/>
      <point x="709" y="184"/>
    </contour>
  </outline>
</glyph>
<glyph name="nine" format="1">
  <advance width="956"/>
  <unicode hex="0039"/>
  <outline>
    <contour>
      <point x="483" y="1333" type="qcurve" smooth="yes"/>
      <point x="661" y="1333"/>
      <point x="764" y="1188" type="qcurve" smooth="yes"/>
      <point x="856" y="1059"/>
      <point x="856" y="864" type="qcurve" smooth="yes"/>
      <point x="856" y="552"/>
      <point x="618" y="278" type="qcurve" smooth="yes"/>
      <point x="449" y="85"/>
      <point x="213" y="-35" type="qcurve"/>
      <point x="205" y="-36" type="line"/>
      <point x="189" y="-31"/>
      <point x="178" y="-1" type="qcurve" smooth="yes"/>
      <point x="174" y="9"/>
      <point x="174" y="16" type="qcurve" smooth="yes"/>
      <point x="174" y="22"/>
      <point x="180" y="27" type="qcurve" smooth="yes"/>
      <point x="370" y="138"/>
      <point x="508" y="297" type="qcurve" smooth="yes"/>
      <point x="625" y="431"/>
      <point x="674" y="686" type="qcurve"/>
      <point x="546" y="551"/>
      <point x="416" y="551" type="qcurve" smooth="yes"/>
      <point x="282" y="551"/>
      <point x="188" y="654" type="qcurve"/>
      <point x="95" y="764"/>
      <point x="92" y="907" type="qcurve" smooth="yes"/>
      <point x="92" y="1099"/>
      <point x="202" y="1218" type="qcurve" smooth="yes"/>
      <point x="309" y="1333"/>
    </contour>
    <contour>
      <point x="248" y="975" type="qcurve" smooth="yes"/>
      <point x="248" y="840"/>
      <point x="318" y="748" type="qcurve" smooth="yes"/>
      <point x="383" y="662"/>
      <point x="481" y="662" type="qcurve" smooth="yes"/>
      <point x="593" y="662"/>
      <point x="684" y="774" type="qcurve"/>
      <point x="690" y="818"/>
      <point x="690" y="862" type="qcurve" smooth="yes"/>
      <point x="690" y="1096"/>
      <point x="592" y="1195" type="qcurve" smooth="yes"/>
      <point x="557" y="1228"/>
      <point x="453" y="1251" type="qcurve"/>
      <point x="344" y="1251"/>
      <point x="287" y="1145" type="qcurve" smooth="yes"/>
      <point x="248" y="1072"/>
    </contour>
  </outline>
</glyph>
<glyph name="question" format="1">
  <advance width="752"/>
  <unicode hex="003F"/>
  <outline>
    <contour>
      <point x="279" y="1194" type="qcurve" smooth="yes"/>
      <point x="211" y="1194"/>
      <point x="211" y="1362"/>
      <point x="295" y="1362" type="qcurve" smooth="yes"/>
      <point x="425" y="1362"/>
      <point x="657" y="1090"/>
      <point x="657" y="784"/>
      <point x="575" y="741" type="qcurve" smooth="yes"/>
      <point x="410" y="653" type="line"/>
      <point x="336" y="612"/>
      <point x="336" y="507"/>
      <point x="356" y="438" type="qcurve"/>
      <point x="356" y="419"/>
      <point x="334" y="419" type="qcurve" smooth="yes"/>
      <point x="319" y="419"/>
      <point x="311" y="426" type="qcurve"/>
      <point x="236" y="562"/>
      <point x="236" y="726"/>
      <point x="350" y="788" type="qcurve"/>
      <point x="455" y="844" type="line" smooth="yes"/>
      <point x="571" y="906"/>
      <point x="571" y="995" type="qcurve" smooth="yes"/>
      <point x="571" y="1194"/>
    </contour>
    <contour>
      <point x="221" y="90" type="qcurve" smooth="yes"/>
      <point x="221" y="140"/>
      <point x="291" y="213"/>
      <point x="393" y="213"/>
      <point x="459" y="137"/>
      <point x="459" y="31"/>
      <point x="389" y="-31"/>
      <point x="286" y="-31"/>
      <point x="221" y="40"/>
    </contour>
  </outline>
</glyph>
<glyph name="B" format="1">
  <advance width="1270"/>
  <unicode hex="0042"/>
  <outline>
    <contour>
      <point x="271" y="186" type="qcurve" smooth="yes"/>
      <point x="271" y="1095" type="line" smooth="yes"/>
      <point x="271" y="1205"/>
      <point x="82" y="1205" type="qcurve" smooth="yes"/>
      <point x="68" y="1205"/>
      <point x="68" y="1275"/>
      <point x="82" y="1275" type="qcurve" smooth="yes"/>
      <point x="639" y="1275" type="line" smooth="yes"/>
      <point x="812" y="1275"/>
      <point x="1056" y="1119"/>
      <point x="1056" y="968" type="qcurve" smooth="yes"/>
      <point x="1056" y="794"/>
      <point x="860" y="703" type="qcurve" smooth="yes"/>
      <point x="845" y="696"/>
      <point x="845" y="683"/>
      <point x="860" y="678" type="qcurve" smooth="yes"/>
      <point x="968" y="643"/>
      <point x="1149" y="460"/>
      <point x="1149" y="317" type="qcurve" smooth="yes"/>
      <point x="1149" y="195"/>
      <point x="950" y="0"/>
      <point x="639" y="0" type="qcurve" smooth="yes"/>
      <point x="91" y="0" type="line" smooth="yes"/>
      <point x="78" y="0"/>
      <point x="78" y="69"/>
      <point x="91" y="69" type="qcurve" smooth="yes"/>
      <point x="271" y="69"/>
    </contour>
    <contour>
      <point x="431" y="745" type="line" smooth="yes"/>
      <point x="431" y="709"/>
      <point x="510" y="709" type="qcurve" smooth="yes"/>
      <point x="884" y="709"/>
      <point x="884" y="965" type="qcurve" smooth="yes"/>
      <point x="884" y="1220"/>
      <point x="483" y="1220" type="qcurve" smooth="yes"/>
      <point x="431" y="1220"/>
      <point x="431" y="1153" type="qcurve" smooth="yes"/>
    </contour>
    <contour>
      <point x="431" y="277" type="line" smooth="yes"/>
      <point x="431" y="57"/>
      <point x="625" y="57" type="qcurve" smooth="yes"/>
      <point x="968" y="57"/>
      <point x="968" y="350" type="qcurve" smooth="yes"/>
      <point x="968" y="479"/>
      <point x="763" y="648"/>
      <point x="466" y="649" type="qcurve" smooth="yes"/>
      <point x="431" y="649"/>
      <point x="431" y="619" type="qcurve" smooth="yes"/>
    </contour>
  </outline>
</glyph>
<glyph name="C" format="1">
  <advance width="1344"/>
  <unicode hex="0043"/>
  <outline>
    <contour>
      <point x="91" y="603" type="qcurve" smooth="yes"/>
      <point x="91" y="780"/>
      <point x="282" y="1109"/>
      <point x="588" y="1295"/>
      <point x="812" y="1295" type="qcurve" smooth="yes"/>
      <point x="903" y="1295"/>
      <point x="1075" y="1265"/>
      <point x="1230" y="1237" type="qcurve"/>
      <point x="1259" y="1103"/>
      <point x="1259" y="926" type="qcurve"/>
      <point x="1255" y="910"/>
      <point x="1192" y="910"/>
      <point x="1190" y="924" type="qcurve" smooth="yes"/>
      <point x="1162" y="1224"/>
      <point x="783" y="1224" type="qcurve" smooth="yes"/>
      <point x="579" y="1224"/>
      <point x="282" y="856"/>
      <point x="282" y="663" type="qcurve" smooth="yes"/>
      <point x="282" y="380"/>
      <point x="572" y="48"/>
      <point x="780" y="48" type="qcurve" smooth="yes"/>
      <point x="1134" y="48"/>
      <point x="1232" y="317" type="qcurve" smooth="yes"/>
      <point x="1236" y="328"/>
      <point x="1286" y="328"/>
      <point x="1299" y="317"/>
      <point x="1299" y="306" type="qcurve"/>
      <point x="1262" y="115"/>
      <point x="1209" y="36" type="qcurve"/>
      <point x="1177" y="32"/>
      <point x="1132" y="19" type="qcurve"/>
      <point x="985" y="-27"/>
      <point x="756" y="-27" type="qcurve" smooth="yes"/>
      <point x="578" y="-27"/>
      <point x="275" y="145"/>
      <point x="91" y="404"/>
    </contour>
  </outline>
</glyph>
<glyph name="D" format="1">
  <advance width="1525"/>
  <unicode hex="0044"/>
  <outline>
    <contour>
      <point x="271" y="186" type="qcurve" smooth="yes"/>
      <point x="271" y="1089" type="line" smooth="yes"/>
      <point x="271" y="1199"/>
      <point x="82" y="1199" type="qcurve" smooth="yes"/>
      <point x="68" y="1199"/>
      <point x="68" y="1275"/>
      <point x="82" y="1275" type="qcurve" smooth="yes"/>
      <point x="703" y="1275" type="line" smooth="yes"/>
      <point x="1014" y="1275"/>
      <point x="1432" y="941"/>
      <point x="1432" y="688" type="qcurve" smooth="yes"/>
      <point x="1432" y="366"/>
      <point x="1065" y="0"/>
      <point x="751" y="0" type="qcurve" smooth="yes"/>
      <point x="91" y="0" type="line" smooth="yes"/>
      <point x="78" y="0"/>
      <point x="78" y="68"/>
      <point x="91" y="69" type="qcurve"/>
      <point x="271" y="69"/>
    </contour>
    <contour>
      <point x="431" y="298" type="line" smooth="yes"/>
      <point x="431" y="149"/>
      <point x="551" y="53"/>
      <point x="682" y="53" type="qcurve" smooth="yes"/>
      <point x="938" y="53"/>
      <point x="1241" y="375"/>
      <point x="1241" y="676" type="qcurve" smooth="yes"/>
      <point x="1241" y="885"/>
      <point x="887" y="1214"/>
      <point x="621" y="1214" type="qcurve" smooth="yes"/>
      <point x="526" y="1214"/>
      <point x="465" y="1197"/>
      <point x="431" y="1142"/>
      <point x="431" y="1098" type="qcurve" smooth="yes"/>
    </contour>
  </outline>
</glyph>
<glyph name="F" format="1">
  <advance width="1170"/>
  <unicode hex="0046"/>
  <outline>
    <contour>
      <point x="271" y="1092" type="line" smooth="yes"/>
      <point x="271" y="1205"/>
      <point x="84" y="1205" type="qcurve" smooth="yes"/>
      <point x="70" y="1205"/>
      <point x="70" y="1275"/>
      <point x="84" y="1275" type="qcurve" smooth="yes"/>
      <point x="985" y="1275" type="line" smooth="yes"/>
      <point x="1008" y="1275"/>
      <point x="1016" y="1257" type="qcurve"/>
      <point x="1117" y="965" type="line"/>
      <point x="1117" y="948"/>
      <point x="1084" y="913"/>
      <point x="1054" y="913"/>
      <point x="905" y="1212"/>
      <point x="696" y="1212" type="qcurve" smooth="yes"/>
      <point x="472" y="1212" type="line" smooth="yes"/>
      <point x="431" y="1212"/>
      <point x="431" y="1161" type="qcurve" smooth="yes"/>
      <point x="431" y="707" type="line" smooth="yes"/>
      <point x="431" y="676"/>
      <point x="459" y="676" type="qcurve" smooth="yes"/>
      <point x="623" y="676" type="line" smooth="yes"/>
      <point x="698" y="676"/>
      <point x="740" y="736"/>
      <point x="740" y="806" type="qcurve" smooth="yes"/>
      <point x="740" y="923" type="line" smooth="yes"/>
      <point x="740" y="936"/>
      <point x="810" y="936"/>
      <point x="810" y="923" type="qcurve" smooth="yes"/>
      <point x="810" y="355" type="line" smooth="yes"/>
      <point x="810" y="342"/>
      <point x="740" y="342"/>
      <point x="740" y="355" type="qcurve" smooth="yes"/>
      <point x="740" y="472" type="line" smooth="yes"/>
      <point x="740" y="542"/>
      <point x="690" y="600"/>
      <point x="623" y="600" type="qcurve" smooth="yes"/>
      <point x="456" y="600" type="line" smooth="yes"/>
      <point x="431" y="600"/>
      <point x="431" y="575" type="qcurve" smooth="yes"/>
      <point x="431" y="186" type="line" smooth="yes"/>
      <point x="431" y="69"/>
      <point x="619" y="69" type="qcurve" smooth="yes"/>
      <point x="632" y="69"/>
      <point x="632" y="0"/>
      <point x="619" y="0" type="qcurve" smooth="yes"/>
      <point x="91" y="0" type="line" smooth="yes"/>
      <point x="78" y="0"/>
      <point x="78" y="69"/>
      <point x="91" y="69" type="qcurve" smooth="yes"/>
      <point x="271" y="69"/>
      <point x="271" y="186" type="qcurve" smooth="yes"/>
    </contour>
  </outline>
</glyph>
<glyph name="G" format="1">
  <advance width="1409"/>
  <unicode hex="0047"/>
  <outline>
    <contour>
      <point x="1230" y="144" type="line" smooth="yes"/>
      <point x="1230" y="77"/>
      <point x="1267" y="77" type="qcurve" smooth="yes"/>
      <point x="1281" y="77"/>
      <point x="1281" y="31"/>
      <point x="1268" y="31" type="qcurve" smooth="yes"/>
      <point x="1255" y="31"/>
      <point x="1156" y="20"/>
      <point x="943" y="-17"/>
      <point x="845" y="-27"/>
      <point x="768" y="-27" type="qcurve" smooth="yes"/>
      <point x="622" y="-27"/>
      <point x="258" y="145"/>
      <point x="91" y="449"/>
      <point x="91" y="618" type="qcurve" smooth="yes"/>
      <point x="91" y="819"/>
      <point x="452" y="1295"/>
      <point x="771" y="1295" type="qcurve" smooth="yes"/>
      <point x="935" y="1295"/>
      <point x="1218" y="1237"/>
      <point x="1232" y="1237" type="qcurve"/>
      <point x="1251" y="1188"/>
      <point x="1261" y="929" type="qcurve" smooth="yes"/>
      <point x="1261" y="911"/>
      <point x="1193" y="911"/>
      <point x="1192" y="924" type="qcurve"/>
      <point x="1192" y="1035"/>
      <point x="985" y="1224"/>
      <point x="776" y="1224" type="qcurve" smooth="yes"/>
      <point x="547" y="1224"/>
      <point x="282" y="861"/>
      <point x="282" y="677" type="qcurve" smooth="yes"/>
      <point x="282" y="371"/>
      <point x="580" y="48"/>
      <point x="775" y="48" type="qcurve" smooth="yes"/>
      <point x="970" y="48"/>
      <point x="1048" y="95" type="qcurve"/>
      <point x="1070" y="111"/>
      <point x="1070" y="173" type="qcurve" smooth="yes"/>
      <point x="1070" y="333" type="line" smooth="yes"/>
      <point x="1070" y="448"/>
      <point x="842" y="448" type="qcurve" smooth="yes"/>
      <point x="828" y="448"/>
      <point x="828" y="524"/>
      <point x="842" y="524" type="qcurve" smooth="yes"/>
      <point x="1371" y="524" type="line" smooth="yes"/>
      <point x="1386" y="524"/>
      <point x="1386" y="448"/>
      <point x="1371" y="448" type="qcurve" smooth="yes"/>
      <point x="1230" y="448"/>
      <point x="1230" y="333" type="qcurve" smooth="yes"/>
    </contour>
  </outline>
</glyph>
<glyph name="H" format="1">
  <advance width="1492"/>
  <unicode hex="0048"/>
  <outline>
    <contour>
      <point x="1243" y="186" type="line" smooth="yes"/>
      <point x="1243" y="69"/>
      <point x="1423" y="69" type="qcurve" smooth="yes"/>
      <point x="1436" y="69"/>
      <point x="1436" y="0"/>
      <point x="1423" y="0" type="qcurve" smooth="yes"/>
      <point x="905" y="0" type="line" smooth="yes"/>
      <point x="892" y="0"/>
      <point x="892" y="68"/>
      <point x="905" y="69" type="qcurve"/>
      <point x="1083" y="69"/>
      <point x="1083" y="186" type="qcurve" smooth="yes"/>
      <point x="1083" y="571" type="line" smooth="yes"/>
      <point x="1083" y="609"/>
      <point x="1044" y="609" type="qcurve" smooth="yes"/>
      <point x="470" y="609" type="line" smooth="yes"/>
      <point x="431" y="609"/>
      <point x="431" y="571" type="qcurve" smooth="yes"/>
      <point x="431" y="186" type="line" smooth="yes"/>
      <point x="431" y="69"/>
      <point x="611" y="69" type="qcurve" smooth="yes"/>
      <point x="624" y="69"/>
      <point x="624" y="0"/>
      <point x="611" y="0" type="qcurve" smooth="yes"/>
      <point x="93" y="0" type="line" smooth="yes"/>
      <point x="80" y="0"/>
      <point x="80" y="68"/>
      <point x="93" y="69" type="qcurve"/>
      <point x="271" y="69"/>
      <point x="271" y="186" type="qcurve" smooth="yes"/>
      <point x="271" y="1089" type="line" smooth="yes"/>
      <point x="271" y="1204"/>
      <point x="82" y="1204" type="qcurve" smooth="yes"/>
      <point x="68" y="1204"/>
      <point x="68" y="1275"/>
      <point x="82" y="1275" type="qcurve" smooth="yes"/>
      <point x="611" y="1275" type="line" smooth="yes"/>
      <point x="624" y="1275"/>
      <point x="624" y="1204"/>
      <point x="611" y="1204" type="qcurve" smooth="yes"/>
      <point x="431" y="1204"/>
      <point x="431" y="1089" type="qcurve" smooth="yes"/>
      <point x="431" y="732" type="line" smooth="yes"/>
      <point x="431" y="693"/>
      <point x="470" y="693" type="qcurve" smooth="yes"/>
      <point x="1044" y="693" type="line" smooth="yes"/>
      <point x="1083" y="693"/>
      <point x="1083" y="732" type="qcurve" smooth="yes"/>
      <point x="1083" y="1089" type="line" smooth="yes"/>
      <point x="1083" y="1204"/>
      <point x="894" y="1204" type="qcurve" smooth="yes"/>
      <point x="880" y="1204"/>
      <point x="880" y="1275"/>
      <point x="894" y="1275" type="qcurve" smooth="yes"/>
      <point x="1423" y="1275" type="line" smooth="yes"/>
      <point x="1436" y="1275"/>
      <point x="1436" y="1204"/>
      <point x="1423" y="1204" type="qcurve" smooth="yes"/>
      <point x="1243" y="1204"/>
      <point x="1243" y="1089" type="qcurve" smooth="yes"/>
    </contour>
  </outline>
</glyph>
<glyph name="I" format="1">
  <advance width="683"/>
  <unicode hex="0049"/>
  <outline>
    <contour>
      <point x="271" y="186" type="qcurve" smooth="yes"/>
      <point x="271" y="1089" type="line" smooth="yes"/>
      <point x="271" y="1204"/>
      <point x="82" y="1204" type="qcurve" smooth="yes"/>
      <point x="68" y="1204"/>
      <point x="68" y="1275"/>
      <point x="82" y="1275" type="qcurve" smooth="yes"/>
      <point x="611" y="1275" type="line" smooth="yes"/>
      <point x="624" y="1275"/>
      <point x="624" y="1204"/>
      <point x="611" y="1204" type="qcurve" smooth="yes"/>
      <point x="431" y="1204"/>
      <point x="431" y="1089" type="qcurve" smooth="yes"/>
      <point x="431" y="186" type="line" smooth="yes"/>
      <point x="431" y="69"/>
      <point x="611" y="69" type="qcurve" smooth="yes"/>
      <point x="624" y="69"/>
      <point x="624" y="0"/>
      <point x="611" y="0" type="qcurve" smooth="yes"/>
      <point x="93" y="0" type="line" smooth="yes"/>
      <point x="80" y="0"/>
      <point x="80" y="69"/>
      <point x="93" y="69" type="qcurve" smooth="yes"/>
      <point x="271" y="69"/>
    </contour>
  </outline>
</glyph>
<glyph name="L" format="1">
  <advance width="1344"/>
  <unicode hex="004C"/>
  <outline>
    <contour>
      <point x="271" y="177" type="qcurve" smooth="yes"/>
      <point x="271" y="1084" type="line" smooth="yes"/>
      <point x="271" y="1199"/>
      <point x="82" y="1199" type="qcurve" smooth="yes"/>
      <point x="68" y="1199"/>
      <point x="68" y="1275"/>
      <point x="82" y="1275" type="qcurve" smooth="yes"/>
      <point x="605" y="1275" type="line" smooth="yes"/>
      <point x="618" y="1275"/>
      <point x="618" y="1199"/>
      <point x="605" y="1199" type="qcurve" smooth="yes"/>
      <point x="431" y="1199"/>
      <point x="431" y="1084" type="qcurve" smooth="yes"/>
      <point x="431" y="277" type="line" smooth="yes"/>
      <point x="431" y="226"/>
      <point x="460" y="131"/>
      <point x="541" y="62"/>
      <point x="609" y="62" type="qcurve"/>
      <point x="892" y="75" type="line" smooth="yes"/>
      <point x="1017" y="80"/>
      <point x="1156" y="252"/>
      <point x="1156" y="379" type="qcurve" smooth="yes"/>
      <point x="1156" y="392"/>
      <point x="1234" y="392"/>
      <point x="1234" y="379" type="qcurve" smooth="yes"/>
      <point x="1234" y="27" type="line" smooth="yes"/>
      <point x="1234" y="1"/>
      <point x="1184" y="0"/>
      <point x="1153" y="0" type="qcurve" smooth="yes"/>
      <point x="95" y="0" type="line" smooth="yes"/>
      <point x="82" y="0"/>
      <point x="82" y="69"/>
      <point x="95" y="69" type="qcurve" smooth="yes"/>
      <point x="271" y="69"/>
    </contour>
  </outline>
</glyph>
<glyph name="M" format="1">
  <advance width="1848"/>
  <unicode hex="004D"/>
  <outline>
    <contour>
      <point x="229" y="186" type="qcurve"/>
      <point x="268" y="1047" type="line" smooth="yes"/>
      <point x="269" y="1058"/>
      <point x="269" y="1088"/>
      <point x="250" y="1152"/>
      <point x="165" y="1204"/>
      <point x="78" y="1204" type="qcurve" smooth="yes"/>
      <point x="65" y="1204"/>
      <point x="65" y="1275"/>
      <point x="78" y="1275" type="qcurve" smooth="yes"/>
      <point x="242" y="1275" type="line" smooth="yes"/>
      <point x="362" y="1275"/>
      <point x="414" y="1244"/>
      <point x="434" y="1202" type="qcurve" smooth="yes"/>
      <point x="896" y="277" type="line" smooth="yes"/>
      <point x="909" y="250"/>
      <point x="927" y="250"/>
      <point x="941" y="279" type="qcurve" smooth="yes"/>
      <point x="1366" y="1208" type="line" smooth="yes"/>
      <point x="1388" y="1254"/>
      <point x="1456" y="1275"/>
      <point x="1554" y="1275" type="qcurve" smooth="yes"/>
      <point x="1700" y="1275" type="line" smooth="yes"/>
      <point x="1714" y="1275"/>
      <point x="1714" y="1204"/>
      <point x="1700" y="1204" type="qcurve" smooth="yes"/>
      <point x="1615" y="1204"/>
      <point x="1536" y="1150"/>
      <point x="1512" y="1077"/>
      <point x="1512" y="1023" type="qcurve" smooth="yes"/>
      <point x="1519" y="186" type="line" smooth="yes"/>
      <point x="1520" y="69"/>
      <point x="1678" y="69" type="qcurve" smooth="yes"/>
      <point x="1692" y="69"/>
      <point x="1692" y="0"/>
      <point x="1678" y="0" type="qcurve" smooth="yes"/>
      <point x="1210" y="0" type="line" smooth="yes"/>
      <point x="1196" y="0"/>
      <point x="1196" y="69"/>
      <point x="1210" y="69" type="qcurve" smooth="yes"/>
      <point x="1359" y="69"/>
      <point x="1359" y="186" type="qcurve" smooth="yes"/>
      <point x="1355" y="956" type="line" smooth="yes"/>
      <point x="1355" y="969"/>
      <point x="1337" y="969"/>
      <point x="1332" y="957" type="qcurve" smooth="yes"/>
      <point x="886" y="-6" type="line" smooth="yes"/>
      <point x="878" y="-23"/>
      <point x="864" y="-23" type="qcurve" smooth="yes"/>
      <point x="850" y="-23"/>
      <point x="842" y="-6" type="qcurve" smooth="yes"/>
      <point x="381" y="973" type="line" smooth="yes"/>
      <point x="371" y="995"/>
      <point x="344" y="995"/>
      <point x="343" y="974" type="qcurve" smooth="yes"/>
      <point x="311" y="186" type="line"/>
      <point x="311" y="168.5" type="line" smooth="yes"/>
      <point x="311" y="156"/>
      <point x="330" y="104"/>
      <point x="408" y="69"/>
      <point x="469" y="69" type="qcurve" smooth="yes"/>
      <point x="483" y="69"/>
      <point x="483" y="0"/>
      <point x="469" y="0" type="qcurve" smooth="yes"/>
      <point x="72" y="0" type="line" smooth="yes"/>
      <point x="59" y="0"/>
      <point x="59" y="69"/>
      <point x="72" y="69" type="qcurve" smooth="yes"/>
      <point x="222" y="69"/>
    </contour>
  </outline>
</glyph>
<glyph name="Q" format="1">
  <advance width="1461"/>
  <unicode hex="0051"/>
  <outline>
    <contour>
      <point x="282" y="681" type="qcurve" smooth="yes"/>
      <point x="282" y="371"/>
      <point x="582" y="48"/>
      <point x="749" y="48" type="qcurve" smooth="yes"/>
      <point x="961" y="48"/>
      <point x="1192" y="349"/>
      <point x="1192" y="602" type="qcurve" smooth="yes"/>
      <point x="1192" y="841"/>
      <point x="901" y="1224"/>
      <point x="727" y="1224" type="qcurve" smooth="yes"/>
      <point x="517" y="1224"/>
      <point x="282" y="867"/>
    </contour>
    <contour>
      <point x="91" y="622" type="qcurve" smooth="yes"/>
      <point x="91" y="845"/>
      <point x="443" y="1295"/>
      <point x="740" y="1295" type="qcurve" smooth="yes"/>
      <point x="1006" y="1295"/>
      <point x="1383" y="884"/>
      <point x="1383" y="618" type="qcurve" smooth="yes"/>
      <point x="1383" y="392"/>
      <point x="1262" y="236" type="qcurve" smooth="yes"/>
      <point x="1140" y="80"/>
      <point x="1026" y="32" type="qcurve" smooth="yes"/>
      <point x="1004" y="22"/>
      <point x="1005" y="15" type="qcurve"/>
      <point x="1005" y="4"/>
      <point x="1019" y="-7" type="qcurve" smooth="yes"/>
      <point x="1096" y="-67"/>
      <point x="1401" y="-213"/>
      <point x="1648" y="-284" type="qcurve" smooth="yes"/>
      <point x="1662" y="-288"/>
      <point x="1662" y="-319"/>
      <point x="1654" y="-359"/>
      <point x="1639" y="-359"/>
      <point x="1618" y="-355" type="qcurve" smooth="yes"/>
      <point x="1053" y="-234"/>
      <point x="505" y="3" type="qcurve"/>
      <point x="359" y="58"/>
      <point x="91" y="358"/>
    </contour>
  </outline>
</glyph>
<glyph name="R" format="1">
  <advance width="1405"/>
  <unicode hex="0052"/>
  <outline>
    <contour>
      <point x="271" y="186" type="qcurve" smooth="yes"/>
      <point x="271" y="1172" type="line" smooth="yes"/>
      <point x="271" y="1199"/>
      <point x="82" y="1199" type="qcurve" smooth="yes"/>
      <point x="68" y="1199"/>
      <point x="68" y="1275"/>
      <point x="82" y="1275" type="qcurve" smooth="yes"/>
      <point x="644" y="1275" type="line" smooth="yes"/>
      <point x="874" y="1275"/>
      <point x="1136" y="1082"/>
      <point x="1136" y="931" type="qcurve" smooth="yes"/>
      <point x="1136" y="684"/>
      <point x="869" y="613" type="qcurve" smooth="yes"/>
      <point x="856" y="609"/>
      <point x="856" y="571"/>
      <point x="1017" y="343"/>
      <point x="1319" y="15"/>
      <point x="1414" y="15" type="qcurve" smooth="yes"/>
      <point x="1428" y="15"/>
      <point x="1428" y="-20"/>
      <point x="1414" y="-21" type="qcurve" smooth="yes"/>
      <point x="1372" y="-25"/>
      <point x="1347" y="-25" type="qcurve" smooth="yes"/>
      <point x="1176" y="-25"/>
      <point x="994" y="110"/>
      <point x="845" y="297"/>
      <point x="673" y="535"/>
      <point x="617" y="573"/>
      <point x="506" y="573"/>
      <point x="462" y="578"/>
      <point x="446" y="578"/>
      <point x="431" y="568"/>
      <point x="431" y="556" type="qcurve" smooth="yes"/>
      <point x="431" y="186" type="line" smooth="yes"/>
      <point x="431" y="69"/>
      <point x="625" y="69" type="qcurve" smooth="yes"/>
      <point x="638" y="69"/>
      <point x="638" y="0"/>
      <point x="625" y="0" type="qcurve" smooth="yes"/>
      <point x="91" y="0" type="line" smooth="yes"/>
      <point x="78" y="0"/>
      <point x="78" y="68"/>
      <point x="91" y="69" type="qcurve"/>
      <point x="271" y="69"/>
    </contour>
    <contour>
      <point x="431" y="682" type="line" smooth="yes"/>
      <point x="431" y="651"/>
      <point x="507" y="635"/>
      <point x="576" y="635" type="qcurve" smooth="yes"/>
      <point x="963" y="635"/>
      <point x="963" y="931" type="qcurve" smooth="yes"/>
      <point x="963" y="1032"/>
      <point x="753" y="1213"/>
      <point x="567" y="1213" type="qcurve" smooth="yes"/>
      <point x="478" y="1213" type="line" smooth="yes"/>
      <point x="431" y="1213"/>
      <point x="431" y="1182" type="qcurve" smooth="yes"/>
    </contour>
  </outline>
</glyph>
<glyph name="S" format="1">
  <advance width="1042"/>
  <unicode hex="0053"/>
  <outline>
    <contour>
      <point x="137" y="960" type="qcurve" smooth="yes"/>
      <point x="137" y="1104"/>
      <point x="358" y="1295"/>
      <point x="525" y="1295" type="qcurve" smooth="yes"/>
      <point x="629" y="1295"/>
      <point x="802" y="1254"/>
      <point x="828" y="1254"/>
      <point x="831" y="1255" type="qcurve"/>
      <point x="859" y="1154"/>
      <point x="869" y="997" type="qcurve" smooth="yes"/>
      <point x="869" y="983"/>
      <point x="836" y="973"/>
      <point x="804" y="973"/>
      <point x="800" y="987" type="qcurve"/>
      <point x="779" y="1097"/>
      <point x="634" y="1228"/>
      <point x="501" y="1228" type="qcurve" smooth="yes"/>
      <point x="401" y="1228"/>
      <point x="277" y="1095"/>
      <point x="277" y="1005" type="qcurve" smooth="yes"/>
      <point x="277" y="837"/>
      <point x="572" y="757" type="qcurve"/>
      <point x="944" y="661"/>
      <point x="944" y="345" type="qcurve" smooth="yes"/>
      <point x="944" y="155"/>
      <point x="725" y="-27"/>
      <point x="554" y="-27" type="qcurve" smooth="yes"/>
      <point x="434" y="-27"/>
      <point x="291" y="15"/>
      <point x="177" y="73" type="qcurve"/>
      <point x="128" y="228"/>
      <point x="128" y="346" type="qcurve" smooth="yes"/>
      <point x="128" y="357"/>
      <point x="136" y="383"/>
      <point x="196" y="383"/>
      <point x="197" y="374" type="qcurve" smooth="yes"/>
      <point x="206" y="245"/>
      <point x="411" y="48"/>
      <point x="583" y="48" type="qcurve" smooth="yes"/>
      <point x="675" y="48"/>
      <point x="806" y="147"/>
      <point x="806" y="259" type="qcurve" smooth="yes"/>
      <point x="806" y="475"/>
      <point x="542" y="555" type="qcurve"/>
      <point x="137.997" y="669.001"/>
    </contour>
  </outline>
</glyph>
<glyph name="T" format="1">
  <advance width="1443"/>
  <unicode hex="0054"/>
  <outline>
    <contour>
      <point x="654" y="186" type="qcurve" smooth="yes"/>
      <point x="654" y="1155" type="line" smooth="yes"/>
      <point x="654" y="1201"/>
      <point x="606" y="1201" type="qcurve" smooth="yes"/>
      <point x="354" y="1201" type="line" smooth="yes"/>
      <point x="284" y="1201"/>
      <point x="216.616" y="1167.31"/>
      <point x="124" y="981" type="qcurve" smooth="yes"/>
      <point x="118" y="967"/>
      <point x="30" y="967"/>
      <point x="30" y="981" type="qcurve"/>
      <point x="57" y="1103"/>
      <point x="74.0333" y="1322"/>
      <point x="157" y="1322"/>
      <point x="234" y="1282"/>
      <point x="343" y="1272"/>
      <point x="469" y="1272" type="qcurve" smooth="yes"/>
      <point x="1117" y="1272" type="line"/>
      <point x="1218" y="1274"/>
      <point x="1306" y="1315"/>
      <point x="1374" y="1315"/>
      <point x="1382" y="1244" type="qcurve"/>
      <point x="1405" y="1005" type="line"/>
      <point x="1405" y="991"/>
      <point x="1316" y="991"/>
      <point x="1316" y="1005" type="qcurve" smooth="yes"/>
      <point x="1302" y="1201"/>
      <point x="1057" y="1201" type="qcurve" smooth="yes"/>
      <point x="865" y="1201" type="line" smooth="yes"/>
      <point x="814" y="1201"/>
      <point x="814" y="1155" type="qcurve" smooth="yes"/>
      <point x="814" y="186" type="line" smooth="yes"/>
      <point x="814" y="69"/>
      <point x="983" y="69" type="qcurve" smooth="yes"/>
      <point x="997" y="69"/>
      <point x="997" y="0"/>
      <point x="983" y="0" type="qcurve" smooth="yes"/>
      <point x="447" y="0" type="line" smooth="yes"/>
      <point x="433" y="0"/>
      <point x="433" y="69"/>
      <point x="447" y="69" type="qcurve" smooth="yes"/>
      <point x="654" y="69"/>
    </contour>
  </outline>
</glyph>
<glyph name="U" format="1">
  <advance width="1497"/>
  <unicode hex="0055"/>
  <outline>
    <contour>
      <point x="256" y="539" type="qcurve" smooth="yes"/>
      <point x="256" y="1084" type="line" smooth="yes"/>
      <point x="256" y="1199"/>
      <point x="71" y="1199" type="qcurve" smooth="yes"/>
      <point x="58" y="1199"/>
      <point x="58" y="1275"/>
      <point x="71" y="1275" type="qcurve" smooth="yes"/>
      <point x="625" y="1275" type="line" smooth="yes"/>
      <point x="638" y="1275"/>
      <point x="638" y="1199"/>
      <point x="625" y="1199" type="qcurve" smooth="yes"/>
      <point x="419" y="1199"/>
      <point x="419" y="1084" type="qcurve" smooth="yes"/>
      <point x="419" y="541" type="line" smooth="yes"/>
      <point x="419" y="240"/>
      <point x="628" y="48"/>
      <point x="783" y="48" type="qcurve" smooth="yes"/>
      <point x="976" y="48"/>
      <point x="1179" y="249"/>
      <point x="1179" y="487" type="qcurve" smooth="yes"/>
      <point x="1179" y="1084" type="line" smooth="yes"/>
      <point x="1179" y="1199"/>
      <point x="991" y="1199" type="qcurve" smooth="yes"/>
      <point x="978" y="1199"/>
      <point x="978" y="1275"/>
      <point x="991" y="1275" type="qcurve" smooth="yes"/>
      <point x="1469" y="1275" type="line" smooth="yes"/>
      <point x="1482" y="1275"/>
      <point x="1482" y="1199"/>
      <point x="1469" y="1199" type="qcurve" smooth="yes"/>
      <point x="1289" y="1199"/>
      <point x="1289" y="1084" type="qcurve" smooth="yes"/>
      <point x="1289" y="729" type="line" smooth="yes"/>
      <point x="1289" y="377"/>
      <point x="1184" y="130"/>
      <point x="957" y="-27"/>
      <point x="758" y="-27" type="qcurve" smooth="yes"/>
      <point x="567" y="-27"/>
      <point x="348" y="98"/>
      <point x="256" y="349"/>
    </contour>
  </outline>
</glyph>
<glyph name="V" format="1">
  <advance width="1287"/>
  <unicode hex="0056"/>
  <outline>
    <contour>
      <point x="180" y="1089" type="line"/>
      <point x="140" y="1204"/>
      <point x="33" y="1204" type="qcurve" smooth="yes"/>
      <point x="20" y="1204"/>
      <point x="20" y="1275"/>
      <point x="33" y="1275" type="qcurve" smooth="yes"/>
      <point x="491" y="1275" type="line" smooth="yes"/>
      <point x="504" y="1275"/>
      <point x="504" y="1204"/>
      <point x="491" y="1204" type="qcurve" smooth="yes"/>
      <point x="348" y="1204"/>
      <point x="348" y="1130" type="qcurve" smooth="yes"/>
      <point x="348" y="1113"/>
      <point x="355" y="1089" type="qcurve"/>
      <point x="659" y="292" type="line" smooth="yes"/>
      <point x="666" y="272"/>
      <point x="686" y="272"/>
      <point x="695" y="294" type="qcurve" smooth="yes"/>
      <point x="1014" y="1080" type="line"/>
      <point x="1024" y="1113"/>
      <point x="1024" y="1126" type="qcurve" smooth="yes"/>
      <point x="1024" y="1204"/>
      <point x="922" y="1204" type="qcurve" smooth="yes"/>
      <point x="908" y="1204"/>
      <point x="908" y="1275"/>
      <point x="922" y="1275" type="qcurve" smooth="yes"/>
      <point x="1310" y="1275" type="line" smooth="yes"/>
      <point x="1324" y="1275"/>
      <point x="1324" y="1204"/>
      <point x="1310" y="1204" type="qcurve" smooth="yes"/>
      <point x="1156" y="1204"/>
      <point x="1123" y="1118" type="qcurve"/>
      <point x="647" y="-13" type="line" smooth="yes"/>
      <point x="637" y="-38"/>
      <point x="621" y="-38" type="qcurve" smooth="yes"/>
      <point x="604" y="-38"/>
      <point x="589" y="6" type="qcurve"/>
    </contour>
  </outline>
</glyph>
<glyph name="W" format="1">
  <advance width="1971"/>
  <unicode hex="0057"/>
  <outline>
    <contour>
      <point x="180" y="1089" type="line"/>
      <point x="129" y="1204"/>
      <point x="33" y="1204" type="qcurve" smooth="yes"/>
      <point x="20" y="1204"/>
      <point x="20" y="1275"/>
      <point x="33" y="1275" type="qcurve" smooth="yes"/>
      <point x="461" y="1275" type="line" smooth="yes"/>
      <point x="474" y="1275"/>
      <point x="474" y="1204"/>
      <point x="461" y="1204" type="qcurve" smooth="yes"/>
      <point x="348" y="1204"/>
      <point x="348" y="1147" type="qcurve" smooth="yes"/>
      <point x="348" y="1123"/>
      <point x="363" y="1089" type="qcurve"/>
      <point x="753" y="282" type="line" smooth="yes"/>
      <point x="762" y="263"/>
      <point x="781" y="263"/>
      <point x="790" y="284" type="qcurve"/>
      <point x="933" y="578" type="line" smooth="yes"/>
      <point x="941" y="596"/>
      <point x="941" y="639"/>
      <point x="931" y="662" type="qcurve"/>
      <point x="724" y="1089" type="line"/>
      <point x="672" y="1204"/>
      <point x="587" y="1204" type="qcurve" smooth="yes"/>
      <point x="574" y="1204"/>
      <point x="574" y="1275"/>
      <point x="587" y="1275" type="qcurve" smooth="yes"/>
      <point x="1005" y="1275" type="line" smooth="yes"/>
      <point x="1018" y="1275"/>
      <point x="1018" y="1204"/>
      <point x="1005" y="1204" type="qcurve" smooth="yes"/>
      <point x="892" y="1204"/>
      <point x="892" y="1149" type="qcurve" smooth="yes"/>
      <point x="892" y="1125"/>
      <point x="908" y="1089" type="qcurve"/>
      <point x="1028" y="852" type="line" smooth="yes"/>
      <point x="1039" y="829"/>
      <point x="1055" y="829"/>
      <point x="1066" y="854" type="qcurve" smooth="yes"/>
      <point x="1175" y="1080" type="line" smooth="yes"/>
      <point x="1192" y="1117"/>
      <point x="1192" y="1143" type="qcurve" smooth="yes"/>
      <point x="1192" y="1204"/>
      <point x="1092" y="1204" type="qcurve" smooth="yes"/>
      <point x="1078" y="1204"/>
      <point x="1078" y="1275"/>
      <point x="1092" y="1275" type="qcurve" smooth="yes"/>
      <point x="1471" y="1275" type="line" smooth="yes"/>
      <point x="1484" y="1275"/>
      <point x="1484" y="1204"/>
      <point x="1471" y="1204" type="qcurve" smooth="yes"/>
      <point x="1322" y="1204"/>
      <point x="1283" y="1118" type="qcurve" smooth="yes"/>
      <point x="1117" y="752" type="line" smooth="yes"/>
      <point x="1106" y="727"/>
      <point x="1106" y="690"/>
      <point x="1113" y="674" type="qcurve" smooth="yes"/>
      <point x="1306" y="274" type="line" smooth="yes"/>
      <point x="1315" y="255"/>
      <point x="1332" y="255"/>
      <point x="1342" y="276" type="qcurve" smooth="yes"/>
      <point x="1735" y="1080" type="line" smooth="yes"/>
      <point x="1752" y="1117"/>
      <point x="1752" y="1142" type="qcurve" smooth="yes"/>
      <point x="1752" y="1204"/>
      <point x="1653" y="1204" type="qcurve" smooth="yes"/>
      <point x="1640" y="1204"/>
      <point x="1640" y="1275"/>
      <point x="1653" y="1275" type="qcurve" smooth="yes"/>
      <point x="2012" y="1275" type="line" smooth="yes"/>
      <point x="2026" y="1275"/>
      <point x="2026" y="1204"/>
      <point x="2012" y="1204" type="qcurve" smooth="yes"/>
      <point x="1882" y="1204"/>
      <point x="1843" y="1118" type="qcurve"/>
      <point x="1301" y="7" type="line" smooth="yes"/>
      <point x="1284" y="-29"/>
      <point x="1262" y="-29"/>
      <point x="1247" y="6" type="qcurve"/>
      <point x="1018" y="482" type="line" smooth="yes"/>
      <point x="1010" y="498"/>
      <point x="994" y="498"/>
      <point x="987" y="482" type="qcurve" smooth="yes"/>
      <point x="756" y="6" type="line"/>
      <point x="741" y="-29"/>
      <point x="720" y="-29"/>
      <point x="703" y="6" type="qcurve" smooth="yes"/>
    </contour>
  </outline>
</glyph>
<glyph name="X" format="1">
  <advance width="1330"/>
  <unicode hex="0058"/>
  <outline>
    <contour>
      <point x="223" y="1096" type="line"/>
      <point x="178" y="1163"/>
      <point x="82" y="1203"/>
      <point x="-1" y="1204" type="qcurve" smooth="yes"/>
      <point x="-14" y="1204"/>
      <point x="-14" y="1275"/>
      <point x="-1" y="1275" type="qcurve" smooth="yes"/>
      <point x="556" y="1275" type="line" smooth="yes"/>
      <point x="570" y="1275"/>
      <point x="570" y="1204"/>
      <point x="556" y="1204" type="qcurve" smooth="yes"/>
      <point x="407" y="1204"/>
      <point x="407" y="1147" type="qcurve" smooth="yes"/>
      <point x="407" y="1122"/>
      <point x="429" y="1088" type="qcurve"/>
      <point x="655" y="785" type="line" smooth="yes"/>
      <point x="666" y="769"/>
      <point x="688" y="769"/>
      <point x="700" y="785" type="qcurve" smooth="yes"/>
      <point x="925" y="1080" type="line" smooth="yes"/>
      <point x="963" y="1130"/>
      <point x="963" y="1158" type="qcurve" smooth="yes"/>
      <point x="963" y="1204"/>
      <point x="876" y="1204" type="qcurve" smooth="yes"/>
      <point x="862" y="1204"/>
      <point x="862" y="1275"/>
      <point x="876" y="1275" type="qcurve" smooth="yes"/>
      <point x="1275" y="1275" type="line" smooth="yes"/>
      <point x="1288" y="1275"/>
      <point x="1288" y="1204"/>
      <point x="1275" y="1204" type="qcurve" smooth="yes"/>
      <point x="1158" y="1204"/>
      <point x="1050" y="1122"/>
      <point x="963" y="1009" type="qcurve"/>
      <point x="746" y="723" type="line" smooth="yes"/>
      <point x="735" y="709"/>
      <point x="735" y="681"/>
      <point x="744" y="667" type="qcurve"/>
      <point x="1100" y="186" type="line"/>
      <point x="1189" y="69"/>
      <point x="1327" y="69" type="qcurve" smooth="yes"/>
      <point x="1340" y="69"/>
      <point x="1340" y="0"/>
      <point x="1327" y="0" type="qcurve" smooth="yes"/>
      <point x="814" y="0" type="line" smooth="yes"/>
      <point x="800" y="0"/>
      <point x="800" y="69"/>
      <point x="814" y="69" type="qcurve" smooth="yes"/>
      <point x="928" y="69"/>
      <point x="928" y="122" type="qcurve" smooth="yes"/>
      <point x="928" y="148"/>
      <point x="899" y="191" type="qcurve"/>
      <point x="643" y="534" type="line"/>
      <point x="632" y="551"/>
      <point x="613" y="551"/>
      <point x="601" y="534" type="qcurve" smooth="yes"/>
      <point x="422" y="301" type="line" smooth="yes"/>
      <point x="324" y="172"/>
      <point x="324" y="69"/>
      <point x="444" y="69" type="qcurve" smooth="yes"/>
      <point x="458" y="69"/>
      <point x="458" y="0"/>
      <point x="444" y="0" type="qcurve" smooth="yes"/>
      <point x="-9" y="0" type="line" smooth="yes"/>
      <point x="-22" y="0"/>
      <point x="-22" y="69"/>
      <point x="-9" y="69" type="qcurve" smooth="yes"/>
      <point x="152" y="69"/>
      <point x="217" y="155" type="qcurve" smooth="yes"/>
      <point x="559" y="601" type="line" smooth="yes"/>
      <point x="567" y="612"/>
      <point x="567" y="633"/>
      <point x="555" y="651" type="qcurve"/>
    </contour>
  </outline>
</glyph>
<glyph name="Y" format="1">
  <advance width="1235"/>
  <unicode hex="0059"/>
  <outline>
    <contour>
      <point x="175" y="1089" type="line" smooth="yes"/>
      <point x="105" y="1204"/>
      <point x="-13" y="1204" type="qcurve" smooth="yes"/>
      <point x="-26" y="1204"/>
      <point x="-26" y="1275"/>
      <point x="-13" y="1275" type="qcurve" smooth="yes"/>
      <point x="463" y="1275" type="line" smooth="yes"/>
      <point x="476" y="1275"/>
      <point x="476" y="1204"/>
      <point x="463" y="1204" type="qcurve" smooth="yes"/>
      <point x="342" y="1204"/>
      <point x="342" y="1147" type="qcurve" smooth="yes"/>
      <point x="342" y="1124"/>
      <point x="363" y="1089" type="qcurve" smooth="yes"/>
      <point x="644" y="617" type="line" smooth="yes"/>
      <point x="652" y="603"/>
      <point x="667" y="603"/>
      <point x="676" y="617" type="qcurve" smooth="yes"/>
      <point x="974" y="1080" type="line" smooth="yes"/>
      <point x="1001" y="1122"/>
      <point x="1001" y="1151" type="qcurve" smooth="yes"/>
      <point x="1001" y="1204"/>
      <point x="890" y="1204" type="qcurve" smooth="yes"/>
      <point x="876" y="1204"/>
      <point x="876" y="1275"/>
      <point x="890" y="1275" type="qcurve" smooth="yes"/>
      <point x="1285" y="1275" type="line" smooth="yes"/>
      <point x="1298" y="1275"/>
      <point x="1298" y="1204"/>
      <point x="1285" y="1204" type="qcurve" smooth="yes"/>
      <point x="1146" y="1204"/>
      <point x="1074" y="1095" type="qcurve" smooth="yes"/>
      <point x="766" y="622" type="line" smooth="yes"/>
      <point x="701" y="522"/>
      <point x="689" y="463"/>
      <point x="689" y="406" type="qcurve" smooth="yes"/>
      <point x="689" y="186" type="line" smooth="yes"/>
      <point x="689" y="69"/>
      <point x="853" y="69" type="qcurve" smooth="yes"/>
      <point x="866" y="69"/>
      <point x="866" y="0"/>
      <point x="853" y="0" type="qcurve" smooth="yes"/>
      <point x="365" y="0" type="line" smooth="yes"/>
      <point x="352" y="0"/>
      <point x="352" y="69"/>
      <point x="365" y="69" type="qcurve" smooth="yes"/>
      <point x="529" y="69"/>
      <point x="529" y="186" type="qcurve" smooth="yes"/>
      <point x="529" y="404" type="line" smooth="yes"/>
      <point x="529" y="505"/>
      <point x="501" y="551" type="qcurve" smooth="yes"/>
    </contour>
  </outline>
</glyph>
<glyph name="bracketleft" format="1">
  <advance width="725"/>
  <unicode hex="005B"/>
  <outline>
    <contour>
      <point x="666" y="-354" type="qcurve" smooth="yes"/>
      <point x="309" y="-354" type="line" smooth="yes"/>
      <point x="287" y="-354"/>
      <point x="287" y="-332" type="qcurve" smooth="yes"/>
      <point x="287" y="1511" type="line" smooth="yes"/>
      <point x="287" y="1530"/>
      <point x="307" y="1530" type="qcurve" smooth="yes"/>
      <point x="666" y="1530" type="line" smooth="yes"/>
      <point x="683" y="1530"/>
      <point x="683" y="1452"/>
      <point x="666" y="1452" type="qcurve" smooth="yes"/>
      <point x="446" y="1452" type="line" smooth="yes"/>
      <point x="426" y="1452"/>
      <point x="426" y="1430" type="qcurve" smooth="yes"/>
      <point x="426" y="-248" type="line" smooth="yes"/>
      <point x="426" y="-276"/>
      <point x="440" y="-276" type="qcurve" smooth="yes"/>
      <point x="666" y="-276" type="line" smooth="yes"/>
      <point x="683" y="-276"/>
      <point x="683" y="-354"/>
    </contour>
  </outline>
</glyph>
<glyph name="asciicircum" format="1">
  <advance width="1096"/>
  <unicode hex="005E"/>
  <outline>
    <contour>
      <point x="985" y="535" type="line"/>
      <point x="850" y="535" type="line"/>
      <point x="549" y="1217" type="line"/>
      <point x="246" y="535" type="line"/>
      <point x="106" y="535" type="line"/>
      <point x="496" y="1372" type="line"/>
      <point x="600" y="1372" type="line"/>
    </contour>
  </outline>
</glyph>
<glyph name="grave" format="1">
  <advance width="569"/>
  <unicode hex="0060"/>
  <outline>
    <contour>
      <point x="461" y="1081" type="line" smooth="yes"/>
      <point x="465" y="1070"/>
      <point x="465" y="1061" type="qcurve" smooth="yes"/>
      <point x="465" y="1022"/>
      <point x="430" y="1022" type="qcurve" smooth="yes"/>
      <point x="407" y="1022"/>
      <point x="389" y="1051" type="qcurve" smooth="yes"/>
      <point x="221" y="1322" type="line" smooth="yes"/>
      <point x="217" y="1327"/>
      <point x="217" y="1335" type="qcurve" smooth="yes"/>
      <point x="217" y="1361"/>
      <point x="257" y="1380" type="qcurve" smooth="yes"/>
      <point x="279" y="1391"/>
      <point x="298" y="1391" type="qcurve" smooth="yes"/>
      <point x="322" y="1391"/>
      <point x="329" y="1375" type="qcurve" smooth="yes"/>
    </contour>
  </outline>
</glyph>
<glyph name="b" format="1">
  <advance width="1001"/>
  <unicode hex="0062"/>
  <outline>
    <contour>
      <point x="516" y="-75" type="move" name="below"/>
    </contour>
    <contour>
      <point x="420" y="1545" type="move" name="above"/>
    </contour>
    <contour>
      <point x="930" y="430" type="qcurve" smooth="yes"/>
      <point x="930" y="212"/>
      <point x="707" y="-23"/>
      <point x="524" y="-23" type="qcurve" smooth="yes"/>
      <point x="465" y="-23"/>
      <point x="369" y="23" type="qcurve"/>
      <point x="345" y="33"/>
      <point x="277" y="33"/>
      <point x="215" y="-23" type="qcurve" smooth="yes"/>
      <point x="212" y="-25"/>
      <point x="200" y="-25"/>
      <point x="185" y="-19" type="qcurve" smooth="yes"/>
      <point x="154" y="-7"/>
      <point x="154" y="0" type="qcurve" smooth="yes"/>
      <point x="158" y="61"/>
      <point x="158" y="260" type="qcurve" smooth="yes"/>
      <point x="158" y="1178" type="line" smooth="yes"/>
      <point x="158" y="1311"/>
      <point x="66" y="1311" type="qcurve" smooth="yes"/>
      <point x="49" y="1311"/>
      <point x="49" y="1366"/>
      <point x="66" y="1366" type="qcurve" smooth="yes"/>
      <point x="91" y="1366"/>
      <point x="251" y="1448"/>
      <point x="292" y="1485"/>
      <point x="304" y="1485" type="qcurve" smooth="yes"/>
      <point x="316" y="1485"/>
      <point x="317" y="1460" type="qcurve"/>
      <point x="311" y="1336" type="line"/>
      <point x="311" y="836" type="line" smooth="yes"/>
      <point x="311" y="809"/>
      <point x="324" y="809" type="qcurve" smooth="yes"/>
      <point x="333" y="809"/>
      <point x="344" y="815" type="qcurve" smooth="yes"/>
      <point x="438" y="870"/>
      <point x="520" y="870" type="qcurve" smooth="yes"/>
      <point x="696" y="870"/>
      <point x="930" y="607"/>
    </contour>
    <contour>
      <point x="756" y="414" type="qcurve" smooth="yes"/>
      <point x="756" y="570"/>
      <point x="603" y="791"/>
      <point x="481" y="791" type="qcurve" smooth="yes"/>
      <point x="395" y="791"/>
      <point x="334" y="741" type="qcurve" smooth="yes"/>
      <point x="311" y="723"/>
      <point x="311" y="647" type="qcurve" smooth="yes"/>
      <point x="311" y="301" type="line" smooth="yes"/>
      <point x="311" y="220"/>
      <point x="462" y="37"/>
      <point x="558" y="37" type="qcurve" smooth="yes"/>
      <point x="654" y="37"/>
      <point x="756" y="258"/>
    </contour>
  </outline>
</glyph>
<glyph name="d" format="1">
  <advance width="1012"/>
  <unicode hex="0064"/>
  <outline>
    <contour>
      <point x="66" y="411" type="qcurve" smooth="yes"/>
      <point x="66" y="600"/>
      <point x="330" y="870"/>
      <point x="541" y="870" type="qcurve" smooth="yes"/>
      <point x="611" y="870"/>
      <point x="655" y="856" type="qcurve" smooth="yes"/>
      <point x="667" y="852"/>
      <point x="674" y="852" type="qcurve" smooth="yes"/>
      <point x="688" y="852"/>
      <point x="688" y="877" type="qcurve" smooth="yes"/>
      <point x="688" y="1171" type="line" smooth="yes"/>
      <point x="688" y="1311"/>
      <point x="596" y="1311" type="qcurve" smooth="yes"/>
      <point x="579" y="1311"/>
      <point x="579" y="1366"/>
      <point x="596" y="1366" type="qcurve" smooth="yes"/>
      <point x="621" y="1366"/>
      <point x="764" y="1439"/>
      <point x="827" y="1485"/>
      <point x="848" y="1485"/>
      <point x="848" y="1463"/>
      <point x="841" y="1357"/>
      <point x="841" y="1312" type="qcurve" smooth="yes"/>
      <point x="841" y="231" type="line" smooth="yes"/>
      <point x="841" y="82"/>
      <point x="923" y="82" type="qcurve" smooth="yes"/>
      <point x="934" y="82"/>
      <point x="970" y="88"/>
      <point x="976" y="88"/>
      <point x="983" y="76"/>
      <point x="988" y="52"/>
      <point x="988" y="31"/>
      <point x="975" y="31"/>
      <point x="885" y="14"/>
      <point x="713" y="-27"/>
      <point x="705" y="-33" type="qcurve"/>
      <point x="688" y="-33"/>
      <point x="688" y="16" type="qcurve" smooth="yes"/>
      <point x="688" y="57" type="line" smooth="yes"/>
      <point x="688" y="80"/>
      <point x="665" y="80"/>
      <point x="649" y="66" type="qcurve" smooth="yes"/>
      <point x="555" y="-23"/>
      <point x="453" y="-23" type="qcurve" smooth="yes"/>
      <point x="256" y="-23"/>
      <point x="66" y="222"/>
    </contour>
    <contour>
      <point x="688" y="199" type="qcurve" smooth="yes"/>
      <point x="688" y="668" type="line" smooth="yes"/>
      <point x="688" y="743"/>
      <point x="666" y="762" type="qcurve" smooth="yes"/>
      <point x="607" y="811"/>
      <point x="518" y="811" type="qcurve" smooth="yes"/>
      <point x="384" y="811"/>
      <point x="229" y="588"/>
      <point x="229" y="440" type="qcurve" smooth="yes"/>
      <point x="229" y="292"/>
      <point x="395" y="74"/>
      <point x="504" y="74" type="qcurve" smooth="yes"/>
      <point x="582" y="74"/>
      <point x="688" y="156"/>
    </contour>
  </outline>
</glyph>
<glyph name="i" format="1">
  <advance width="524"/>
  <unicode hex="0069"/>
  <outline>
    <contour>
      <point x="280" y="-75" type="move" name="below"/>
    </contour>
    <contour>
      <point x="268" y="1285" type="move" name="above"/>
    </contour>
    <contour>
      <point x="467" y="0" type="qcurve" smooth="yes"/>
      <point x="88" y="0" type="line" smooth="yes"/>
      <point x="74" y="0"/>
      <point x="74" y="49"/>
      <point x="88" y="49" type="qcurve" smooth="yes"/>
      <point x="201" y="49"/>
      <point x="201" y="127" type="qcurve" smooth="yes"/>
      <point x="201" y="571" type="line" smooth="yes"/>
      <point x="201" y="709"/>
      <point x="109" y="709" type="qcurve" smooth="yes"/>
      <point x="92" y="709"/>
      <point x="92" y="765"/>
      <point x="109" y="765" type="qcurve" smooth="yes"/>
      <point x="142" y="765"/>
      <point x="271" y="833"/>
      <point x="337" y="883"/>
      <point x="348" y="883" type="qcurve" smooth="yes"/>
      <point x="360" y="883"/>
      <point x="360" y="867" type="qcurve" smooth="yes"/>
      <point x="354" y="759"/>
      <point x="354" y="701" type="qcurve" smooth="yes"/>
      <point x="354" y="127" type="line" smooth="yes"/>
      <point x="354" y="49"/>
      <point x="467" y="49" type="qcurve" smooth="yes"/>
      <point x="481" y="49"/>
      <point x="481" y="0"/>
    </contour>
    <contour>
      <point x="150" y="1157" type="qcurve" smooth="yes"/>
      <point x="150" y="1202"/>
      <point x="211" y="1263"/>
      <point x="256" y="1263" type="qcurve" smooth="yes"/>
      <point x="301" y="1263"/>
      <point x="365" y="1202"/>
      <point x="365" y="1157" type="qcurve" smooth="yes"/>
      <point x="365" y="1112"/>
      <point x="301" y="1048"/>
      <point x="256" y="1048" type="qcurve" smooth="yes"/>
      <point x="211" y="1048"/>
      <point x="150" y="1112"/>
    </contour>
  </outline>
</glyph>
<glyph name="k" format="1">
  <advance width="1008"/>
  <unicode hex="006B"/>
  <outline>
    <contour>
      <point x="664" y="723" type="line" smooth="yes"/>
      <point x="690" y="752"/>
      <point x="690" y="770" type="qcurve" smooth="yes"/>
      <point x="690" y="803"/>
      <point x="594" y="803" type="qcurve" smooth="yes"/>
      <point x="580" y="803"/>
      <point x="580" y="850"/>
      <point x="594" y="850" type="qcurve" smooth="yes"/>
      <point x="958" y="850" type="line" smooth="yes"/>
      <point x="972" y="850"/>
      <point x="972" y="803"/>
      <point x="958" y="803" type="qcurve" smooth="yes"/>
      <point x="866" y="803"/>
      <point x="795" y="735" type="qcurve" smooth="yes"/>
      <point x="582" y="530" type="line" smooth="yes"/>
      <point x="563" y="512"/>
      <point x="563" y="480"/>
      <point x="580" y="461" type="qcurve" smooth="yes"/>
      <point x="901" y="94" type="line" smooth="yes"/>
      <point x="940" y="49"/>
      <point x="1030" y="49" type="qcurve" smooth="yes"/>
      <point x="1044" y="49"/>
      <point x="1044" y="0"/>
      <point x="1030" y="0" type="qcurve" smooth="yes"/>
      <point x="627" y="0" type="line" smooth="yes"/>
      <point x="613" y="0"/>
      <point x="613" y="49"/>
      <point x="627" y="49" type="qcurve" smooth="yes"/>
      <point x="709" y="49"/>
      <point x="709" y="78" type="qcurve" smooth="yes"/>
      <point x="709" y="91"/>
      <point x="678" y="127" type="qcurve" smooth="yes"/>
      <point x="457" y="381" type="line" smooth="yes"/>
      <point x="441" y="399"/>
      <point x="402" y="412"/>
      <point x="372" y="412"/>
      <point x="354" y="396"/>
      <point x="354" y="369" type="qcurve" smooth="yes"/>
      <point x="354" y="127" type="line" smooth="yes"/>
      <point x="354" y="49"/>
      <point x="473" y="49" type="qcurve" smooth="yes"/>
      <point x="487" y="49"/>
      <point x="487" y="0"/>
      <point x="473" y="0" type="qcurve" smooth="yes"/>
      <point x="86" y="0" type="line" smooth="yes"/>
      <point x="73" y="0"/>
      <point x="73" y="49"/>
      <point x="86" y="49" type="qcurve" smooth="yes"/>
      <point x="201" y="49"/>
      <point x="201" y="127" type="qcurve" smooth="yes"/>
      <point x="201" y="1175" type="line" smooth="yes"/>
      <point x="201" y="1313"/>
      <point x="109" y="1313" type="qcurve" smooth="yes"/>
      <point x="92" y="1313"/>
      <point x="92" y="1369"/>
      <point x="109" y="1369" type="qcurve" smooth="yes"/>
      <point x="142" y="1369"/>
      <point x="271" y="1437"/>
      <point x="337" y="1487"/>
      <point x="348" y="1487" type="qcurve" smooth="yes"/>
      <point x="360" y="1487"/>
      <point x="360" y="1471"/>
      <point x="354" y="1366"/>
      <point x="354" y="1305" type="qcurve" smooth="yes"/>
      <point x="354" y="522" type="line" smooth="yes"/>
      <point x="354" y="479"/>
      <point x="446" y="479"/>
      <point x="467" y="502" type="qcurve" smooth="yes"/>
    </contour>
  </outline>
</glyph>
<glyph name="n" format="1">
  <advance width="1069"/>
  <unicode hex="006E"/>
  <outline>
    <contour>
      <point x="896" y="127" type="line" smooth="yes"/>
      <point x="896" y="49"/>
      <point x="1011" y="49" type="qcurve" smooth="yes"/>
      <point x="1025" y="49"/>
      <point x="1025" y="0"/>
      <point x="1011" y="0" type="qcurve" smooth="yes"/>
      <point x="633" y="0" type="line" smooth="yes"/>
      <point x="619" y="0"/>
      <point x="619" y="49"/>
      <point x="633" y="49" type="qcurve" smooth="yes"/>
      <point x="743" y="49"/>
      <point x="743" y="127" type="qcurve" smooth="yes"/>
      <point x="743" y="530" type="line" smooth="yes"/>
      <point x="743" y="614"/>
      <point x="714" y="731"/>
      <point x="652" y="780"/>
      <point x="574" y="780" type="qcurve" smooth="yes"/>
      <point x="532" y="780"/>
      <point x="464" y="746"/>
      <point x="399" y="699"/>
      <point x="354" y="630"/>
      <point x="354" y="590" type="qcurve" smooth="yes"/>
      <point x="354" y="127" type="line" smooth="yes"/>
      <point x="354" y="49"/>
      <point x="461" y="49" type="qcurve" smooth="yes"/>
      <point x="475" y="49"/>
      <point x="475" y="0"/>
      <point x="461" y="0" type="qcurve" smooth="yes"/>
      <point x="86" y="0" type="line" smooth="yes"/>
      <point x="72" y="0"/>
      <point x="72" y="49"/>
      <point x="86" y="49" type="qcurve" smooth="yes"/>
      <point x="201" y="49"/>
      <point x="201" y="127" type="qcurve" smooth="yes"/>
      <point x="201" y="574" type="line" smooth="yes"/>
      <point x="201" y="702"/>
      <point x="117" y="702" type="qcurve" smooth="yes"/>
      <point x="100" y="702"/>
      <point x="100" y="758"/>
      <point x="117" y="758" type="qcurve" smooth="yes"/>
      <point x="155" y="758"/>
      <point x="254" y="818"/>
      <point x="328" y="883"/>
      <point x="343" y="883" type="qcurve" smooth="yes"/>
      <point x="357" y="883"/>
      <point x="357" y="852"/>
      <point x="353" y="799"/>
      <point x="353" y="758"/>
      <point x="368" y="758" type="qcurve" smooth="yes"/>
      <point x="376" y="758"/>
      <point x="383" y="764" type="qcurve" smooth="yes"/>
      <point x="490" y="870"/>
      <point x="642" y="870" type="qcurve" smooth="yes"/>
      <point x="790" y="870"/>
      <point x="863" y="723" type="qcurve" smooth="yes"/>
      <point x="896" y="657"/>
      <point x="896" y="475" type="qcurve" smooth="yes"/>
    </contour>
  </outline>
</glyph>
<glyph name="p" format="1">
  <advance width="1001"/>
  <unicode hex="0070"/>
  <outline>
    <contour>
      <point x="945" y="418" type="qcurve" smooth="yes"/>
      <point x="945" y="220"/>
      <point x="726" y="-23"/>
      <point x="531" y="-23" type="qcurve" smooth="yes"/>
      <point x="421" y="-23"/>
      <point x="357" y="-2"/>
      <point x="353" y="-2" type="qcurve" smooth="yes"/>
      <point x="327" y="-2"/>
      <point x="327" y="-35" type="qcurve" smooth="yes"/>
      <point x="327" y="-416" type="line" smooth="yes"/>
      <point x="327" y="-502"/>
      <point x="478" y="-502" type="qcurve" smooth="yes"/>
      <point x="492" y="-502"/>
      <point x="492" y="-551"/>
      <point x="478" y="-551" type="qcurve" smooth="yes"/>
      <point x="59" y="-551" type="line" smooth="yes"/>
      <point x="45" y="-551"/>
      <point x="45" y="-502"/>
      <point x="59" y="-502" type="qcurve" smooth="yes"/>
      <point x="174" y="-502"/>
      <point x="174" y="-418" type="qcurve" smooth="yes"/>
      <point x="174" y="581" type="line" smooth="yes"/>
      <point x="174" y="705"/>
      <point x="88" y="705" type="qcurve" smooth="yes"/>
      <point x="71" y="705"/>
      <point x="71" y="760"/>
      <point x="88" y="760" type="qcurve" smooth="yes"/>
      <point x="117" y="760"/>
      <point x="257" y="840"/>
      <point x="300" y="883"/>
      <point x="331" y="883"/>
      <point x="331" y="856"/>
      <point x="327" y="798"/>
      <point x="327" y="768"/>
      <point x="343" y="768" type="qcurve" smooth="yes"/>
      <point x="352" y="768"/>
      <point x="361" y="776" type="qcurve"/>
      <point x="445" y="870"/>
      <point x="548" y="870" type="qcurve" smooth="yes"/>
      <point x="660" y="870"/>
      <point x="848" y="733"/>
      <point x="945" y="563"/>
    </contour>
    <contour>
      <point x="771" y="420" type="qcurve" smooth="yes"/>
      <point x="771" y="788"/>
      <point x="507" y="788" type="qcurve" smooth="yes"/>
      <point x="423" y="788"/>
      <point x="347" y="688" type="qcurve" smooth="yes"/>
      <point x="327" y="662"/>
      <point x="327" y="594" type="qcurve" smooth="yes"/>
      <point x="327" y="205" type="line" smooth="yes"/>
      <point x="327" y="41"/>
      <point x="516" y="41" type="qcurve" smooth="yes"/>
      <point x="656" y="41"/>
      <point x="771" y="263"/>
    </contour>
  </outline>
</glyph>
<glyph name="r" format="1">
  <advance width="696"/>
  <unicode hex="0072"/>
  <outline>
    <contour>
      <point x="393" y="-75" type="move" name="below"/>
    </contour>
    <contour>
      <point x="393" y="900" type="move" name="above"/>
    </contour>
    <contour>
      <point x="581" y="870" type="qcurve" smooth="yes"/>
      <point x="613" y="870"/>
      <point x="655" y="848"/>
      <point x="691" y="802"/>
      <point x="691" y="758" type="qcurve" smooth="yes"/>
      <point x="691" y="746"/>
      <point x="671" y="702"/>
      <point x="650" y="686" type="qcurve" smooth="yes"/>
      <point x="630" y="670"/>
      <point x="586" y="670"/>
      <point x="495" y="719"/>
      <point x="472" y="719" type="qcurve" smooth="yes"/>
      <point x="411" y="719"/>
      <point x="327" y="598"/>
      <point x="327" y="494" type="qcurve" smooth="yes"/>
      <point x="327" y="127" type="line" smooth="yes"/>
      <point x="327" y="49"/>
      <point x="478" y="49" type="qcurve" smooth="yes"/>
      <point x="492" y="49"/>
      <point x="492" y="0"/>
      <point x="478" y="0" type="qcurve" smooth="yes"/>
      <point x="59" y="0" type="line" smooth="yes"/>
      <point x="45" y="0"/>
      <point x="45" y="49"/>
      <point x="59" y="49" type="qcurve" smooth="yes"/>
      <point x="174" y="49"/>
      <point x="174" y="127" type="qcurve" smooth="yes"/>
      <point x="174" y="589" type="line" smooth="yes"/>
      <point x="174" y="702"/>
      <point x="90" y="702" type="qcurve" smooth="yes"/>
      <point x="73" y="702"/>
      <point x="73" y="758"/>
      <point x="90" y="758" type="qcurve" smooth="yes"/>
      <point x="128" y="758"/>
      <point x="270" y="854"/>
      <point x="303" y="883"/>
      <point x="314" y="883" type="qcurve" smooth="yes"/>
      <point x="331" y="883"/>
      <point x="331" y="858" type="qcurve"/>
      <point x="327" y="809"/>
      <point x="327" y="728"/>
      <point x="354" y="728"/>
      <point x="368" y="748" type="qcurve" smooth="yes"/>
      <point x="457" y="870"/>
    </contour>
  </outline>
</glyph>
<glyph name="s" format="1">
  <advance width="707"/>
  <unicode hex="0073"/>
  <outline>
    <contour>
      <point x="369" y="-75" type="move" name="below"/>
    </contour>
    <contour>
      <point x="369" y="900" type="move" name="above"/>
    </contour>
    <contour>
      <point x="649" y="246" type="qcurve" smooth="yes"/>
      <point x="649" y="165"/>
      <point x="565" y="38"/>
      <point x="419" y="-25"/>
      <point x="338" y="-25" type="qcurve" smooth="yes"/>
      <point x="182" y="-25"/>
      <point x="98" y="35" type="qcurve"/>
      <point x="78" y="98"/>
      <point x="78" y="207" type="qcurve" smooth="yes"/>
      <point x="78" y="252" type="line" smooth="yes"/>
      <point x="78" y="267"/>
      <point x="125" y="267"/>
      <point x="127" y="252" type="qcurve" smooth="yes"/>
      <point x="132" y="213"/>
      <point x="252" y="39"/>
      <point x="371" y="39" type="qcurve" smooth="yes"/>
      <point x="430" y="39"/>
      <point x="532" y="113"/>
      <point x="532" y="183" type="qcurve" smooth="yes"/>
      <point x="532" y="253"/>
      <point x="446" y="338"/>
      <point x="226" y="397"/>
      <point x="92" y="527"/>
      <point x="92" y="627" type="qcurve" smooth="yes"/>
      <point x="92" y="729"/>
      <point x="260" y="870"/>
      <point x="389" y="870" type="qcurve" smooth="yes"/>
      <point x="518" y="870"/>
      <point x="596" y="834" type="qcurve"/>
      <point x="627" y="750"/>
      <point x="627" y="664" type="qcurve" smooth="yes"/>
      <point x="627" y="653" type="line" smooth="yes"/>
      <point x="627" y="639"/>
      <point x="583" y="639"/>
      <point x="580" y="653" type="qcurve" smooth="yes"/>
      <point x="570" y="707"/>
      <point x="455" y="809"/>
      <point x="378" y="809" type="qcurve" smooth="yes"/>
      <point x="301" y="809"/>
      <point x="207" y="734"/>
      <point x="207" y="670" type="qcurve" smooth="yes"/>
      <point x="207" y="610"/>
      <point x="274" y="543"/>
      <point x="540" y="466"/>
      <point x="649" y="349"/>
    </contour>
  </outline>
</glyph>
<glyph name="v" format="1">
  <advance width="838"/>
  <unicode hex="0076"/>
  <outline>
    <contour>
      <point x="115" y="731" type="line"/>
      <point x="86" y="803"/>
      <point x="12" y="803" type="qcurve" smooth="yes"/>
      <point x="-2" y="803"/>
      <point x="-2" y="850"/>
      <point x="12" y="850" type="qcurve" smooth="yes"/>
      <point x="367" y="850" type="line" smooth="yes"/>
      <point x="381" y="850"/>
      <point x="381" y="803"/>
      <point x="367" y="803" type="qcurve" smooth="yes"/>
      <point x="289" y="803"/>
      <point x="289" y="748" type="qcurve" smooth="yes"/>
      <point x="289" y="731"/>
      <point x="293" y="719" type="qcurve" smooth="yes"/>
      <point x="453" y="229" type="line" smooth="yes"/>
      <point x="459" y="211"/>
      <point x="475" y="211"/>
      <point x="481" y="229" type="qcurve" smooth="yes"/>
      <point x="651" y="727" type="line" smooth="yes"/>
      <point x="655" y="737"/>
      <point x="655" y="750" type="qcurve" smooth="yes"/>
      <point x="655" y="803"/>
      <point x="559" y="803" type="qcurve" smooth="yes"/>
      <point x="545" y="803"/>
      <point x="545" y="850"/>
      <point x="559" y="850" type="qcurve" smooth="yes"/>
      <point x="848" y="850" type="line" smooth="yes"/>
      <point x="862" y="850"/>
      <point x="862" y="803"/>
      <point x="848" y="803" type="qcurve" smooth="yes"/>
      <point x="752" y="803"/>
      <point x="727" y="731" type="qcurve" smooth="yes"/>
      <point x="477" y="16" type="line" smooth="yes"/>
      <point x="464" y="-23"/>
      <point x="406" y="-23"/>
      <point x="395" y="4" type="qcurve" smooth="yes"/>
    </contour>
  </outline>
</glyph>
<glyph name="w" format="1">
  <advance width="1331"/>
  <unicode hex="0077"/>
  <outline>
    <contour>
      <point x="115" y="731" type="line"/>
      <point x="86" y="803"/>
      <point x="12" y="803" type="qcurve" smooth="yes"/>
      <point x="-2" y="803"/>
      <point x="-2" y="850"/>
      <point x="12" y="850" type="qcurve" smooth="yes"/>
      <point x="367" y="850" type="line" smooth="yes"/>
      <point x="381" y="850"/>
      <point x="381" y="803"/>
      <point x="367" y="803" type="qcurve" smooth="yes"/>
      <point x="289" y="803"/>
      <point x="289" y="748" type="qcurve" smooth="yes"/>
      <point x="289" y="731"/>
      <point x="293" y="719" type="qcurve" smooth="yes"/>
      <point x="453" y="229" type="line" smooth="yes"/>
      <point x="459" y="211"/>
      <point x="475" y="211"/>
      <point x="481" y="229" type="qcurve" smooth="yes"/>
      <point x="631" y="664" type="line" smooth="yes"/>
      <point x="637" y="684"/>
      <point x="637" y="692" type="qcurve" smooth="yes"/>
      <point x="637" y="751"/>
      <point x="586" y="786" type="qcurve"/>
      <point x="559" y="803"/>
      <point x="524" y="803" type="qcurve" smooth="yes"/>
      <point x="510" y="803"/>
      <point x="510" y="850"/>
      <point x="524" y="850" type="qcurve" smooth="yes"/>
      <point x="879" y="850" type="line" smooth="yes"/>
      <point x="893" y="850"/>
      <point x="893" y="803"/>
      <point x="879" y="803" type="qcurve" smooth="yes"/>
      <point x="801" y="803"/>
      <point x="801" y="748" type="qcurve" smooth="yes"/>
      <point x="801" y="731"/>
      <point x="805" y="719" type="qcurve" smooth="yes"/>
      <point x="965" y="229" type="line" smooth="yes"/>
      <point x="971" y="211"/>
      <point x="987" y="211"/>
      <point x="993" y="229" type="qcurve" smooth="yes"/>
      <point x="1163" y="727" type="line" smooth="yes"/>
      <point x="1167" y="737"/>
      <point x="1167" y="750" type="qcurve" smooth="yes"/>
      <point x="1167" y="803"/>
      <point x="1071" y="803" type="qcurve" smooth="yes"/>
      <point x="1057" y="803"/>
      <point x="1057" y="850"/>
      <point x="1071" y="850" type="qcurve" smooth="yes"/>
      <point x="1360" y="850" type="line" smooth="yes"/>
      <point x="1374" y="850"/>
      <point x="1374" y="803"/>
      <point x="1360" y="803" type="qcurve" smooth="yes"/>
      <point x="1264" y="803"/>
      <point x="1239" y="731" type="qcurve" smooth="yes"/>
      <point x="989" y="16" type="line" smooth="yes"/>
      <point x="976" y="-23"/>
      <point x="918" y="-23"/>
      <point x="907" y="4" type="qcurve" smooth="yes"/>
      <point x="694" y="553" type="line" smooth="yes"/>
      <point x="686" y="573"/>
      <point x="680" y="573" type="qcurve" smooth="yes"/>
      <point x="674" y="573"/>
      <point x="666" y="553" type="qcurve" smooth="yes"/>
      <point x="477" y="16" type="line" smooth="yes"/>
      <point x="464" y="-23"/>
      <point x="406" y="-23"/>
      <point x="395" y="4" type="qcurve" smooth="yes"/>
    </contour>
  </outline>
</glyph>
<glyph name="y" format="1">
  <advance width="838"/>
  <unicode hex="0079"/>
  <outline>
    <contour>
      <point x="82" y="731" type="line" smooth="yes"/>
      <point x="56" y="803"/>
      <point x="-39" y="803" type="qcurve" smooth="yes"/>
      <point x="-53" y="803"/>
      <point x="-53" y="850"/>
      <point x="-39" y="850" type="qcurve" smooth="yes"/>
      <point x="332" y="850" type="line" smooth="yes"/>
      <point x="346" y="850"/>
      <point x="346" y="803"/>
      <point x="332" y="803" type="qcurve" smooth="yes"/>
      <point x="236" y="803"/>
      <point x="236" y="748" type="qcurve" smooth="yes"/>
      <point x="236" y="732"/>
      <point x="240" y="719" type="qcurve" smooth="yes"/>
      <point x="414" y="215" type="line" smooth="yes"/>
      <point x="424" y="184"/>
      <point x="454" y="184"/>
      <point x="467" y="217" type="qcurve" smooth="yes"/>
      <point x="662" y="719" type="line" smooth="yes"/>
      <point x="668" y="732"/>
      <point x="668" y="745" type="qcurve" smooth="yes"/>
      <point x="668" y="803"/>
      <point x="539" y="803" type="qcurve" smooth="yes"/>
      <point x="525" y="803"/>
      <point x="525" y="850"/>
      <point x="539" y="850" type="qcurve" smooth="yes"/>
      <point x="866" y="850" type="line" smooth="yes"/>
      <point x="880" y="850"/>
      <point x="880" y="803"/>
      <point x="866" y="803" type="qcurve" smooth="yes"/>
      <point x="770" y="803"/>
      <point x="741" y="731" type="qcurve"/>
      <point x="299" y="-418" type="line" smooth="yes"/>
      <point x="274" y="-482"/>
      <point x="177" y="-553"/>
      <point x="81" y="-553"/>
      <point x="31" y="-503"/>
      <point x="31" y="-477" type="qcurve" smooth="yes"/>
      <point x="31" y="-401"/>
      <point x="220" y="-401"/>
      <point x="246" y="-338" type="qcurve" smooth="yes"/>
      <point x="342" y="-98" type="line" smooth="yes"/>
      <point x="353" y="-73"/>
      <point x="353" y="-45"/>
      <point x="340" y="-8" type="qcurve" smooth="yes"/>
    </contour>
  </outline>
</glyph>
<glyph name="z" format="1">
  <advance width="735"/>
  <unicode hex="007A"/>
  <outline>
    <contour>
      <point x="713" y="276" type="qcurve"/>
      <point x="682" y="47"/>
      <point x="682" y="-27"/>
      <point x="655" y="-27" type="qcurve" smooth="yes"/>
      <point x="645" y="-27"/>
      <point x="528" y="0"/>
      <point x="492" y="0" type="qcurve" smooth="yes"/>
      <point x="72" y="0" type="line" smooth="yes"/>
      <point x="55" y="0"/>
      <point x="55" y="14" type="qcurve" smooth="yes"/>
      <point x="55" y="20"/>
      <point x="57" y="23" type="qcurve" smooth="yes"/>
      <point x="455" y="752" type="line" smooth="yes"/>
      <point x="463" y="767"/>
      <point x="463" y="775" type="qcurve" smooth="yes"/>
      <point x="463" y="793"/>
      <point x="434" y="793" type="qcurve" smooth="yes"/>
      <point x="276" y="793" type="line" smooth="yes"/>
      <point x="221" y="793"/>
      <point x="146" y="698"/>
      <point x="84" y="563" type="qcurve"/>
      <point x="81" y="559"/>
      <point x="74" y="559"/>
      <point x="61" y="565"/>
      <point x="61" y="569" type="qcurve" smooth="yes"/>
      <point x="98" y="836" type="line" smooth="yes"/>
      <point x="101" y="859"/>
      <point x="113" y="870"/>
      <point x="121" y="870" type="qcurve"/>
      <point x="224" y="854" type="line" smooth="yes"/>
      <point x="250" y="850"/>
      <point x="301" y="850" type="qcurve" smooth="yes"/>
      <point x="647" y="850" type="line" smooth="yes"/>
      <point x="662" y="850"/>
      <point x="662" y="843" type="qcurve" smooth="yes"/>
      <point x="662" y="836"/>
      <point x="657" y="827" type="qcurve" smooth="yes"/>
      <point x="260" y="104" type="line" smooth="yes"/>
      <point x="254" y="93"/>
      <point x="254" y="86" type="qcurve" smooth="yes"/>
      <point x="254" y="68"/>
      <point x="308" y="60"/>
      <point x="497" y="60"/>
      <point x="608" y="132"/>
      <point x="672" y="285" type="qcurve"/>
      <point x="676" y="291"/>
      <point x="689" y="291"/>
      <point x="713" y="284"/>
    </contour>
  </outline>
</glyph>
<glyph name="bar" format="1">
  <advance width="537"/>
  <unicode hex="007C"/>
  <outline>
    <contour>
      <point x="354" y="-334" type="line"/>
      <point x="233" y="-334" type="line"/>
      <point x="233" y="1434" type="line"/>
      <point x="354" y="1434" type="line"/>
    </contour>
  </outline>
</glyph>
<glyph name="asciitilde" format="1">
  <advance width="676"/>
  <unicode hex="007E"/>
  <outline>
    <contour>
      <point x="27" y="376" type="qcurve" smooth="yes"/>
      <point x="126" y="522"/>
      <point x="236" y="522" type="qcurve" smooth="yes"/>
      <point x="278" y="522"/>
      <point x="474" y="452"/>
      <point x="507" y="452" type="qcurve" smooth="yes"/>
      <point x="573" y="452"/>
      <point x="626" y="516" type="qcurve" smooth="yes"/>
      <point x="629" y="519"/>
      <point x="638" y="519"/>
      <point x="653" y="507"/>
      <point x="653" y="498"/>
      <point x="650" y="494" type="qcurve" smooth="yes"/>
      <point x="551" y="348"/>
      <point x="441" y="348" type="qcurve" smooth="yes"/>
      <point x="399" y="348"/>
      <point x="203" y="418"/>
      <point x="170" y="418" type="qcurve" smooth="yes"/>
      <point x="104" y="418"/>
      <point x="51" y="354" type="qcurve" smooth="yes"/>
      <point x="48" y="351"/>
      <point x="39" y="351"/>
      <point x="24" y="363"/>
      <point x="24" y="372"/>
    </contour>
  </outline>
</glyph>
<glyph name="exclamdown" format="1">
  <advance width="520"/>
  <unicode hex="00A1"/>
  <outline>
    <contour>
      <point x="260" y="634" type="qcurve" smooth="yes"/>
      <point x="198" y="634"/>
      <point x="138" y="708"/>
      <point x="138" y="809"/>
      <point x="208" y="870"/>
      <point x="314" y="870"/>
      <point x="380" y="798"/>
      <point x="380" y="696"/>
      <point x="320" y="634"/>
    </contour>
    <contour>
      <point x="152" y="-443" type="qcurve" smooth="yes"/>
      <point x="152" y="-380"/>
      <point x="214" y="203"/>
      <point x="226" y="409" type="qcurve"/>
      <point x="228" y="425"/>
      <point x="260" y="425" type="qcurve" smooth="yes"/>
      <point x="292" y="425"/>
      <point x="292" y="409" type="qcurve" smooth="yes"/>
      <point x="300" y="210"/>
      <point x="354" y="-374"/>
      <point x="354" y="-430" type="qcurve" smooth="yes"/>
      <point x="354" y="-486"/>
      <point x="292" y="-554"/>
      <point x="256" y="-554" type="qcurve" smooth="yes"/>
      <point x="152" y="-554"/>
    </contour>
  </outline>
</glyph>
<glyph name="cent" format="1">
  <advance width="829"/>
  <unicode hex="00A2"/>
  <outline>
    <contour>
      <point x="545" y="1305" type="line" smooth="yes"/>
      <point x="547" y="1315"/>
      <point x="567" y="1315" type="qcurve" smooth="yes"/>
      <point x="633" y="1315"/>
      <point x="633" y="1288" type="qcurve"/>
      <point x="602" y="1113" type="line"/>
      <point x="732" y="1101"/>
      <point x="762" y="1043" type="qcurve" smooth="yes"/>
      <point x="768" y="1031"/>
      <point x="768" y="983"/>
      <point x="724" y="928"/>
      <point x="690" y="928"/>
      <point x="680" y="942" type="qcurve" smooth="yes"/>
      <point x="636" y="1002"/>
      <point x="587" y="1028" type="qcurve"/>
      <point x="467" y="347" type="line"/>
      <point x="501" y="336"/>
      <point x="536" y="336" type="qcurve" smooth="yes"/>
      <point x="613" y="336"/>
      <point x="749" y="398" type="qcurve" smooth="yes"/>
      <point x="751" y="399"/>
      <point x="754" y="399" type="qcurve" smooth="yes"/>
      <point x="764" y="398"/>
      <point x="774" y="382" type="qcurve" smooth="yes"/>
      <point x="787" y="362"/>
      <point x="787" y="348"/>
      <point x="782" y="343" type="qcurve" smooth="yes"/>
      <point x="756" y="320"/>
      <point x="594" y="224"/>
      <point x="445" y="223" type="qcurve"/>
      <point x="412" y="33" type="line" smooth="yes"/>
      <point x="410" y="23"/>
      <point x="385" y="23" type="qcurve" smooth="yes"/>
      <point x="322" y="23"/>
      <point x="322" y="47" type="qcurve"/>
      <point x="356" y="237" type="line"/>
      <point x="248" y="271"/>
      <point x="92" y="477"/>
      <point x="92" y="828"/>
      <point x="330" y="1110"/>
      <point x="511" y="1116" type="qcurve"/>
    </contour>
    <contour>
      <point x="384" y="395" type="qcurve"/>
      <point x="500" y="1049" type="line"/>
      <point x="408" y="1045"/>
      <point x="256" y="844"/>
      <point x="256" y="558"/>
      <point x="355" y="413"/>
    </contour>
  </outline>
</glyph>
<glyph name="currency" format="1">
  <advance width="1024"/>
  <unicode hex="00A4"/>
  <outline>
    <contour>
      <point x="80" y="668" type="qcurve" smooth="yes"/>
      <point x="80" y="816"/>
      <point x="168" y="928" type="qcurve"/>
      <point x="88" y="1008" type="line" smooth="yes"/>
      <point x="86" y="1010"/>
      <point x="86" y="1014" type="qcurve" smooth="yes"/>
      <point x="86" y="1028"/>
      <point x="152" y="1094"/>
      <point x="166" y="1094" type="qcurve" smooth="yes"/>
      <point x="170" y="1094"/>
      <point x="172" y="1092" type="qcurve" smooth="yes"/>
      <point x="252" y="1014" type="line"/>
      <point x="364" y="1102"/>
      <point x="659" y="1102"/>
      <point x="774" y="1014" type="qcurve"/>
      <point x="852" y="1092" type="line" smooth="yes"/>
      <point x="854" y="1094"/>
      <point x="858" y="1094" type="qcurve" smooth="yes"/>
      <point x="872" y="1094"/>
      <point x="938" y="1028"/>
      <point x="938" y="1014" type="qcurve" smooth="yes"/>
      <point x="938" y="1010"/>
      <point x="936" y="1008" type="qcurve" smooth="yes"/>
      <point x="858" y="930" type="line"/>
      <point x="946" y="815"/>
      <point x="946" y="519"/>
      <point x="858" y="406" type="qcurve"/>
      <point x="936" y="328" type="line" smooth="yes"/>
      <point x="939" y="325"/>
      <point x="939" y="321" type="qcurve" smooth="yes"/>
      <point x="939" y="307"/>
      <point x="870" y="242"/>
      <point x="857" y="242" type="qcurve" smooth="yes"/>
      <point x="854" y="242"/>
      <point x="852" y="244" type="qcurve" smooth="yes"/>
      <point x="774" y="322" type="line"/>
      <point x="658" y="233"/>
      <point x="370" y="233"/>
      <point x="252" y="324" type="qcurve"/>
      <point x="172" y="244" type="line" smooth="yes"/>
      <point x="170" y="242"/>
      <point x="167" y="242" type="qcurve" smooth="yes"/>
      <point x="154" y="242"/>
      <point x="85" y="307"/>
      <point x="85" y="321" type="qcurve" smooth="yes"/>
      <point x="85" y="325"/>
      <point x="88" y="328" type="qcurve" smooth="yes"/>
      <point x="168" y="408" type="line"/>
      <point x="80" y="520"/>
    </contour>
    <contour>
      <point x="168" y="668" type="qcurve" smooth="yes"/>
      <point x="168" y="524"/>
      <point x="369" y="322"/>
      <point x="658" y="322"/>
      <point x="860" y="524"/>
      <point x="860" y="808"/>
      <point x="654" y="1014"/>
      <point x="371" y="1014"/>
      <point x="168" y="811"/>
    </contour>
  </outline>
</glyph>
<glyph name="yen" format="1">
  <advance width="1325"/>
  <unicode hex="00A5"/>
  <outline>
    <contour>
      <point x="1096" y="571" type="line" smooth="yes"/>
      <point x="1111" y="571"/>
      <point x="1111" y="471"/>
      <point x="1096" y="471" type="qcurve" smooth="yes"/>
      <point x="728" y="471" type="line"/>
      <point x="728" y="186" type="line" smooth="yes"/>
      <point x="728" y="69"/>
      <point x="892" y="69" type="qcurve" smooth="yes"/>
      <point x="905" y="69"/>
      <point x="905" y="0"/>
      <point x="892" y="0" type="qcurve" smooth="yes"/>
      <point x="404" y="0" type="line" smooth="yes"/>
      <point x="391" y="0"/>
      <point x="391" y="69"/>
      <point x="404" y="69" type="qcurve" smooth="yes"/>
      <point x="568" y="69"/>
      <point x="568" y="186" type="qcurve" smooth="yes"/>
      <point x="568" y="471" type="line"/>
      <point x="567" y="471" type="line"/>
      <point x="221" y="471" type="line" smooth="yes"/>
      <point x="206" y="471"/>
      <point x="206" y="571"/>
      <point x="221" y="571" type="qcurve" smooth="yes"/>
      <point x="562" y="571" type="line"/>
      <point x="555" y="610"/>
      <point x="540" y="634" type="qcurve" smooth="yes"/>
      <point x="478" y="737" type="line"/>
      <point x="221" y="737" type="line" smooth="yes"/>
      <point x="206" y="737"/>
      <point x="206" y="838"/>
      <point x="221" y="838" type="qcurve" smooth="yes"/>
      <point x="416" y="838" type="line"/>
      <point x="214" y="1172" type="line" smooth="yes"/>
      <point x="144" y="1287"/>
      <point x="26" y="1287" type="qcurve" smooth="yes"/>
      <point x="13" y="1287"/>
      <point x="13" y="1358"/>
      <point x="26" y="1358" type="qcurve" smooth="yes"/>
      <point x="502" y="1358" type="line" smooth="yes"/>
      <point x="515" y="1358"/>
      <point x="515" y="1287"/>
      <point x="502" y="1287" type="qcurve" smooth="yes"/>
      <point x="381" y="1287"/>
      <point x="381" y="1230" type="qcurve" smooth="yes"/>
      <point x="381" y="1207"/>
      <point x="402" y="1172" type="qcurve" smooth="yes"/>
      <point x="683" y="700" type="line" smooth="yes"/>
      <point x="691" y="686"/>
      <point x="706" y="686"/>
      <point x="715" y="700" type="qcurve" smooth="yes"/>
      <point x="1013" y="1163" type="line" smooth="yes"/>
      <point x="1040" y="1205"/>
      <point x="1040" y="1234" type="qcurve" smooth="yes"/>
      <point x="1040" y="1287"/>
      <point x="929" y="1287" type="qcurve" smooth="yes"/>
      <point x="915" y="1287"/>
      <point x="915" y="1358"/>
      <point x="929" y="1358" type="qcurve" smooth="yes"/>
      <point x="1324" y="1358" type="line" smooth="yes"/>
      <point x="1337" y="1358"/>
      <point x="1337" y="1287"/>
      <point x="1324" y="1287" type="qcurve" smooth="yes"/>
      <point x="1186" y="1287"/>
      <point x="1114" y="1178" type="qcurve" smooth="yes"/>
      <point x="892" y="838" type="line"/>
      <point x="1096" y="838" type="line" smooth="yes"/>
      <point x="1111" y="838"/>
      <point x="1111" y="737"/>
      <point x="1096" y="737" type="qcurve" smooth="yes"/>
      <point x="826" y="737" type="line"/>
      <point x="805" y="705" type="line" smooth="yes"/>
      <point x="740" y="605"/>
      <point x="734" y="576" type="qcurve" smooth="yes"/>
      <point x="734" y="574"/>
      <point x="733" y="571" type="qcurve"/>
    </contour>
  </outline>
</glyph>
<glyph name="section" format="1">
  <advance width="956"/>
  <unicode hex="00A7"/>
  <outline>
    <contour>
      <point x="879" y="481" type="qcurve" smooth="yes"/>
      <point x="879" y="286"/>
      <point x="696" y="182" type="qcurve"/>
      <point x="827" y="81"/>
      <point x="827" y="-203"/>
      <point x="603" y="-403"/>
      <point x="457" y="-403" type="qcurve" smooth="yes"/>
      <point x="359" y="-403"/>
      <point x="119" y="-307"/>
      <point x="119" y="-231" type="qcurve" smooth="yes"/>
      <point x="119" y="-209"/>
      <point x="186" y="-154"/>
      <point x="225" y="-154"/>
      <point x="373.041" y="-326"/>
      <point x="568" y="-326"/>
      <point x="676" y="-190"/>
      <point x="676" y="0"/>
      <point x="524" y="102" type="qcurve"/>
      <point x="246" y="279" type="line"/>
      <point x="94" y="393"/>
      <point x="94" y="530" type="qcurve" smooth="yes"/>
      <point x="94" y="625"/>
      <point x="145" y="711" type="qcurve" smooth="yes"/>
      <point x="198" y="800"/>
      <point x="285" y="834" type="qcurve"/>
      <point x="170" y="936"/>
      <point x="170" y="1198"/>
      <point x="372" y="1380"/>
      <point x="510" y="1380" type="qcurve" smooth="yes"/>
      <point x="593" y="1380"/>
      <point x="788" y="1305"/>
      <point x="788" y="1243" type="qcurve" smooth="yes"/>
      <point x="788" y="1214"/>
      <point x="731" y="1165"/>
      <point x="711" y="1165" type="qcurve" smooth="yes"/>
      <point x="701" y="1165"/>
      <point x="566" y="1303"/>
      <point x="485" y="1303" type="qcurve" smooth="yes"/>
      <point x="418" y="1303"/>
      <point x="305" y="1200"/>
      <point x="305" y="1014"/>
      <point x="455" y="920" type="qcurve" smooth="yes"/>
      <point x="729" y="748" type="line"/>
      <point x="879" y="631"/>
    </contour>
    <contour>
      <point x="754" y="428" type="qcurve" smooth="yes"/>
      <point x="754" y="551"/>
      <point x="530" y="676" type="qcurve" smooth="yes"/>
      <point x="419" y="738"/>
      <point x="336" y="797" type="qcurve"/>
      <point x="215" y="725"/>
      <point x="215" y="502"/>
      <point x="307" y="442" type="qcurve" smooth="yes"/>
      <point x="641" y="223" type="line"/>
      <point x="754" y="302"/>
    </contour>
  </outline>
</glyph>
<glyph name="copyright" format="1">
  <advance width="1442"/>
  <unicode hex="00A9"/>
  <outline>
    <contour>
      <point x="347" y="860"/>
      <point x="452" y="1041"/>
      <point x="620" y="1143"/>
      <point x="743" y="1143" type="qcurve" smooth="yes"/>
      <point x="789" y="1143"/>
      <point x="972" y="1111"/>
      <point x="974" y="1111" type="qcurve"/>
      <point x="989" y="1037"/>
      <point x="989" y="940" type="qcurve" smooth="yes"/>
      <point x="989" y="931"/>
      <point x="954" y="931"/>
      <point x="952" y="939" type="qcurve"/>
      <point x="937" y="1104"/>
      <point x="728" y="1104" type="qcurve" smooth="yes"/>
      <point x="616" y="1104"/>
      <point x="452" y="901"/>
      <point x="452" y="614"/>
      <point x="612" y="407"/>
      <point x="726" y="407" type="qcurve" smooth="yes"/>
      <point x="921" y="407"/>
      <point x="975" y="555" type="qcurve" smooth="yes"/>
      <point x="977" y="561"/>
      <point x="1004" y="561"/>
      <point x="1009" y="557" type="qcurve" smooth="yes"/>
      <point x="1011" y="555"/>
      <point x="1011" y="549" type="qcurve"/>
      <point x="990" y="444"/>
      <point x="962" y="401" type="qcurve"/>
      <point x="944" y="399"/>
      <point x="920" y="391" type="qcurve" smooth="yes"/>
      <point x="839" y="366"/>
      <point x="713" y="366" type="qcurve" smooth="yes"/>
      <point x="615" y="366"/>
      <point x="448" y="461"/>
      <point x="347" y="628"/>
    </contour>
    <contour>
      <point x="2" y="748" type="qcurve" smooth="yes"/>
      <point x="2" y="1047"/>
      <point x="424" y="1468"/>
      <point x="1022" y="1468"/>
      <point x="1444" y="1047"/>
      <point x="1444" y="449"/>
      <point x="1022" y="27"/>
      <point x="424" y="27"/>
      <point x="2" y="449"/>
    </contour>
    <contour>
      <point x="72" y="755" type="qcurve" smooth="yes"/>
      <point x="72" y="492"/>
      <point x="440" y="96"/>
      <point x="991" y="96"/>
      <point x="1374" y="479"/>
      <point x="1374" y="1018"/>
      <point x="993" y="1399"/>
      <point x="453" y="1399"/>
      <point x="72" y="1018"/>
    </contour>
  </outline>
</glyph>
<glyph name="ordfeminine" format="1">
  <advance width="516"/>
  <unicode hex="00AA"/>
  <outline>
    <contour>
      <point x="38" y="621" type="qcurve" smooth="yes"/>
      <point x="38" y="694"/>
      <point x="165" y="760" type="qcurve"/>
      <point x="256" y="803" type="line"/>
      <point x="277" y="815"/>
      <point x="277" y="831" type="qcurve" smooth="yes"/>
      <point x="277" y="945" type="line" smooth="yes"/>
      <point x="277" y="988"/>
      <point x="167" y="988"/>
      <point x="144" y="958" type="qcurve" smooth="yes"/>
      <point x="139" y="950"/>
      <point x="138" y="892"/>
      <point x="135" y="882" type="qcurve" smooth="yes"/>
      <point x="120" y="829"/>
      <point x="80" y="829" type="qcurve" smooth="yes"/>
      <point x="26" y="829"/>
      <point x="26" y="916"/>
      <point x="59" y="962" type="qcurve" smooth="yes"/>
      <point x="78" y="988"/>
      <point x="98" y="1001" type="qcurve" smooth="yes"/>
      <point x="170" y="1046"/>
      <point x="257" y="1046" type="qcurve" smooth="yes"/>
      <point x="322" y="1046"/>
      <point x="413" y="988"/>
      <point x="414" y="948" type="qcurve"/>
      <point x="414" y="643" type="line" smooth="yes"/>
      <point x="414" y="575"/>
      <point x="454" y="575" type="qcurve" smooth="yes"/>
      <point x="472" y="575"/>
      <point x="497" y="597" type="qcurve" smooth="yes"/>
      <point x="499" y="599"/>
      <point x="502.5" y="599" type="qcurve" smooth="yes"/>
      <point x="506" y="599"/>
      <point x="521" y="585"/>
      <point x="521" y="578"/>
      <point x="519" y="574" type="qcurve" smooth="yes"/>
      <point x="485" y="509"/>
      <point x="406" y="509" type="qcurve" smooth="yes"/>
      <point x="351" y="509"/>
      <point x="308" y="558" type="qcurve"/>
      <point x="300" y="570"/>
      <point x="288" y="570"/>
      <point x="279" y="559" type="qcurve"/>
      <point x="230" y="510"/>
      <point x="101" y="510"/>
      <point x="38" y="572"/>
    </contour>
    <contour>
      <point x="176" y="647" type="qcurve" smooth="yes"/>
      <point x="176" y="577"/>
      <point x="219" y="577" type="qcurve" smooth="yes"/>
      <point x="277" y="577"/>
      <point x="277" y="640" type="qcurve" smooth="yes"/>
      <point x="277" y="749" type="line" smooth="yes"/>
      <point x="277" y="763"/>
      <point x="268" y="763" type="qcurve" smooth="yes"/>
      <point x="264" y="763"/>
      <point x="260" y="761" type="qcurve" smooth="yes"/>
      <point x="176" y="718"/>
    </contour>
  </outline>
</glyph>
<glyph name="guillemotleft" format="1">
  <advance width="789"/>
  <unicode hex="00AB"/>
  <outline>
    <contour>
      <point x="419" y="104" type="line" smooth="yes"/>
      <point x="423" y="99"/>
      <point x="423" y="84"/>
      <point x="402" y="65"/>
      <point x="387" y="65"/>
      <point x="382" y="70" type="qcurve" smooth="yes"/>
      <point x="83" y="382" type="line" smooth="yes"/>
      <point x="59" y="407"/>
      <point x="59" y="463"/>
      <point x="83" y="488" type="qcurve" smooth="yes"/>
      <point x="382" y="800" type="line" smooth="yes"/>
      <point x="387" y="805"/>
      <point x="393.5" y="805" type="qcurve" smooth="yes"/>
      <point x="400" y="805"/>
      <point x="422" y="788"/>
      <point x="422" y="779" type="qcurve" smooth="yes"/>
      <point x="422" y="775"/>
      <point x="419" y="770" type="qcurve" smooth="yes"/>
      <point x="222" y="476" type="line" smooth="yes"/>
      <point x="210" y="458"/>
      <point x="210" y="412"/>
      <point x="222" y="394" type="qcurve" smooth="yes"/>
    </contour>
    <contour>
      <point x="726" y="104" type="line" smooth="yes"/>
      <point x="729.634" y="98.4105"/>
      <point x="729.634" y="92.75" type="qcurve" smooth="yes"/>
      <point x="729.634" y="83.2221"/>
      <point x="708.552" y="64.7643"/>
      <point x="701.365" y="64.7643" type="qcurve" smooth="yes"/>
      <point x="694.178" y="64.7643"/>
      <point x="689" y="70" type="qcurve" smooth="yes"/>
      <point x="390" y="382" type="line" smooth="yes"/>
      <point x="366" y="407"/>
      <point x="366" y="463"/>
      <point x="390" y="488" type="qcurve" smooth="yes"/>
      <point x="689" y="800" type="line" smooth="yes"/>
      <point x="693.781" y="804.839"/>
      <point x="700.695" y="804.839" type="qcurve" smooth="yes"/>
      <point x="707.608" y="804.839"/>
      <point x="729.054" y="787.881"/>
      <point x="729.054" y="779.184" type="qcurve" smooth="yes"/>
      <point x="729.054" y="774.531"/>
      <point x="726" y="770" type="qcurve" smooth="yes"/>
      <point x="529" y="476" type="line" smooth="yes"/>
      <point x="517" y="458"/>
      <point x="517" y="412"/>
      <point x="529" y="394" type="qcurve" smooth="yes"/>
    </contour>
  </outline>
</glyph>
<glyph name="logicalnot" format="1">
  <advance width="1366"/>
  <unicode hex="00AC"/>
  <outline>
    <contour>
      <point x="1366" y="0" type="line"/>
      <point x="1243" y="0" type="line"/>
      <point x="1243" y="537" type="line"/>
      <point x="0" y="537" type="line"/>
      <point x="0" y="657" type="line"/>
      <point x="1366" y="657" type="line"/>
    </contour>
  </outline>
</glyph>
<glyph name="uni00AD" format="1">
  <advance width="827"/>
  <unicode hex="00AD"/>
  <outline>
    <contour>
      <point x="707" y="602" type="line" smooth="yes"/>
      <point x="723" y="602"/>
      <point x="723" y="487"/>
      <point x="705" y="487" type="qcurve" smooth="yes"/>
      <point x="115" y="487" type="line" smooth="yes"/>
      <point x="100" y="487"/>
      <point x="100" y="602"/>
      <point x="115" y="602" type="qcurve" smooth="yes"/>
    </contour>
  </outline>
</glyph>
<glyph name="registered" format="1">
  <advance width="1524"/>
  <unicode hex="00AE"/>
  <outline>
    <contour>
      <point x="527" y="487" type="qcurve" smooth="yes"/>
      <point x="527" y="1020" type="line" smooth="yes"/>
      <point x="527" y="1079"/>
      <point x="425" y="1079" type="qcurve" smooth="yes"/>
      <point x="418" y="1079"/>
      <point x="418" y="1120"/>
      <point x="425" y="1120" type="qcurve" smooth="yes"/>
      <point x="488" y="1118"/>
      <point x="592" y="1118"/>
      <point x="696" y="1120"/>
      <point x="729" y="1120" type="qcurve" smooth="yes"/>
      <point x="853" y="1120"/>
      <point x="994" y="1016"/>
      <point x="994" y="918" type="qcurve" smooth="yes"/>
      <point x="994" y="768"/>
      <point x="850" y="730" type="qcurve" smooth="yes"/>
      <point x="843" y="728"/>
      <point x="843" y="713"/>
      <point x="850" y="700" type="qcurve" smooth="yes"/>
      <point x="934" y="550"/>
      <point x="1044" y="452" type="qcurve"/>
      <point x="1111" y="395"/>
      <point x="1145" y="395" type="qcurve" smooth="yes"/>
      <point x="1152" y="395"/>
      <point x="1152" y="376"/>
      <point x="1145" y="376" type="qcurve" smooth="yes"/>
      <point x="1114" y="374"/>
      <point x="1108" y="374" type="qcurve" smooth="yes"/>
      <point x="1020" y="374"/>
      <point x="978" y="403" type="qcurve" smooth="yes"/>
      <point x="912" y="449"/>
      <point x="864" y="512" type="qcurve"/>
      <point x="770" y="650" type="line" smooth="yes"/>
      <point x="744" y="688"/>
      <point x="714" y="709"/>
      <point x="654" y="709"/>
      <point x="632" y="712"/>
      <point x="621" y="712"/>
      <point x="614" y="706"/>
      <point x="614" y="700" type="qcurve" smooth="yes"/>
      <point x="614" y="487" type="line" smooth="yes"/>
      <point x="614" y="424"/>
      <point x="718" y="424" type="qcurve" smooth="yes"/>
      <point x="726" y="424"/>
      <point x="726" y="384"/>
      <point x="718" y="383" type="qcurve"/>
      <point x="676" y="387"/>
      <point x="472" y="387"/>
      <point x="430" y="383" type="qcurve" smooth="yes"/>
      <point x="423" y="383"/>
      <point x="423" y="424"/>
      <point x="430" y="424" type="qcurve" smooth="yes"/>
      <point x="527" y="424"/>
    </contour>
    <contour>
      <point x="614" y="768" type="line" smooth="yes"/>
      <point x="614" y="751"/>
      <point x="655" y="742"/>
      <point x="692" y="742" type="qcurve" smooth="yes"/>
      <point x="901" y="742"/>
      <point x="901" y="918" type="qcurve" smooth="yes"/>
      <point x="901" y="989"/>
      <point x="788" y="1087"/>
      <point x="687" y="1087" type="qcurve" smooth="yes"/>
      <point x="639" y="1087" type="line" smooth="yes"/>
      <point x="614" y="1087"/>
      <point x="614" y="1070" type="qcurve" smooth="yes"/>
    </contour>
    <contour>
      <point x="1444" y="748" type="qcurve" smooth="yes"/>
      <point x="1444" y="449"/>
      <point x="1022" y="27"/>
      <point x="424" y="27"/>
      <point x="2" y="449"/>
      <point x="2" y="1047"/>
      <point x="424" y="1468"/>
      <point x="1022" y="1468"/>
      <point x="1444" y="1047"/>
    </contour>
    <contour>
      <point x="1374" y="748" type="qcurve" smooth="yes"/>
      <point x="1374" y="1018"/>
      <point x="993" y="1399"/>
      <point x="453" y="1399"/>
      <point x="72" y="1018"/>
      <point x="72" y="489"/>
      <point x="443" y="96"/>
      <point x="991" y="96"/>
      <point x="1374" y="478"/>
    </contour>
  </outline>
</glyph>
<glyph name="degree" format="1">
  <advance width="713"/>
  <unicode hex="00B0"/>
  <outline>
    <contour>
      <point x="82" y="1047" type="qcurve" smooth="yes"/>
      <point x="82" y="1166"/>
      <point x="244" y="1311"/>
      <point x="368" y="1311" type="qcurve" smooth="yes"/>
      <point x="472" y="1311"/>
      <point x="631" y="1164"/>
      <point x="631" y="1032" type="qcurve" smooth="yes"/>
      <point x="631" y="926"/>
      <point x="475" y="782"/>
      <point x="342" y="782" type="qcurve" smooth="yes"/>
      <point x="229" y="782"/>
      <point x="82" y="936"/>
    </contour>
    <contour>
      <point x="197" y="1047" type="qcurve" smooth="yes"/>
      <point x="197" y="968"/>
      <point x="279" y="854"/>
      <point x="372" y="854" type="qcurve" smooth="yes"/>
      <point x="425" y="854"/>
      <point x="470.5" y="908.5" type="qcurve" smooth="yes"/>
      <point x="516" y="962"/>
      <point x="516" y="1066" type="qcurve" smooth="yes"/>
      <point x="516" y="1120"/>
      <point x="436" y="1239"/>
      <point x="340" y="1239" type="qcurve" smooth="yes"/>
      <point x="286" y="1239"/>
      <point x="197" y="1130"/>
    </contour>
  </outline>
</glyph>
<glyph name="uni00B3" format="1">
  <advance width="630"/>
  <unicode hex="00B3"/>
  <outline>
    <contour>
      <point x="538" y="778" type="qcurve" smooth="yes"/>
      <point x="538" y="674"/>
      <point x="464" y="597" type="qcurve" smooth="yes"/>
      <point x="378" y="508"/>
      <point x="247" y="508" type="qcurve" smooth="yes"/>
      <point x="161" y="508"/>
      <point x="108" y="538" type="qcurve" smooth="yes"/>
      <point x="61" y="564"/>
      <point x="60" y="608" type="qcurve"/>
      <point x="60" y="666"/>
      <point x="133" y="666" type="qcurve" smooth="yes"/>
      <point x="160" y="666"/>
      <point x="189" y="633" type="qcurve"/>
      <point x="219" y="597" type="line"/>
      <point x="247" y="569"/>
      <point x="279" y="569" type="qcurve" smooth="yes"/>
      <point x="340" y="569"/>
      <point x="372" y="649" type="qcurve" smooth="yes"/>
      <point x="392" y="701"/>
      <point x="392" y="763" type="qcurve" smooth="yes"/>
      <point x="392" y="843"/>
      <point x="343" y="889" type="qcurve"/>
      <point x="304" y="927"/>
      <point x="245" y="927" type="qcurve" smooth="yes"/>
      <point x="210" y="927"/>
      <point x="181" y="916" type="qcurve"/>
      <point x="164" y="916"/>
      <point x="164" y="950" type="qcurve" smooth="yes"/>
      <point x="164" y="981"/>
      <point x="177" y="981" type="qcurve" smooth="yes"/>
      <point x="269" y="981"/>
      <point x="322" y="1031" type="qcurve" smooth="yes"/>
      <point x="363" y="1070"/>
      <point x="363" y="1127" type="qcurve" smooth="yes"/>
      <point x="363" y="1187"/>
      <point x="330" y="1221" type="qcurve" smooth="yes"/>
      <point x="307" y="1245"/>
      <point x="272" y="1245" type="qcurve" smooth="yes"/>
      <point x="217" y="1245"/>
      <point x="171" y="1195" type="qcurve" smooth="yes"/>
      <point x="153" y="1175"/>
      <point x="138" y="1152" type="qcurve" smooth="yes"/>
      <point x="135" y="1146"/>
      <point x="128" y="1146" type="qcurve" smooth="yes"/>
      <point x="120" y="1146"/>
      <point x="108" y="1156" type="qcurve" smooth="yes"/>
      <point x="97" y="1164"/>
      <point x="97" y="1172" type="qcurve" smooth="yes"/>
      <point x="97" y="1175"/>
      <point x="99" y="1179" type="qcurve" smooth="yes"/>
      <point x="156" y="1264"/>
      <point x="208" y="1294" type="qcurve" smooth="yes"/>
      <point x="255" y="1322"/>
      <point x="312" y="1322" type="qcurve" smooth="yes"/>
      <point x="392" y="1322"/>
      <point x="447" y="1266" type="qcurve" smooth="yes"/>
      <point x="498" y="1214"/>
      <point x="498" y="1141" type="qcurve" smooth="yes"/>
      <point x="498" y="1038"/>
      <point x="394" y="978" type="qcurve"/>
      <point x="538" y="936"/>
    </contour>
  </outline>
</glyph>
<glyph name="uni00B5" format="1">
  <advance width="1106"/>
  <unicode hex="00B5"/>
  <outline>
    <contour>
      <point x="928" y="256" type="line" smooth="yes"/>
      <point x="928" y="127"/>
      <point x="980" y="84.5"/>
      <point x="1006" y="84.5" type="qcurve" smooth="yes"/>
      <point x="1033.71" y="84.5"/>
      <point x="1055" y="88"/>
      <point x="1063" y="88" type="qcurve" smooth="yes"/>
      <point x="1071" y="88"/>
      <point x="1079" y="57"/>
      <point x="1079" y="44" type="qcurve" smooth="yes"/>
      <point x="1079" y="33"/>
      <point x="1069" y="31" type="qcurve" smooth="yes"/>
      <point x="915" y="3"/>
      <point x="797" y="-31" type="qcurve"/>
      <point x="774" y="-31"/>
      <point x="774" y="16" type="qcurve" smooth="yes"/>
      <point x="774" y="57" type="line" smooth="yes"/>
      <point x="774" y="87"/>
      <point x="751" y="87"/>
      <point x="733" y="70" type="qcurve" smooth="yes"/>
      <point x="631" y="-23"/>
      <point x="457" y="-23" type="qcurve" smooth="yes"/>
      <point x="373" y="-23"/>
      <point x="313" y="16" type="qcurve"/>
      <point x="305" y="-46"/>
      <point x="305" y="-198"/>
      <point x="313" y="-322"/>
      <point x="313" y="-385" type="qcurve" smooth="yes"/>
      <point x="313" y="-492"/>
      <point x="213" y="-492" type="qcurve" smooth="yes"/>
      <point x="125" y="-492"/>
      <point x="125" y="-300"/>
      <point x="174" y="26"/>
      <point x="174" y="299" type="qcurve" smooth="yes"/>
      <point x="174" y="638" type="line" smooth="yes"/>
      <point x="174" y="785"/>
      <point x="63" y="785" type="qcurve" smooth="yes"/>
      <point x="46" y="785"/>
      <point x="46" y="841"/>
      <point x="63" y="841" type="qcurve" smooth="yes"/>
      <point x="127" y="841"/>
      <point x="312" y="859"/>
      <point x="336" y="859"/>
      <point x="336" y="839"/>
      <point x="328" y="735"/>
      <point x="328" y="671" type="qcurve" smooth="yes"/>
      <point x="328" y="252" type="line" smooth="yes"/>
      <point x="328" y="66"/>
      <point x="496" y="66" type="qcurve" smooth="yes"/>
      <point x="774" y="66"/>
      <point x="774" y="285" type="qcurve" smooth="yes"/>
      <point x="774" y="638" type="line" smooth="yes"/>
      <point x="774" y="785"/>
      <point x="664" y="785" type="qcurve" smooth="yes"/>
      <point x="648" y="785"/>
      <point x="648" y="841"/>
      <point x="664" y="841" type="qcurve" smooth="yes"/>
      <point x="732" y="841"/>
      <point x="899" y="859"/>
      <point x="934" y="859"/>
      <point x="934" y="832"/>
      <point x="928" y="729"/>
      <point x="928" y="673" type="qcurve" smooth="yes"/>
    </contour>
  </outline>
</glyph>
<glyph name="paragraph" format="1">
  <advance width="997"/>
  <unicode hex="00B6"/>
  <outline>
    <contour>
      <point x="836" y="127" type="line" smooth="yes"/>
      <point x="836" y="49"/>
      <point x="954" y="49" type="qcurve" smooth="yes"/>
      <point x="968" y="49"/>
      <point x="968" y="1"/>
      <point x="954" y="1" type="qcurve" smooth="yes"/>
      <point x="371" y="1" type="line" smooth="yes"/>
      <point x="357" y="1"/>
      <point x="357" y="49"/>
      <point x="371" y="49" type="qcurve" smooth="yes"/>
      <point x="487" y="49"/>
      <point x="487" y="125" type="qcurve" smooth="yes"/>
      <point x="487" y="492.066" type="line" smooth="yes"/>
      <point x="487" y="539.479"/>
      <point x="436.167" y="542.442" type="qcurve" smooth="yes"/>
      <point x="217.109" y="555.211"/>
      <point x="16" y="763"/>
      <point x="16" y="1095"/>
      <point x="267" y="1275"/>
      <point x="453" y="1275" type="qcurve" smooth="yes"/>
      <point x="954" y="1275" type="line" smooth="yes"/>
      <point x="968" y="1275"/>
      <point x="968" y="1218"/>
      <point x="954" y="1218" type="qcurve" smooth="yes"/>
      <point x="836" y="1218"/>
      <point x="836" y="1141" type="qcurve" smooth="yes"/>
    </contour>
    <contour>
      <point x="743" y="125" type="qcurve" smooth="yes"/>
      <point x="743" y="1141" type="line" smooth="yes"/>
      <point x="743" y="1215"/>
      <point x="580" y="1215"/>
      <point x="580" y="1141" type="qcurve" smooth="yes"/>
      <point x="580" y="127" type="line" smooth="yes"/>
      <point x="580" y="49"/>
      <point x="743" y="49"/>
    </contour>
  </outline>
</glyph>
<glyph name="periodcentered" format="1">
  <advance width="745"/>
  <unicode hex="00B7"/>
  <outline>
    <contour>
      <point x="238" y="623" type="qcurve" smooth="yes"/>
      <point x="238" y="674"/>
      <point x="310" y="736"/>
      <point x="420" y="736"/>
      <point x="480" y="662"/>
      <point x="480" y="561"/>
      <point x="411" y="500"/>
      <point x="305" y="500"/>
      <point x="238" y="572"/>
    </contour>
  </outline>
</glyph>
<glyph name="cedilla" format="1">
  <advance width="737"/>
  <unicode hex="00B8"/>
  <outline>
    <contour>
      <point x="406" y="0" type="line"/>
      <point x="479" y="0" type="line"/>
      <point x="421" y="-80" type="line" smooth="yes"/>
      <point x="416" y="-87"/>
      <point x="416" y="-94.5" type="qcurve" smooth="yes"/>
      <point x="416" y="-102"/>
      <point x="427" y="-110" type="qcurve" smooth="yes"/>
      <point x="535" y="-183"/>
      <point x="535" y="-268" type="qcurve" smooth="yes"/>
      <point x="535" y="-353"/>
      <point x="401" y="-453"/>
      <point x="322" y="-453" type="qcurve" smooth="yes"/>
      <point x="203" y="-453"/>
      <point x="203" y="-381" type="qcurve" smooth="yes"/>
      <point x="203" y="-328"/>
      <point x="254" y="-328" type="qcurve" smooth="yes"/>
      <point x="277" y="-328"/>
      <point x="348" y="-387"/>
      <point x="362" y="-387" type="qcurve" smooth="yes"/>
      <point x="418" y="-387"/>
      <point x="418" y="-319.5" type="qcurve" smooth="yes"/>
      <point x="418" y="-252"/>
      <point x="312" y="-196" type="qcurve" smooth="yes"/>
      <point x="293" y="-186"/>
      <point x="293" y="-176.5" type="qcurve" smooth="yes"/>
      <point x="293" y="-167"/>
      <point x="298" y="-159" type="qcurve" smooth="yes"/>
    </contour>
  </outline>
</glyph>
<glyph name="ordmasculine" format="1">
  <advance width="619"/>
  <unicode hex="00BA"/>
  <outline>
    <contour>
      <point x="40" y="771" type="qcurve" smooth="yes"/>
      <point x="40" y="880"/>
      <point x="185" y="1046"/>
      <point x="441" y="1046"/>
      <point x="581" y="878"/>
      <point x="581" y="655"/>
      <point x="437" y="510"/>
      <point x="200" y="510"/>
      <point x="40" y="662"/>
    </contour>
    <contour>
      <point x="191" y="768" type="qcurve" smooth="yes"/>
      <point x="191" y="664"/>
      <point x="266" y="561"/>
      <point x="366" y="561"/>
      <point x="429" y="688"/>
      <point x="429" y="886"/>
      <point x="354" y="1000"/>
      <point x="262" y="1000"/>
      <point x="191" y="872"/>
    </contour>
  </outline>
</glyph>
<glyph name="guillemotright" format="1">
  <advance width="789"/>
  <unicode hex="00BB"/>
  <outline>
    <contour>
      <point x="364" y="786"/>
      <point x="385" y="805"/>
      <point x="400" y="805"/>
      <point x="405" y="800" type="qcurve" smooth="yes"/>
      <point x="704" y="488" type="line" smooth="yes"/>
      <point x="728" y="463"/>
      <point x="728" y="407"/>
      <point x="704" y="382" type="qcurve" smooth="yes"/>
      <point x="405" y="70" type="line" smooth="yes"/>
      <point x="400" y="65"/>
      <point x="393.5" y="65" type="qcurve" smooth="yes"/>
      <point x="387" y="65"/>
      <point x="365" y="82"/>
      <point x="365" y="91" type="qcurve" smooth="yes"/>
      <point x="365" y="95"/>
      <point x="368" y="100" type="qcurve" smooth="yes"/>
      <point x="565" y="394" type="line" smooth="yes"/>
      <point x="577" y="412"/>
      <point x="577" y="458"/>
      <point x="565" y="476" type="qcurve" smooth="yes"/>
      <point x="368" y="766" type="line" smooth="yes"/>
      <point x="364" y="771"/>
    </contour>
    <contour>
      <point x="57" y="777" type="qcurve" smooth="yes"/>
      <point x="57" y="787"/>
      <point x="78" y="805"/>
      <point x="85" y="805" type="qcurve" smooth="yes"/>
      <point x="92" y="805"/>
      <point x="98" y="800" type="qcurve" smooth="yes"/>
      <point x="397" y="488" type="line" smooth="yes"/>
      <point x="421" y="463"/>
      <point x="421" y="407"/>
      <point x="397" y="382" type="qcurve" smooth="yes"/>
      <point x="98" y="70" type="line" smooth="yes"/>
      <point x="93" y="65"/>
      <point x="86" y="65" type="qcurve" smooth="yes"/>
      <point x="79" y="65"/>
      <point x="58" y="82"/>
      <point x="58" y="91" type="qcurve" smooth="yes"/>
      <point x="58" y="96"/>
      <point x="61" y="100" type="qcurve" smooth="yes"/>
      <point x="258" y="394" type="line" smooth="yes"/>
      <point x="270" y="412"/>
      <point x="270" y="458"/>
      <point x="258" y="476" type="qcurve" smooth="yes"/>
      <point x="61" y="766" type="line" smooth="yes"/>
      <point x="57" y="771"/>
    </contour>
  </outline>
</glyph>
<glyph name="onehalf" format="1">
  <advance width="1509"/>
  <unicode hex="00BD"/>
  <outline>
    <contour>
      <point x="1402" y="20" type="line" smooth="yes"/>
      <point x="1391" y="-4"/>
      <point x="1351" y="-4" type="qcurve" smooth="yes"/>
      <point x="1307" y="-4"/>
      <point x="1223" y="0"/>
      <point x="1191" y="0" type="qcurve" smooth="yes"/>
      <point x="1139" y="0" type="line"/>
      <point x="1087" y="-2"/>
      <point x="977" y="-4"/>
      <point x="917" y="-4" type="qcurve" smooth="yes"/>
      <point x="883" y="-4"/>
      <point x="883" y="26" type="qcurve" smooth="yes"/>
      <point x="883" y="40"/>
      <point x="896" y="52" type="qcurve" smooth="yes"/>
      <point x="1000" y="156"/>
      <point x="1100" y="292" type="qcurve" smooth="yes"/>
      <point x="1265" y="519"/>
      <point x="1265" y="635" type="qcurve" smooth="yes"/>
      <point x="1265" y="768"/>
      <point x="1154" y="768" type="qcurve" smooth="yes"/>
      <point x="1058" y="768"/>
      <point x="997" y="661" type="qcurve" smooth="yes"/>
      <point x="993" y="654"/>
      <point x="979" y="654"/>
      <point x="953" y="670"/>
      <point x="953" y="677" type="qcurve" smooth="yes"/>
      <point x="953" y="680"/>
      <point x="955" y="684" type="qcurve" smooth="yes"/>
      <point x="1008" y="787"/>
      <point x="1091" y="834" type="qcurve" smooth="yes"/>
      <point x="1145" y="864"/>
      <point x="1206" y="864" type="qcurve" smooth="yes"/>
      <point x="1312" y="864"/>
      <point x="1375" y="793" type="qcurve" smooth="yes"/>
      <point x="1431" y="730"/>
      <point x="1432" y="641" type="qcurve"/>
      <point x="1432" y="521"/>
      <point x="1253" y="317" type="qcurve" smooth="yes"/>
      <point x="1215" y="274"/>
      <point x="1065" y="125" type="qcurve"/>
      <point x="1257" y="125" type="line" smooth="yes"/>
      <point x="1332" y="125"/>
      <point x="1359" y="137" type="qcurve" smooth="yes"/>
      <point x="1388" y="150"/>
      <point x="1410" y="189" type="qcurve" smooth="yes"/>
      <point x="1414" y="197"/>
      <point x="1424" y="197" type="qcurve" smooth="yes"/>
      <point x="1433" y="197"/>
      <point x="1445" y="191" type="qcurve" smooth="yes"/>
      <point x="1466" y="181"/>
      <point x="1466" y="174" type="qcurve" smooth="yes"/>
      <point x="1466" y="172"/>
      <point x="1465" y="170" type="qcurve" smooth="yes"/>
    </contour>
    <contour>
      <point x="132" y="524" type="line" smooth="yes"/>
      <point x="122" y="524"/>
      <point x="122" y="567"/>
      <point x="132" y="567" type="qcurve" smooth="yes"/>
      <point x="246" y="567"/>
      <point x="246" y="705" type="qcurve" smooth="yes"/>
      <point x="246" y="1229" type="line" smooth="yes"/>
      <point x="246" y="1266"/>
      <point x="237" y="1266" type="qcurve" smooth="yes"/>
      <point x="230" y="1266"/>
      <point x="171" y="1245"/>
      <point x="128" y="1225" type="qcurve" smooth="yes"/>
      <point x="125" y="1224"/>
      <point x="122" y="1224" type="qcurve" smooth="yes"/>
      <point x="112" y="1224"/>
      <point x="108" y="1239" type="qcurve" smooth="yes"/>
      <point x="106" y="1247"/>
      <point x="106" y="1252" type="qcurve" smooth="yes"/>
      <point x="106" y="1261"/>
      <point x="113" y="1264" type="qcurve" smooth="yes"/>
      <point x="207" y="1303"/>
      <point x="339" y="1402" type="qcurve" smooth="yes"/>
      <point x="356" y="1415"/>
      <point x="371" y="1415" type="qcurve" smooth="yes"/>
      <point x="399" y="1415"/>
      <point x="399" y="1364"/>
      <point x="394" y="1314"/>
      <point x="394" y="1277" type="qcurve" smooth="yes"/>
      <point x="394" y="706" type="line" smooth="yes"/>
      <point x="394" y="568"/>
      <point x="500" y="567" type="qcurve" smooth="yes"/>
      <point x="510" y="567"/>
      <point x="510" y="524"/>
      <point x="500" y="524" type="qcurve" smooth="yes"/>
    </contour>
    <contour>
      <point x="1255" y="1389" type="qcurve" smooth="yes"/>
      <point x="364" y="35" type="line" smooth="yes"/>
      <point x="361" y="31"/>
      <point x="356" y="31" type="qcurve" smooth="yes"/>
      <point x="346" y="31"/>
      <point x="328" y="44" type="qcurve" smooth="yes"/>
      <point x="306" y="61"/>
      <point x="306" y="71" type="qcurve" smooth="yes"/>
      <point x="306" y="73"/>
      <point x="307" y="74" type="qcurve" smooth="yes"/>
      <point x="1195" y="1425" type="line" smooth="yes"/>
      <point x="1199" y="1431"/>
      <point x="1205" y="1431" type="qcurve" smooth="yes"/>
      <point x="1215" y="1431"/>
      <point x="1233" y="1419" type="qcurve" smooth="yes"/>
      <point x="1256" y="1404"/>
      <point x="1256" y="1394" type="qcurve" smooth="yes"/>
      <point x="1256" y="1391"/>
    </contour>
  </outline>
</glyph>
<glyph name="questiondown" format="1">
  <advance width="752"/>
  <unicode hex="00BF"/>
  <outline>
    <contour>
      <point x="513" y="-531" type="qcurve" smooth="yes"/>
      <point x="383" y="-531"/>
      <point x="151" y="-259"/>
      <point x="151" y="47"/>
      <point x="233" y="90" type="qcurve" smooth="yes"/>
      <point x="398" y="178" type="line"/>
      <point x="472" y="219"/>
      <point x="472" y="324"/>
      <point x="452" y="393" type="qcurve"/>
      <point x="452" y="412"/>
      <point x="474" y="412" type="qcurve" smooth="yes"/>
      <point x="489" y="412"/>
      <point x="497" y="405" type="qcurve"/>
      <point x="572" y="269"/>
      <point x="572" y="105"/>
      <point x="458" y="43" type="qcurve"/>
      <point x="353" y="-13" type="line" smooth="yes"/>
      <point x="237" y="-75"/>
      <point x="237" y="-164" type="qcurve" smooth="yes"/>
      <point x="237" y="-363"/>
      <point x="529" y="-363" type="qcurve" smooth="yes"/>
      <point x="597" y="-363"/>
      <point x="597" y="-531"/>
    </contour>
    <contour>
      <point x="349" y="744" type="qcurve" smooth="yes"/>
      <point x="349" y="794"/>
      <point x="419" y="867"/>
      <point x="521" y="867"/>
      <point x="587" y="791"/>
      <point x="587" y="685"/>
      <point x="517" y="623"/>
      <point x="414" y="623"/>
      <point x="349" y="694"/>
    </contour>
  </outline>
</glyph>
<glyph name="breve" format="1">
  <advance width="731"/>
  <unicode hex="02D8"/>
  <outline>
    <contour>
      <point x="638" y="1295" type="qcurve"/>
      <point x="638" y="1020"/>
      <point x="98" y="1020"/>
      <point x="98" y="1295" type="qcurve"/>
      <point x="106" y="1303"/>
      <point x="118" y="1303" type="qcurve" smooth="yes"/>
      <point x="128" y="1303"/>
      <point x="136" y="1295" type="qcurve"/>
      <point x="172" y="1131"/>
      <point x="368" y="1131" type="qcurve" smooth="yes"/>
      <point x="562" y="1131"/>
      <point x="600" y="1295" type="qcurve"/>
      <point x="608" y="1303"/>
      <point x="620" y="1303" type="qcurve" smooth="yes"/>
      <point x="630" y="1303"/>
    </contour>
  </outline>
</glyph>
<glyph name="tildecomb" format="1">
  <advance width="0"/>
  <unicode hex="0303"/>
  <outline>
    <contour>
      <point x="103" y="1050" type="qcurve" smooth="yes"/>
      <point x="54" y="1050"/>
      <point x="-34" y="1084" type="qcurve" smooth="yes"/>
      <point x="-110" y="1113"/>
      <point x="-151" y="1113" type="qcurve" smooth="yes"/>
      <point x="-205" y="1113"/>
      <point x="-266" y="1052" type="qcurve" smooth="yes"/>
      <point x="-270" y="1048"/>
      <point x="-278" y="1048"/>
      <point x="-282" y="1052" type="qcurve" smooth="yes"/>
      <point x="-291" y="1063"/>
      <point x="-291" y="1068" type="qcurve" smooth="yes"/>
      <point x="-291" y="1069"/>
      <point x="-290" y="1070" type="qcurve" smooth="yes"/>
      <point x="-198" y="1213"/>
      <point x="-89" y="1213" type="qcurve" smooth="yes"/>
      <point x="-45" y="1213"/>
      <point x="48" y="1180" type="qcurve" smooth="yes"/>
      <point x="120" y="1154"/>
      <point x="154" y="1154" type="qcurve" smooth="yes"/>
      <point x="211" y="1154"/>
      <point x="279" y="1222" type="qcurve" smooth="yes"/>
      <point x="280" y="1223"/>
      <point x="282" y="1223" type="qcurve" smooth="yes"/>
      <point x="287" y="1223"/>
      <point x="297" y="1215" type="qcurve" smooth="yes"/>
      <point x="307" y="1206"/>
      <point x="307" y="1195" type="qcurve" smooth="yes"/>
      <point x="307" y="1191"/>
      <point x="306" y="1187" type="qcurve" smooth="yes"/>
      <point x="292" y="1146"/>
      <point x="219" y="1097" type="qcurve" smooth="yes"/>
      <point x="148" y="1050"/>
    </contour>
  </outline>
</glyph>
<glyph name="uni0304" format="1">
  <advance width="0"/>
  <unicode hex="0304"/>
  <outline>
    <contour>
      <point x="226" y="1198" type="line" smooth="yes"/>
      <point x="254" y="1198"/>
      <point x="254" y="1104"/>
      <point x="222" y="1104" type="qcurve" smooth="yes"/>
      <point x="-224" y="1104" type="line" smooth="yes"/>
      <point x="-253" y="1104"/>
      <point x="-253" y="1198"/>
      <point x="-224" y="1198" type="qcurve" smooth="yes"/>
    </contour>
  </outline>
</glyph>
<glyph name="uni0342" format="1">
  <advance width="0"/>
  <unicode hex="0342"/>
  <outline>
    <contour>
      <point x="-400" y="980" type="move" name="_Anchor-2"/>
    </contour>
    <contour>
      <point x="-400" y="1200" type="move" name="Anchor-2"/>
    </contour>
    <contour>
      <point x="-400" y="900" type="move" name="_above"/>
    </contour>
    <contour>
      <point x="-307" y="1050" type="qcurve" smooth="yes"/>
      <point x="-356" y="1050"/>
      <point x="-444" y="1084" type="qcurve" smooth="yes"/>
      <point x="-520" y="1113"/>
      <point x="-561" y="1113" type="qcurve" smooth="yes"/>
      <point x="-615" y="1113"/>
      <point x="-676" y="1052" type="qcurve" smooth="yes"/>
      <point x="-680" y="1048"/>
      <point x="-688" y="1048"/>
      <point x="-692" y="1052" type="qcurve" smooth="yes"/>
      <point x="-701" y="1063"/>
      <point x="-701" y="1068" type="qcurve" smooth="yes"/>
      <point x="-701" y="1069"/>
      <point x="-700" y="1070" type="qcurve" smooth="yes"/>
      <point x="-608" y="1213"/>
      <point x="-499" y="1213" type="qcurve" smooth="yes"/>
      <point x="-455" y="1213"/>
      <point x="-362" y="1180" type="qcurve" smooth="yes"/>
      <point x="-290" y="1154"/>
      <point x="-256" y="1154" type="qcurve" smooth="yes"/>
      <point x="-199" y="1154"/>
      <point x="-131" y="1222" type="qcurve" smooth="yes"/>
      <point x="-130" y="1223"/>
      <point x="-128" y="1223" type="qcurve" smooth="yes"/>
      <point x="-123" y="1223"/>
      <point x="-113" y="1215" type="qcurve" smooth="yes"/>
      <point x="-103" y="1206"/>
      <point x="-103" y="1195" type="qcurve" smooth="yes"/>
      <point x="-103" y="1191"/>
      <point x="-104" y="1187" type="qcurve" smooth="yes"/>
      <point x="-118" y="1146"/>
      <point x="-191" y="1097" type="qcurve" smooth="yes"/>
      <point x="-262" y="1050"/>
    </contour>
  </outline>
</glyph>
<glyph name="uni0343" format="1">
  <advance width="0"/>
  <unicode hex="0343"/>
  <outline>
    <contour>
      <point x="-400" y="980" type="move" name="_Anchor-2"/>
    </contour>
    <contour>
      <point x="-400" y="1550" type="move" name="Anchor-2"/>
    </contour>
    <contour>
      <point x="-400" y="900" type="move" name="_above"/>
    </contour>
    <contour>
      <point x="-208" y="1305" type="qcurve" smooth="yes"/>
      <point x="-208" y="1115"/>
      <point x="-394" y="976" type="qcurve" smooth="yes"/>
      <point x="-422" y="955"/>
      <point x="-454" y="936" type="qcurve"/>
      <point x="-463" y="935" type="line"/>
      <point x="-478" y="940"/>
      <point x="-487" y="958" type="qcurve"/>
      <point x="-489" y="967" type="line"/>
      <point x="-487" y="969" type="line"/>
      <point x="-343" y="1074"/>
      <point x="-335" y="1204" type="qcurve"/>
      <point x="-335" y="1217" type="line" smooth="yes"/>
      <point x="-335" y="1256"/>
      <point x="-368" y="1273" type="qcurve"/>
      <point x="-406" y="1291" type="line"/>
      <point x="-469" y="1325"/>
      <point x="-470" y="1393" type="qcurve" smooth="yes"/>
      <point x="-470" y="1465"/>
      <point x="-397" y="1478" type="qcurve" smooth="yes"/>
      <point x="-383" y="1481"/>
      <point x="-368" y="1481" type="qcurve" smooth="yes"/>
      <point x="-292" y="1481"/>
      <point x="-243" y="1415" type="qcurve" smooth="yes"/>
      <point x="-208" y="1366"/>
    </contour>
  </outline>
</glyph>
<glyph name="uni0344" format="1">
  <advance width="0"/>
  <unicode hex="0344"/>
  <outline>
    <contour>
      <point x="-400" y="980" type="move" name="_Anchor-2"/>
    </contour>
    <contour>
      <point x="-400" y="1550" type="move" name="Anchor-2"/>
    </contour>
    <contour>
      <point x="-400" y="900" type="move" name="_above"/>
    </contour>
    <contour>
      <point x="-126" y="1050" type="qcurve" smooth="yes"/>
      <point x="-126" y="949"/>
      <point x="-218" y="949" type="qcurve" smooth="yes"/>
      <point x="-315" y="949"/>
      <point x="-316" y="1043" type="qcurve" smooth="yes"/>
      <point x="-316" y="1100"/>
      <point x="-270" y="1128" type="qcurve" smooth="yes"/>
      <point x="-247" y="1142"/>
      <point x="-218" y="1142" type="qcurve" smooth="yes"/>
      <point x="-167" y="1142"/>
      <point x="-140" y="1098" type="qcurve"/>
      <point x="-130" y="1075" type="line"/>
      <point x="-126" y="1063"/>
    </contour>
    <contour>
      <point x="-509" y="1050" type="qcurve" smooth="yes"/>
      <point x="-509" y="949"/>
      <point x="-603" y="949" type="qcurve" smooth="yes"/>
      <point x="-698" y="949"/>
      <point x="-699" y="1043" type="qcurve" smooth="yes"/>
      <point x="-699" y="1101"/>
      <point x="-653" y="1129" type="qcurve" smooth="yes"/>
      <point x="-631" y="1142"/>
      <point x="-603" y="1142" type="qcurve" smooth="yes"/>
      <point x="-553" y="1142"/>
      <point x="-524" y="1100" type="qcurve" smooth="yes"/>
      <point x="-510" y="1075"/>
    </contour>
    <contour>
      <point x="-191" y="1427" type="qcurve" smooth="yes"/>
      <point x="-370" y="1142" type="line" smooth="yes"/>
      <point x="-388" y="1113"/>
      <point x="-411" y="1113" type="qcurve" smooth="yes"/>
      <point x="-444" y="1113"/>
      <point x="-444" y="1150" type="qcurve" smooth="yes"/>
      <point x="-444" y="1162"/>
      <point x="-439" y="1172" type="qcurve" smooth="yes"/>
      <point x="-304" y="1479" type="line" smooth="yes"/>
      <point x="-298" y="1492"/>
      <point x="-279" y="1492" type="qcurve" smooth="yes"/>
      <point x="-245" y="1492"/>
      <point x="-209" y="1463" type="qcurve" smooth="yes"/>
      <point x="-189" y="1447"/>
      <point x="-189" y="1434" type="qcurve" smooth="yes"/>
      <point x="-189" y="1431"/>
    </contour>
  </outline>
</glyph>
<glyph name="uni0345" format="1">
  <advance width="0"/>
  <unicode hex="0345"/>
  <outline>
    <contour>
      <point x="-445" y="-505" type="qcurve" smooth="yes"/>
      <point x="-445" y="-482"/>
      <point x="-434" y="-442" type="qcurve" smooth="yes"/>
      <point x="-354" y="-163" type="line" smooth="yes"/>
      <point x="-348" y="-142"/>
      <point x="-314" y="-142" type="qcurve" smooth="yes"/>
      <point x="-288" y="-142"/>
      <point x="-272" y="-160"/>
      <point x="-272" y="-179" type="qcurve" smooth="yes"/>
      <point x="-272" y="-203"/>
      <point x="-366" y="-392"/>
      <point x="-372" y="-436" type="qcurve"/>
      <point x="-358" y="-430"/>
      <point x="-336" y="-431" type="qcurve" smooth="yes"/>
      <point x="-319" y="-431"/>
      <point x="-299" y="-458"/>
      <point x="-299" y="-473" type="qcurve" smooth="yes"/>
      <point x="-299" y="-508"/>
      <point x="-347" y="-569"/>
      <point x="-385" y="-569" type="qcurve" smooth="yes"/>
      <point x="-415" y="-569"/>
      <point x="-445" y="-539"/>
    </contour>
  </outline>
</glyph>
<glyph name="dieresistonos" format="1">
  <advance width="797"/>
  <unicode hex="0385"/>
  <outline>
    <contour>
      <point x="288" y="1156" type="qcurve" smooth="yes"/>
      <point x="288" y="1111"/>
      <point x="225" y="1048"/>
      <point x="136" y="1048"/>
      <point x="73" y="1111"/>
      <point x="73" y="1201"/>
      <point x="136" y="1264"/>
      <point x="225" y="1264"/>
      <point x="288" y="1201"/>
    </contour>
    <contour>
      <point x="754" y="1156" type="qcurve" smooth="yes"/>
      <point x="754" y="1111"/>
      <point x="691" y="1048"/>
      <point x="602" y="1048"/>
      <point x="539" y="1111"/>
      <point x="539" y="1201"/>
      <point x="602" y="1264"/>
      <point x="691" y="1264"/>
      <point x="754" y="1201"/>
    </contour>
    <contour>
      <point x="384" y="1148" type="qcurve" smooth="yes"/>
      <point x="370" y="1148"/>
      <point x="370" y="1168" type="qcurve" smooth="yes"/>
      <point x="370" y="1174"/>
      <point x="372" y="1181" type="qcurve" smooth="yes"/>
      <point x="447" y="1542" type="line" smooth="yes"/>
      <point x="463" y="1619"/>
      <point x="494" y="1620" type="qcurve" smooth="yes"/>
      <point x="517" y="1620"/>
      <point x="560" y="1556"/>
      <point x="560" y="1532" type="qcurve" smooth="yes"/>
      <point x="560" y="1498"/>
      <point x="524" y="1400" type="qcurve" smooth="yes"/>
      <point x="484" y="1290" type="line" smooth="yes"/>
      <point x="432" y="1148"/>
    </contour>
  </outline>
</glyph>
<glyph name="Alphatonos" format="1">
  <advance width="1398"/>
  <unicode hex="0386"/>
  <outline>
    <contour>
      <point x="1179.34" y="186" type="line"/>
      <point x="1218.34" y="69"/>
      <point x="1371.34" y="69" type="qcurve" smooth="yes"/>
      <point x="1384.34" y="69"/>
      <point x="1384.34" y="0"/>
      <point x="1371.34" y="0" type="qcurve" smooth="yes"/>
      <point x="910.336" y="0" type="line" smooth="yes"/>
      <point x="896.336" y="0"/>
      <point x="896.336" y="69"/>
      <point x="910.336" y="69" type="qcurve" smooth="yes"/>
      <point x="1009.34" y="69"/>
      <point x="1009.34" y="137" type="qcurve" smooth="yes"/>
      <point x="1009.34" y="160"/>
      <point x="1001.34" y="186" type="qcurve"/>
      <point x="904.336" y="464" type="line"/>
      <point x="895.336" y="495"/>
      <point x="860.336" y="495" type="qcurve" smooth="yes"/>
      <point x="446.336" y="495" type="line" smooth="yes"/>
      <point x="419.336" y="495"/>
      <point x="406.336" y="460" type="qcurve" smooth="yes"/>
      <point x="297.336" y="182" type="line" smooth="yes"/>
      <point x="288.336" y="160"/>
      <point x="288.336" y="142" type="qcurve" smooth="yes"/>
      <point x="288.336" y="69"/>
      <point x="438.336" y="69" type="qcurve" smooth="yes"/>
      <point x="452.336" y="69"/>
      <point x="452.336" y="0"/>
      <point x="438.336" y="0" type="qcurve" smooth="yes"/>
      <point x="13.3359" y="0" type="line" smooth="yes"/>
      <point x="-0.664062" y="0"/>
      <point x="-0.664062" y="69"/>
      <point x="13.3359" y="69" type="qcurve" smooth="yes"/>
      <point x="110.336" y="69"/>
      <point x="174.336" y="125"/>
      <point x="208.336" y="201" type="qcurve"/>
      <point x="585.336" y="1116" type="line" smooth="yes"/>
      <point x="591.336" y="1133"/>
      <point x="591.336" y="1159"/>
      <point x="565.336" y="1186"/>
      <point x="565.336" y="1198"/>
      <point x="644.336" y="1241"/>
      <point x="750.336" y="1315"/>
      <point x="762.336" y="1315" type="qcurve" smooth="yes"/>
      <point x="785.336" y="1315"/>
      <point x="797.336" y="1271" type="qcurve" smooth="yes"/>
      <point x="823.336" y="1174"/>
      <point x="846.336" y="1105" type="qcurve"/>
    </contour>
    <contour>
      <point x="837.336" y="564" type="line" smooth="yes"/>
      <point x="862.336" y="564"/>
      <point x="862.336" y="580" type="qcurve" smooth="yes"/>
      <point x="862.336" y="585"/>
      <point x="860.336" y="591" type="qcurve" smooth="yes"/>
      <point x="688.336" y="1087" type="line" smooth="yes"/>
      <point x="682.336" y="1107"/>
      <point x="658.336" y="1107"/>
      <point x="651.336" y="1087" type="qcurve" smooth="yes"/>
      <point x="457.336" y="591" type="line" smooth="yes"/>
      <point x="455.336" y="586"/>
      <point x="455.336" y="580" type="qcurve" smooth="yes"/>
      <point x="455.336" y="564"/>
      <point x="479.336" y="564" type="qcurve" smooth="yes"/>
    </contour>
    <contour>
      <point x="123.336" y="1028" type="qcurve" smooth="yes"/>
      <point x="109.336" y="1028"/>
      <point x="109.336" y="1049" type="qcurve" smooth="yes"/>
      <point x="109.336" y="1056"/>
      <point x="111.336" y="1062" type="qcurve" smooth="yes"/>
      <point x="222.336" y="1542" type="line" smooth="yes"/>
      <point x="240.336" y="1619"/>
      <point x="269.336" y="1620" type="qcurve" smooth="yes"/>
      <point x="292.336" y="1620"/>
      <point x="335.336" y="1556"/>
      <point x="335.336" y="1508"/>
      <point x="299.336" y="1400" type="qcurve" smooth="yes"/>
      <point x="223.336" y="1170" type="line" smooth="yes"/>
      <point x="176.336" y="1028"/>
    </contour>
  </outline>
</glyph>
<glyph name="anoteleia" format="1">
  <advance width="745"/>
  <unicode hex="0387"/>
  <outline>
    <contour>
      <point x="366" y="737" type="qcurve" smooth="yes"/>
      <point x="430" y="737"/>
      <point x="463" y="682" type="qcurve" smooth="yes"/>
      <point x="481" y="652"/>
      <point x="481" y="614" type="qcurve" smooth="yes"/>
      <point x="481" y="551"/>
      <point x="430" y="518" type="qcurve" smooth="yes"/>
      <point x="401" y="499"/>
      <point x="366" y="499" type="qcurve" smooth="yes"/>
      <point x="290" y="499"/>
      <point x="256" y="557" type="qcurve" smooth="yes"/>
      <point x="239" y="586"/>
      <point x="239" y="622" type="qcurve" smooth="yes"/>
      <point x="239" y="690"/>
      <point x="297" y="721" type="qcurve" smooth="yes"/>
      <point x="327" y="737"/>
    </contour>
  </outline>
</glyph>
<glyph name="Epsilontonos" format="1">
  <advance width="1550"/>
  <unicode hex="0388"/>
  <outline>
    <contour>
      <point x="585" y="177" type="qcurve" smooth="yes"/>
      <point x="585" y="1095" type="line" smooth="yes"/>
      <point x="585" y="1205"/>
      <point x="398" y="1205" type="qcurve" smooth="yes"/>
      <point x="384" y="1205"/>
      <point x="384" y="1275"/>
      <point x="398" y="1275" type="qcurve" smooth="yes"/>
      <point x="1299" y="1275" type="line" smooth="yes"/>
      <point x="1322" y="1275"/>
      <point x="1330" y="1257" type="qcurve"/>
      <point x="1431" y="965" type="line"/>
      <point x="1431" y="948"/>
      <point x="1398" y="913"/>
      <point x="1368" y="913"/>
      <point x="1219" y="1212"/>
      <point x="1010" y="1212" type="qcurve" smooth="yes"/>
      <point x="786" y="1212" type="line" smooth="yes"/>
      <point x="745" y="1212"/>
      <point x="745" y="1164" type="qcurve" smooth="yes"/>
      <point x="745" y="726" type="line" smooth="yes"/>
      <point x="745" y="693"/>
      <point x="773" y="693" type="qcurve" smooth="yes"/>
      <point x="954" y="693" type="line" smooth="yes"/>
      <point x="1032" y="693"/>
      <point x="1071" y="751"/>
      <point x="1071" y="810" type="qcurve" smooth="yes"/>
      <point x="1071" y="884" type="line" smooth="yes"/>
      <point x="1071" y="897"/>
      <point x="1141" y="897"/>
      <point x="1141" y="884" type="qcurve" smooth="yes"/>
      <point x="1141" y="387" type="line" smooth="yes"/>
      <point x="1141" y="374"/>
      <point x="1071" y="374"/>
      <point x="1071" y="387" type="qcurve" smooth="yes"/>
      <point x="1071" y="529" type="line" smooth="yes"/>
      <point x="1071" y="572"/>
      <point x="1032" y="624"/>
      <point x="954" y="624" type="qcurve" smooth="yes"/>
      <point x="770" y="624" type="line" smooth="yes"/>
      <point x="745" y="624"/>
      <point x="745" y="593" type="qcurve" smooth="yes"/>
      <point x="745" y="262" type="line" smooth="yes"/>
      <point x="745" y="149"/>
      <point x="810" y="94" type="qcurve" smooth="yes"/>
      <point x="848" y="62"/>
      <point x="901" y="62" type="qcurve" smooth="yes"/>
      <point x="1188" y="62" type="line" smooth="yes"/>
      <point x="1346" y="62"/>
      <point x="1455" y="340" type="qcurve" smooth="yes"/>
      <point x="1460" y="354"/>
      <point x="1526" y="354"/>
      <point x="1526" y="335" type="qcurve"/>
      <point x="1441" y="20" type="line" smooth="yes"/>
      <point x="1436" y="0"/>
      <point x="1407" y="0" type="qcurve" smooth="yes"/>
      <point x="398" y="0" type="line" smooth="yes"/>
      <point x="384" y="0"/>
      <point x="384" y="68"/>
      <point x="398" y="69" type="qcurve"/>
      <point x="585" y="69"/>
    </contour>
    <contour>
      <point x="120" y="1028" type="qcurve" smooth="yes"/>
      <point x="106" y="1028"/>
      <point x="105" y="1049" type="qcurve" smooth="yes"/>
      <point x="105" y="1056"/>
      <point x="107" y="1062" type="qcurve" smooth="yes"/>
      <point x="218" y="1542" type="line" smooth="yes"/>
      <point x="236" y="1619"/>
      <point x="266" y="1620" type="qcurve" smooth="yes"/>
      <point x="289" y="1620"/>
      <point x="332" y="1556"/>
      <point x="332" y="1508"/>
      <point x="296" y="1400" type="qcurve" smooth="yes"/>
      <point x="220" y="1170" type="line" smooth="yes"/>
      <point x="174" y="1028"/>
    </contour>
  </outline>
</glyph>
<glyph name="Etatonos" format="1">
  <advance width="1820"/>
  <unicode hex="0389"/>
  <outline>
    <contour>
      <point x="1571" y="186" type="line" smooth="yes"/>
      <point x="1571" y="69"/>
      <point x="1751" y="69" type="qcurve" smooth="yes"/>
      <point x="1764" y="69"/>
      <point x="1764" y="0"/>
      <point x="1751" y="0" type="qcurve" smooth="yes"/>
      <point x="1233" y="0" type="line" smooth="yes"/>
      <point x="1220" y="0"/>
      <point x="1220" y="68"/>
      <point x="1233" y="69" type="qcurve"/>
      <point x="1411" y="69"/>
      <point x="1411" y="186" type="qcurve" smooth="yes"/>
      <point x="1411" y="551" type="line" smooth="yes"/>
      <point x="1411" y="589"/>
      <point x="1372" y="589" type="qcurve" smooth="yes"/>
      <point x="798" y="589" type="line" smooth="yes"/>
      <point x="759" y="589"/>
      <point x="759" y="551" type="qcurve" smooth="yes"/>
      <point x="759" y="186" type="line" smooth="yes"/>
      <point x="759" y="69"/>
      <point x="939" y="69" type="qcurve" smooth="yes"/>
      <point x="952" y="69"/>
      <point x="952" y="0"/>
      <point x="939" y="0" type="qcurve" smooth="yes"/>
      <point x="421" y="0" type="line" smooth="yes"/>
      <point x="408" y="0"/>
      <point x="408" y="68"/>
      <point x="421" y="69" type="qcurve"/>
      <point x="599" y="69"/>
      <point x="599" y="186" type="qcurve" smooth="yes"/>
      <point x="599" y="1089" type="line" smooth="yes"/>
      <point x="599" y="1204"/>
      <point x="410" y="1204" type="qcurve" smooth="yes"/>
      <point x="396" y="1204"/>
      <point x="396" y="1275"/>
      <point x="410" y="1275" type="qcurve" smooth="yes"/>
      <point x="939" y="1275" type="line" smooth="yes"/>
      <point x="952" y="1275"/>
      <point x="952" y="1204"/>
      <point x="939" y="1204" type="qcurve" smooth="yes"/>
      <point x="759" y="1204"/>
      <point x="759" y="1089" type="qcurve" smooth="yes"/>
      <point x="759" y="712" type="line" smooth="yes"/>
      <point x="759" y="673"/>
      <point x="798" y="673" type="qcurve" smooth="yes"/>
      <point x="1372" y="673" type="line" smooth="yes"/>
      <point x="1411" y="673"/>
      <point x="1411" y="712" type="qcurve" smooth="yes"/>
      <point x="1411" y="1089" type="line" smooth="yes"/>
      <point x="1411" y="1204"/>
      <point x="1222" y="1204" type="qcurve" smooth="yes"/>
      <point x="1208" y="1204"/>
      <point x="1208" y="1275"/>
      <point x="1222" y="1275" type="qcurve" smooth="yes"/>
      <point x="1751" y="1275" type="line" smooth="yes"/>
      <point x="1764" y="1275"/>
      <point x="1764" y="1204"/>
      <point x="1751" y="1204" type="qcurve" smooth="yes"/>
      <point x="1571" y="1204"/>
      <point x="1571" y="1089" type="qcurve" smooth="yes"/>
    </contour>
    <contour>
      <point x="120" y="1028" type="qcurve" smooth="yes"/>
      <point x="106" y="1028"/>
      <point x="105" y="1049" type="qcurve" smooth="yes"/>
      <point x="105" y="1056"/>
      <point x="107" y="1062" type="qcurve" smooth="yes"/>
      <point x="218" y="1542" type="line" smooth="yes"/>
      <point x="236" y="1619"/>
      <point x="266" y="1620" type="qcurve" smooth="yes"/>
      <point x="289" y="1620"/>
      <point x="332" y="1556"/>
      <point x="332" y="1508"/>
      <point x="296" y="1400" type="qcurve" smooth="yes"/>
      <point x="220" y="1170" type="line" smooth="yes"/>
      <point x="174" y="1028"/>
    </contour>
  </outline>
</glyph>
<glyph name="Iotatonos" format="1">
  <advance width="999"/>
  <unicode hex="038A"/>
  <outline>
    <contour>
      <point x="587" y="186" type="qcurve" smooth="yes"/>
      <point x="587" y="1089" type="line" smooth="yes"/>
      <point x="587" y="1204"/>
      <point x="398" y="1204" type="qcurve" smooth="yes"/>
      <point x="384" y="1204"/>
      <point x="384" y="1275"/>
      <point x="398" y="1275" type="qcurve" smooth="yes"/>
      <point x="927" y="1275" type="line" smooth="yes"/>
      <point x="940" y="1275"/>
      <point x="940" y="1204"/>
      <point x="927" y="1204" type="qcurve" smooth="yes"/>
      <point x="747" y="1204"/>
      <point x="747" y="1089" type="qcurve" smooth="yes"/>
      <point x="747" y="186" type="line" smooth="yes"/>
      <point x="747" y="69"/>
      <point x="927" y="69" type="qcurve" smooth="yes"/>
      <point x="940" y="69"/>
      <point x="940" y="0"/>
      <point x="927" y="0" type="qcurve" smooth="yes"/>
      <point x="409" y="0" type="line" smooth="yes"/>
      <point x="396" y="0"/>
      <point x="396" y="69"/>
      <point x="409" y="69" type="qcurve" smooth="yes"/>
      <point x="587" y="69"/>
    </contour>
    <contour>
      <point x="120" y="1028" type="qcurve" smooth="yes"/>
      <point x="106" y="1028"/>
      <point x="105" y="1049" type="qcurve" smooth="yes"/>
      <point x="105" y="1056"/>
      <point x="107" y="1062" type="qcurve" smooth="yes"/>
      <point x="218" y="1542" type="line" smooth="yes"/>
      <point x="236" y="1619"/>
      <point x="266" y="1620" type="qcurve" smooth="yes"/>
      <point x="289" y="1620"/>
      <point x="332" y="1556"/>
      <point x="332" y="1508"/>
      <point x="296" y="1400" type="qcurve" smooth="yes"/>
      <point x="220" y="1170" type="line" smooth="yes"/>
      <point x="174" y="1028"/>
    </contour>
  </outline>
</glyph>
<glyph name="Omicrontonos" format="1">
  <advance width="1673"/>
  <unicode hex="038C"/>
  <outline>
    <contour>
      <point x="304" y="622" type="qcurve" smooth="yes"/>
      <point x="304" y="845"/>
      <point x="656" y="1295"/>
      <point x="953" y="1295" type="qcurve" smooth="yes"/>
      <point x="1219" y="1295"/>
      <point x="1596" y="884"/>
      <point x="1596" y="618" type="qcurve" smooth="yes"/>
      <point x="1596" y="362"/>
      <point x="1248" y="-27"/>
      <point x="948" y="-27" type="qcurve" smooth="yes"/>
      <point x="658" y="-27"/>
      <point x="304" y="338"/>
    </contour>
    <contour>
      <point x="495" y="681" type="qcurve" smooth="yes"/>
      <point x="495" y="371"/>
      <point x="795" y="48"/>
      <point x="962" y="48" type="qcurve" smooth="yes"/>
      <point x="1174" y="48"/>
      <point x="1405" y="349"/>
      <point x="1405" y="602" type="qcurve" smooth="yes"/>
      <point x="1405" y="841"/>
      <point x="1114" y="1224"/>
      <point x="940" y="1224" type="qcurve" smooth="yes"/>
      <point x="730" y="1224"/>
      <point x="495" y="867"/>
    </contour>
    <contour>
      <point x="120" y="1028" type="qcurve" smooth="yes"/>
      <point x="106" y="1028"/>
      <point x="105" y="1049" type="qcurve" smooth="yes"/>
      <point x="105" y="1056"/>
      <point x="107" y="1062" type="qcurve" smooth="yes"/>
      <point x="218" y="1542" type="line" smooth="yes"/>
      <point x="236" y="1619"/>
      <point x="266" y="1620" type="qcurve" smooth="yes"/>
      <point x="289" y="1620"/>
      <point x="332" y="1556"/>
      <point x="332" y="1508"/>
      <point x="296" y="1400" type="qcurve" smooth="yes"/>
      <point x="220" y="1170" type="line" smooth="yes"/>
      <point x="174" y="1028"/>
    </contour>
  </outline>
</glyph>
<glyph name="Upsilontonos" format="1">
  <advance width="1581"/>
  <unicode hex="038E"/>
  <outline>
    <contour>
      <point x="346" y="1084" type="qcurve" smooth="yes"/>
      <point x="346" y="1132"/>
      <point x="566" y="1295"/>
      <point x="634" y="1295" type="qcurve" smooth="yes"/>
      <point x="732" y="1295"/>
      <point x="884" y="1142"/>
      <point x="931" y="1000" type="qcurve" smooth="yes"/>
      <point x="936" y="985"/>
      <point x="964" y="985"/>
      <point x="970" y="1000" type="qcurve" smooth="yes"/>
      <point x="1033" y="1162"/>
      <point x="1160" y="1295"/>
      <point x="1267" y="1295" type="qcurve" smooth="yes"/>
      <point x="1335" y="1295"/>
      <point x="1556" y="1132"/>
      <point x="1556" y="1084" type="qcurve" smooth="yes"/>
      <point x="1556" y="1060"/>
      <point x="1532" y="1060" type="qcurve" smooth="yes"/>
      <point x="1497" y="1060"/>
      <point x="1354" y="1142"/>
      <point x="1255" y="1142" type="qcurve" smooth="yes"/>
      <point x="1153" y="1142"/>
      <point x="1030" y="1015"/>
      <point x="1030" y="884" type="qcurve" smooth="yes"/>
      <point x="1030" y="186" type="line" smooth="yes"/>
      <point x="1030" y="69"/>
      <point x="1210" y="69" type="qcurve" smooth="yes"/>
      <point x="1223" y="69"/>
      <point x="1223" y="0"/>
      <point x="1210" y="0" type="qcurve" smooth="yes"/>
      <point x="692" y="0" type="line" smooth="yes"/>
      <point x="679" y="0"/>
      <point x="679" y="69"/>
      <point x="692" y="69" type="qcurve" smooth="yes"/>
      <point x="870" y="69"/>
      <point x="870" y="186" type="qcurve" smooth="yes"/>
      <point x="870" y="884" type="line" smooth="yes"/>
      <point x="870" y="1015"/>
      <point x="750" y="1142"/>
      <point x="658" y="1142" type="qcurve" smooth="yes"/>
      <point x="548" y="1142"/>
      <point x="404" y="1060"/>
      <point x="370" y="1060" type="qcurve" smooth="yes"/>
      <point x="346" y="1060"/>
    </contour>
    <contour>
      <point x="102" y="1028" type="qcurve" smooth="yes"/>
      <point x="88" y="1028"/>
      <point x="88" y="1049" type="qcurve" smooth="yes"/>
      <point x="88" y="1056"/>
      <point x="89" y="1062" type="qcurve" smooth="yes"/>
      <point x="201" y="1542" type="line" smooth="yes"/>
      <point x="219" y="1619"/>
      <point x="248" y="1620" type="qcurve" smooth="yes"/>
      <point x="271" y="1620"/>
      <point x="314" y="1556"/>
      <point x="314" y="1508"/>
      <point x="278" y="1400" type="qcurve" smooth="yes"/>
      <point x="202" y="1170" type="line" smooth="yes"/>
      <point x="155" y="1028"/>
    </contour>
  </outline>
</glyph>
<glyph name="Omegatonos" format="1">
  <advance width="1735"/>
  <unicode hex="038F"/>
  <outline>
    <contour>
      <point x="1218" y="1305"/>
      <point x="1571" y="1010"/>
      <point x="1571" y="825" type="qcurve" smooth="yes"/>
      <point x="1571" y="701"/>
      <point x="1434" y="373"/>
      <point x="1294" y="162"/>
      <point x="1219" y="62" type="qcurve"/>
      <point x="1367" y="69" type="line"/>
      <point x="1430" y="74"/>
      <point x="1544" y="104"/>
      <point x="1587" y="176"/>
      <point x="1587" y="250" type="qcurve" smooth="yes"/>
      <point x="1587" y="267"/>
      <point x="1662" y="267"/>
      <point x="1662" y="250" type="qcurve" smooth="yes"/>
      <point x="1662" y="23" type="line" smooth="yes"/>
      <point x="1662" y="-6"/>
      <point x="1639" y="-6" type="qcurve" smooth="yes"/>
      <point x="1485" y="0"/>
      <point x="1392" y="0" type="qcurve" smooth="yes"/>
      <point x="1248" y="0"/>
      <point x="1104" y="0" type="qcurve" smooth="yes"/>
      <point x="1089" y="0"/>
      <point x="1089" y="44"/>
      <point x="1108" y="57" type="qcurve"/>
      <point x="1182" y="168"/>
      <point x="1370" y="508"/>
      <point x="1370" y="710" type="qcurve" smooth="yes"/>
      <point x="1370" y="940"/>
      <point x="1119" y="1214"/>
      <point x="767" y="1214"/>
      <point x="515" y="940"/>
      <point x="515" y="710" type="qcurve" smooth="yes"/>
      <point x="515" y="508"/>
      <point x="703" y="168"/>
      <point x="777" y="57" type="qcurve"/>
      <point x="796" y="44"/>
      <point x="796" y="0"/>
      <point x="781" y="0" type="qcurve" smooth="yes"/>
      <point x="637" y="0"/>
      <point x="493" y="0" type="qcurve" smooth="yes"/>
      <point x="400" y="0"/>
      <point x="246" y="-6" type="qcurve" smooth="yes"/>
      <point x="223" y="-6"/>
      <point x="223" y="23" type="qcurve" smooth="yes"/>
      <point x="223" y="250" type="line" smooth="yes"/>
      <point x="223" y="267"/>
      <point x="298" y="267"/>
      <point x="298" y="250" type="qcurve" smooth="yes"/>
      <point x="298" y="176"/>
      <point x="341" y="108"/>
      <point x="455" y="74"/>
      <point x="518" y="69" type="qcurve"/>
      <point x="666" y="62" type="line"/>
      <point x="591" y="162"/>
      <point x="451" y="373"/>
      <point x="314" y="701"/>
      <point x="314" y="825" type="qcurve" smooth="yes"/>
      <point x="314" y="1010"/>
      <point x="676" y="1305"/>
    </contour>
    <contour>
      <point x="120" y="1028" type="qcurve" smooth="yes"/>
      <point x="106" y="1028"/>
      <point x="105" y="1049" type="qcurve" smooth="yes"/>
      <point x="105" y="1056"/>
      <point x="107" y="1062" type="qcurve" smooth="yes"/>
      <point x="218" y="1542" type="line" smooth="yes"/>
      <point x="236" y="1619"/>
      <point x="266" y="1620" type="qcurve" smooth="yes"/>
      <point x="289" y="1620"/>
      <point x="332" y="1556"/>
      <point x="332" y="1508"/>
      <point x="296" y="1400" type="qcurve" smooth="yes"/>
      <point x="220" y="1170" type="line" smooth="yes"/>
      <point x="174" y="1028"/>
    </contour>
  </outline>
</glyph>
<glyph name="iotadieresistonos" format="1">
  <advance width="445"/>
  <unicode hex="0390"/>
  <outline>
    <contour>
      <point x="40" y="105" type="qcurve" smooth="yes"/>
      <point x="40" y="153"/>
      <point x="64" y="237" type="qcurve" smooth="yes"/>
      <point x="232" y="825" type="line" smooth="yes"/>
      <point x="245" y="870"/>
      <point x="308" y="870" type="qcurve" smooth="yes"/>
      <point x="353" y="870"/>
      <point x="385" y="831"/>
      <point x="385" y="792" type="qcurve" smooth="yes"/>
      <point x="385" y="742"/>
      <point x="187" y="344"/>
      <point x="175" y="250" type="qcurve"/>
      <point x="204" y="262"/>
      <point x="250" y="262" type="qcurve" smooth="yes"/>
      <point x="286" y="262"/>
      <point x="328" y="204"/>
      <point x="328" y="172" type="qcurve" smooth="yes"/>
      <point x="328" y="98"/>
      <point x="228" y="-29"/>
      <point x="159" y="-29" type="qcurve" smooth="yes"/>
      <point x="104" y="-29"/>
      <point x="40" y="34"/>
    </contour>
    <contour>
      <point x="215" y="1156" type="qcurve" smooth="yes"/>
      <point x="215" y="1111"/>
      <point x="152" y="1048"/>
      <point x="62" y="1048"/>
      <point x="-1" y="1111"/>
      <point x="-1" y="1201"/>
      <point x="62" y="1264"/>
      <point x="152" y="1264"/>
      <point x="215" y="1201"/>
    </contour>
    <contour>
      <point x="681" y="1156" type="qcurve" smooth="yes"/>
      <point x="681" y="1111"/>
      <point x="618" y="1048"/>
      <point x="528" y="1048"/>
      <point x="465" y="1111"/>
      <point x="465" y="1201"/>
      <point x="528" y="1264"/>
      <point x="618" y="1264"/>
      <point x="681" y="1201"/>
    </contour>
    <contour>
      <point x="311" y="1148" type="qcurve" smooth="yes"/>
      <point x="297" y="1148"/>
      <point x="297" y="1168" type="qcurve" smooth="yes"/>
      <point x="297" y="1174"/>
      <point x="298" y="1181" type="qcurve" smooth="yes"/>
      <point x="374" y="1542" type="line" smooth="yes"/>
      <point x="390" y="1619"/>
      <point x="421" y="1620" type="qcurve" smooth="yes"/>
      <point x="444" y="1620"/>
      <point x="487" y="1556"/>
      <point x="487" y="1498"/>
      <point x="451" y="1400" type="qcurve" smooth="yes"/>
      <point x="411" y="1290" type="line" smooth="yes"/>
      <point x="359" y="1148"/>
    </contour>
  </outline>
</glyph>
<glyph name="Gamma" format="1">
  <advance width="1310"/>
  <unicode hex="0393"/>
  <outline>
    <contour>
      <point x="826" y="1212" type="line" smooth="yes"/>
      <point x="1035" y="1212"/>
      <point x="1184" y="913"/>
      <point x="1214" y="913"/>
      <point x="1247" y="948"/>
      <point x="1247" y="965" type="qcurve"/>
      <point x="1146" y="1257" type="line"/>
      <point x="1138" y="1275"/>
      <point x="1115" y="1275" type="qcurve" smooth="yes"/>
      <point x="84" y="1275" type="line" smooth="yes"/>
      <point x="70" y="1275"/>
      <point x="70" y="1205"/>
      <point x="84" y="1205" type="qcurve" smooth="yes"/>
      <point x="271" y="1205"/>
      <point x="271" y="1095" type="qcurve" smooth="yes"/>
      <point x="271" y="177" type="line" smooth="yes"/>
      <point x="271" y="69"/>
      <point x="84" y="69" type="qcurve" smooth="yes"/>
      <point x="70" y="69"/>
      <point x="70" y="0"/>
      <point x="84" y="0" type="qcurve" smooth="yes"/>
      <point x="611" y="0" type="line" smooth="yes"/>
      <point x="624" y="0"/>
      <point x="624" y="69"/>
      <point x="611" y="69" type="qcurve" smooth="yes"/>
      <point x="431" y="69"/>
      <point x="431" y="177" type="qcurve" smooth="yes"/>
      <point x="431" y="1164" type="line" smooth="yes"/>
      <point x="431" y="1212"/>
      <point x="472" y="1212" type="qcurve" smooth="yes"/>
    </contour>
  </outline>
</glyph>
<glyph name="Delta" format="1">
  <advance width="1338"/>
  <unicode hex="0394"/>
  <outline>
    <contour>
      <point x="119" y="0" type="line" smooth="yes"/>
      <point x="54" y="0"/>
      <point x="54" y="44" type="qcurve" smooth="yes"/>
      <point x="54" y="59"/>
      <point x="62" y="80" type="qcurve"/>
      <point x="627" y="1290" type="line"/>
      <point x="636" y="1313"/>
      <point x="750" y="1313"/>
      <point x="758" y="1290" type="qcurve"/>
      <point x="1277" y="79" type="line"/>
      <point x="1284" y="59"/>
      <point x="1284" y="44" type="qcurve" smooth="yes"/>
      <point x="1284" y="-1"/>
      <point x="1225" y="-1" type="qcurve" smooth="yes"/>
    </contour>
    <contour>
      <point x="235" y="227" type="qcurve" smooth="yes"/>
      <point x="235" y="165"/>
      <point x="390" y="165" type="qcurve" smooth="yes"/>
      <point x="939" y="164" type="line" smooth="yes"/>
      <point x="1037" y="164"/>
      <point x="1037" y="232" type="qcurve" smooth="yes"/>
      <point x="1037" y="256"/>
      <point x="1029" y="281" type="qcurve"/>
      <point x="662" y="1085" type="line"/>
      <point x="656" y="1105"/>
      <point x="632" y="1105"/>
      <point x="625" y="1085" type="qcurve"/>
      <point x="248" y="278" type="line"/>
      <point x="235" y="247"/>
    </contour>
  </outline>
</glyph>
<glyph name="Epsilon" format="1">
  <advance width="1241"/>
  <unicode hex="0395"/>
  <outline>
    <contour>
      <point x="620" y="1415" type="move" name="above"/>
    </contour>
    <contour>
      <point x="271" y="177" type="qcurve" smooth="yes"/>
      <point x="271" y="1095" type="line" smooth="yes"/>
      <point x="271" y="1205"/>
      <point x="84" y="1205" type="qcurve" smooth="yes"/>
      <point x="70" y="1205"/>
      <point x="70" y="1275"/>
      <point x="84" y="1275" type="qcurve" smooth="yes"/>
      <point x="985" y="1275" type="line" smooth="yes"/>
      <point x="1008" y="1275"/>
      <point x="1016" y="1257" type="qcurve"/>
      <point x="1117" y="965" type="line"/>
      <point x="1117" y="948"/>
      <point x="1084" y="913"/>
      <point x="1054" y="913"/>
      <point x="905" y="1212"/>
      <point x="696" y="1212" type="qcurve" smooth="yes"/>
      <point x="472" y="1212" type="line" smooth="yes"/>
      <point x="431" y="1212"/>
      <point x="431" y="1164" type="qcurve" smooth="yes"/>
      <point x="431" y="726" type="line" smooth="yes"/>
      <point x="431" y="693"/>
      <point x="459" y="693" type="qcurve" smooth="yes"/>
      <point x="640" y="693" type="line" smooth="yes"/>
      <point x="718" y="693"/>
      <point x="757" y="751"/>
      <point x="757" y="810" type="qcurve" smooth="yes"/>
      <point x="757" y="884" type="line" smooth="yes"/>
      <point x="757" y="897"/>
      <point x="827" y="897"/>
      <point x="827" y="884" type="qcurve" smooth="yes"/>
      <point x="827" y="387" type="line" smooth="yes"/>
      <point x="827" y="374"/>
      <point x="757" y="374"/>
      <point x="757" y="387" type="qcurve" smooth="yes"/>
      <point x="757" y="529" type="line" smooth="yes"/>
      <point x="757" y="572"/>
      <point x="718" y="624"/>
      <point x="640" y="624" type="qcurve" smooth="yes"/>
      <point x="456" y="624" type="line" smooth="yes"/>
      <point x="431" y="624"/>
      <point x="431" y="593" type="qcurve" smooth="yes"/>
      <point x="431" y="262" type="line" smooth="yes"/>
      <point x="431" y="149"/>
      <point x="496" y="94" type="qcurve" smooth="yes"/>
      <point x="534" y="62"/>
      <point x="587" y="62" type="qcurve" smooth="yes"/>
      <point x="874" y="62" type="line" smooth="yes"/>
      <point x="1032" y="62"/>
      <point x="1141" y="340" type="qcurve" smooth="yes"/>
      <point x="1146" y="354"/>
      <point x="1212" y="354"/>
      <point x="1212" y="335" type="qcurve"/>
      <point x="1127" y="20" type="line" smooth="yes"/>
      <point x="1122" y="0"/>
      <point x="1093" y="0" type="qcurve" smooth="yes"/>
      <point x="84" y="0" type="line" smooth="yes"/>
      <point x="70" y="0"/>
      <point x="70" y="68"/>
      <point x="84" y="69" type="qcurve"/>
      <point x="271" y="69"/>
    </contour>
  </outline>
</glyph>
<glyph name="Zeta" format="1">
  <advance width="1208"/>
  <unicode hex="0396"/>
  <outline>
    <contour>
      <point x="83" y="24" type="qcurve" smooth="yes"/>
      <point x="83" y="37"/>
      <point x="93" y="51" type="qcurve" smooth="yes"/>
      <point x="857" y="1168" type="line" smooth="yes"/>
      <point x="866" y="1180"/>
      <point x="866" y="1189" type="qcurve" smooth="yes"/>
      <point x="866" y="1209"/>
      <point x="835" y="1209" type="qcurve" smooth="yes"/>
      <point x="441" y="1209" type="line" smooth="yes"/>
      <point x="386" y="1209"/>
      <point x="248" y="1088"/>
      <point x="183" y="963"/>
      <point x="164" y="896" type="qcurve" smooth="yes"/>
      <point x="162" y="889"/>
      <point x="118" y="889"/>
      <point x="115" y="903" type="qcurve"/>
      <point x="148" y="1116"/>
      <point x="148" y="1266" type="qcurve" smooth="yes"/>
      <point x="148" y="1284"/>
      <point x="185" y="1284" type="qcurve"/>
      <point x="282" y="1275"/>
      <point x="332" y="1275" type="qcurve" smooth="yes"/>
      <point x="1081" y="1275" type="line" smooth="yes"/>
      <point x="1106" y="1275"/>
      <point x="1106" y="1261" type="qcurve" smooth="yes"/>
      <point x="1106" y="1247"/>
      <point x="1092" y="1229" type="qcurve"/>
      <point x="340" y="118" type="line" smooth="yes"/>
      <point x="331" y="106"/>
      <point x="331" y="94" type="qcurve" smooth="yes"/>
      <point x="331" y="69"/>
      <point x="361" y="69" type="qcurve" smooth="yes"/>
      <point x="611" y="69"/>
      <point x="816" y="82" type="qcurve" smooth="yes"/>
      <point x="896" y="87"/>
      <point x="1075" y="319"/>
      <point x="1083" y="352" type="qcurve"/>
      <point x="1086" y="359"/>
      <point x="1102" y="359"/>
      <point x="1133" y="346"/>
      <point x="1133" y="336" type="qcurve"/>
      <point x="1085" y="100"/>
      <point x="1085" y="-17" type="qcurve" smooth="yes"/>
      <point x="1085" y="-30"/>
      <point x="1070" y="-33" type="qcurve"/>
      <point x="1035" y="-23"/>
      <point x="1015" y="-21" type="qcurve" smooth="yes"/>
      <point x="828" y="0"/>
      <point x="483" y="0" type="qcurve" smooth="yes"/>
      <point x="118" y="0" type="line" smooth="yes"/>
      <point x="83" y="0"/>
    </contour>
  </outline>
</glyph>
<glyph name="Eta" format="1">
  <advance width="1492"/>
  <unicode hex="0397"/>
  <outline>
    <contour>
      <point x="798" y="1415" type="move" name="above"/>
    </contour>
    <contour>
      <point x="1243" y="186" type="line" smooth="yes"/>
      <point x="1243" y="69"/>
      <point x="1423" y="69" type="qcurve" smooth="yes"/>
      <point x="1436" y="69"/>
      <point x="1436" y="0"/>
      <point x="1423" y="0" type="qcurve" smooth="yes"/>
      <point x="905" y="0" type="line" smooth="yes"/>
      <point x="892" y="0"/>
      <point x="892" y="68"/>
      <point x="905" y="69" type="qcurve"/>
      <point x="1083" y="69"/>
      <point x="1083" y="186" type="qcurve" smooth="yes"/>
      <point x="1083" y="551" type="line" smooth="yes"/>
      <point x="1083" y="589"/>
      <point x="1044" y="589" type="qcurve" smooth="yes"/>
      <point x="470" y="589" type="line" smooth="yes"/>
      <point x="431" y="589"/>
      <point x="431" y="551" type="qcurve" smooth="yes"/>
      <point x="431" y="186" type="line" smooth="yes"/>
      <point x="431" y="69"/>
      <point x="611" y="69" type="qcurve" smooth="yes"/>
      <point x="624" y="69"/>
      <point x="624" y="0"/>
      <point x="611" y="0" type="qcurve" smooth="yes"/>
      <point x="93" y="0" type="line" smooth="yes"/>
      <point x="80" y="0"/>
      <point x="80" y="68"/>
      <point x="93" y="69" type="qcurve"/>
      <point x="271" y="69"/>
      <point x="271" y="186" type="qcurve" smooth="yes"/>
      <point x="271" y="1089" type="line" smooth="yes"/>
      <point x="271" y="1204"/>
      <point x="82" y="1204" type="qcurve" smooth="yes"/>
      <point x="68" y="1204"/>
      <point x="68" y="1275"/>
      <point x="82" y="1275" type="qcurve" smooth="yes"/>
      <point x="611" y="1275" type="line" smooth="yes"/>
      <point x="624" y="1275"/>
      <point x="624" y="1204"/>
      <point x="611" y="1204" type="qcurve" smooth="yes"/>
      <point x="431" y="1204"/>
      <point x="431" y="1089" type="qcurve" smooth="yes"/>
      <point x="431" y="712" type="line" smooth="yes"/>
      <point x="431" y="673"/>
      <point x="470" y="673" type="qcurve" smooth="yes"/>
      <point x="1044" y="673" type="line" smooth="yes"/>
      <point x="1083" y="673"/>
      <point x="1083" y="712" type="qcurve" smooth="yes"/>
      <point x="1083" y="1089" type="line" smooth="yes"/>
      <point x="1083" y="1204"/>
      <point x="894" y="1204" type="qcurve" smooth="yes"/>
      <point x="880" y="1204"/>
      <point x="880" y="1275"/>
      <point x="894" y="1275" type="qcurve" smooth="yes"/>
      <point x="1423" y="1275" type="line" smooth="yes"/>
      <point x="1436" y="1275"/>
      <point x="1436" y="1204"/>
      <point x="1423" y="1204" type="qcurve" smooth="yes"/>
      <point x="1243" y="1204"/>
      <point x="1243" y="1089" type="qcurve" smooth="yes"/>
    </contour>
  </outline>
</glyph>
<glyph name="Theta" format="1">
  <advance width="1461"/>
  <unicode hex="0398"/>
  <outline>
    <contour>
      <point x="91" y="622" type="qcurve" smooth="yes"/>
      <point x="91" y="845"/>
      <point x="443" y="1295"/>
      <point x="740" y="1295" type="qcurve" smooth="yes"/>
      <point x="1006" y="1295"/>
      <point x="1383" y="884"/>
      <point x="1383" y="618" type="qcurve" smooth="yes"/>
      <point x="1383" y="362"/>
      <point x="1035" y="-27"/>
      <point x="735" y="-27" type="qcurve" smooth="yes"/>
      <point x="445" y="-27"/>
      <point x="91" y="338"/>
    </contour>
    <contour>
      <point x="282" y="681" type="qcurve" smooth="yes"/>
      <point x="282" y="371"/>
      <point x="582" y="48"/>
      <point x="749" y="48" type="qcurve" smooth="yes"/>
      <point x="961" y="48"/>
      <point x="1192" y="349"/>
      <point x="1192" y="602" type="qcurve" smooth="yes"/>
      <point x="1192" y="841"/>
      <point x="901" y="1224"/>
      <point x="727" y="1224" type="qcurve" smooth="yes"/>
      <point x="517" y="1224"/>
      <point x="282" y="867"/>
    </contour>
    <contour>
      <point x="609" y="570" type="line" smooth="yes"/>
      <point x="492" y="570"/>
      <point x="465" y="455" type="qcurve" smooth="yes"/>
      <point x="462" y="443"/>
      <point x="389" y="443"/>
      <point x="389" y="460"/>
      <point x="412" y="526"/>
      <point x="474" y="788"/>
      <point x="474" y="830" type="qcurve" smooth="yes"/>
      <point x="474" y="843"/>
      <point x="550" y="843"/>
      <point x="550" y="825"/>
      <point x="545" y="802"/>
      <point x="545" y="759"/>
      <point x="583" y="714"/>
      <point x="640" y="714" type="qcurve" smooth="yes"/>
      <point x="842" y="715" type="line" smooth="yes"/>
      <point x="959" y="716"/>
      <point x="986" y="830" type="qcurve" smooth="yes"/>
      <point x="989" y="842"/>
      <point x="1062" y="842"/>
      <point x="1062" y="825"/>
      <point x="1039" y="755"/>
      <point x="977" y="498"/>
      <point x="977" y="455" type="qcurve" smooth="yes"/>
      <point x="977" y="442"/>
      <point x="901" y="442"/>
      <point x="901" y="461"/>
      <point x="906" y="488"/>
      <point x="906" y="525"/>
      <point x="867" y="570"/>
      <point x="811" y="570" type="qcurve" smooth="yes"/>
    </contour>
  </outline>
</glyph>
